<?xml version="1.0" encoding="utf-8"?>
<!-- Generator: Adobe Illustrator 19.0.0, SVG Export Plug-In . SVG Version: 6.00 Build 0)  -->
<svg version="1.1" id="Layer_1" xmlns="http://www.w3.org/2000/svg" xmlns:xlink="http://www.w3.org/1999/xlink" x="0px" y="0px"
	 viewBox="0 0 2536.2 3427.8" style="enable-background:new 0 0 2536.2 3427.8;" xml:space="preserve">
<style type="text/css">
	.st0{fill:#FF5722;}
	.st1{fill-rule:evenodd;clip-rule:evenodd;fill:#FF5722;}
</style>
<path class="st0" d="M2314.8,730.2h-1h-542.9c-0.9-233-127.3-728.3-511.3-730.2C836-2.1,745.6,534.2,744.6,730.2H201
	c-146.6,0-120.1,148.3-120.1,148.3L186,2321c0,0-4.4,317.8,275,326.3c18,0,1561.5-0.3,1596.9,0.1c270.2-17.4,274-326.8,274-326.8
	l105.4-1442.9C2437.4,877.7,2462,727.2,2314.8,730.2z M1260.5,132.2c337.9,8.5,373.7,554.1,376,598.1H879
	C880.2,686.2,902.7,141,1260.5,132.2z M1635.8,2113.5c-42.8,76.4-121.4,123.7-203.5,147.9c-184.8,54.5-387.9-3.4-537.7-118.1
	c-19.3-14.7-30-38.7-16.2-61.8c11.4-19.1,42.3-31.1,61.8-16.2c152.4,116.7,384.1,181.5,553.8,70.1c71.4-46.8,107.3-137.3,80.5-218.1
	c-25.6-77-97-130.6-164.4-166.5c-88.6-47.2-209.9-84.8-268.7-114.2c-76.3-38.2-160.4-89.8-199.3-168.6
	c-48.7-98.5-16.7-220.1,56.7-297.6c149-157.2,408.5-131.3,574-15.6c47.3,33.1,2.1,111.4-45.6,78c-84.8-59.3-199.2-96.4-302.5-79.5
	c-112.5,18.4-231.9,106.5-215.2,234.1c10.4,79.4,86.3,126.4,150.7,159.8c34.8,18.1,72.7,33.7,114.9,49.1
	c137.6,50.2,288.7,114.6,360.7,238.2C1685.1,1919.3,1683.5,2028.5,1635.8,2113.5z"/>
<g>
	<g>
		<path class="st0" d="M150.2,3354.2v32h-32v-126h74v-280.9c0-23.8-19.2-43.1-43-43.1h-31v-55.9c0-11.9-10.1-21.6-22-21.6
			s-22,9.7-22,21.6v55.9H21.6c-11.9,0-21.4,9.8-21.4,21.7v258.9v43.4h74v126H21.6c-11.9,0-21.6,9.6-21.6,21.5
			c0,11.9,9.7,21.5,21.6,21.5h170.6v-75 M192.2,3354.3c0-11.9-10-21.5-22-21.5c-11.9,0-21.2,9.6-21.2,21.5 M150.2,3216.2h-32v-236.7
			c0,0,19.1,0,19.2,0c7,0,12.8,4.7,12.8,13.6V3216.2z M74.2,3216.2h-31v-237h31V3216.2z"/>
		<path class="st0" d="M578.2,3083.2h-162v-44h119v-68.5c0-11.9-9.9-22.5-21.8-22.5h-97.2v-43H535l0,0c24,0,43.2,20.3,43.2,44.1
			V3083.2z"/>
		<path class="st0" d="M544.6,3201.5c-0.2,8.1-7.1,46.7-45,92.1c-34.4-48.4-40-92.2-40-92.2l-42.9-0.1c0,0,4.4,59.6,53.4,122.9
			c-25.8,23.4-47,45.3-93.8,67.9l17.9,37.4c50.2-24.3,74.7-48.1,103.6-74.3c29.1,28.4,52.5,53.3,105.9,74.4l18-37.4
			c-49.2-17.7-69-40.2-94.9-66.4c59.5-68.3,62.1-131.8,61.3-145.8c0-0.5,0,0.5,0,0c0-23.8-19.3-42.9-43.2-42.9H416.2v43h107.6h0
			C534.9,3180.2,544.6,3190,544.6,3201.5"/>
		<path class="st0" d="M384.2,2951.1c0-1.4,0-2.8,0-4.2c0-23.8-19-43.2-42.8-43.2l-119.2-0.1v525.6h43v-139h145.1c0,0-14.6-23-20-43
			H265.2v-62h119v-43h-119v-61h119V2951.1z M340.2,3038.2h-75v-90h54c12,0,21,9.8,21,21.7V3038.2z"/>
	</g>
	<g>
		<path class="st0" d="M1285.3,3401l28.6,26.1c42-40.3,59.4-67.9,66.6-83.9h-45.8C1318,3374.2,1285.3,3401,1285.3,3401z"/>
		<path class="st0" d="M1457.4,3343.2h-45.8c7.2,16,24.6,43.7,66.6,84l28.6-26.4C1506.7,3400.9,1474,3374.2,1457.4,3343.2z"/>
		<path class="st0" d="M1307.2,3320.2h177v-41.8l-0.3-346.3c-0.6-23.2-19.6-41.9-43.1-41.9h-112.3c-11.9,0-21.6,10-21.6,22h0.3
			V3320.2z M1441.2,3278.2h-91v-87h91V3278.2z M1441.2,3148.2h-91v-85h91V3148.2z M1441.2,3019.2h-91V2934l69.3,0
			c11.9,0,21.7,9.8,21.7,21.7V3019.2z"/>
		<path class="st0" d="M1873.5,3165.8c0-23.7-19.3-42.6-43-42.6h-0.2l-275.7-0.7c-12,0-21.6,9.8-21.6,21.6l0,283.1h42.2v-90h255v3.7
			c0,23.8-19.1,43-42.9,43c-0.1,0-0.1,0-0.1,0v42.1c1,0.1,3,0.1,4.6,0.1c45.2,0,81.6-36.7,81.6-81.9c0-1-0.2-2-0.2-3v-176.1
			 M1726.2,3208.2v-43h82v0.5c0,0,0.3,0,0.4,0c11.7,0,21.6,9.5,21.6,21.2c0,0.1,0,0.2,0,0.4v20.8v0.2H1726.2z M1808.8,3208.1
			 M1575.2,3165.2h108v43h-108V3165.2z M1575.2,3270.2v-19h108v43h-108V3270.2z M1726.2,3294.2v-43h104v21v22H1726.2z"/>
		<path class="st0" d="M1898.8,3068.4c0-11.9-10.6-21.8-21.6-21.9v0.7h-70v-29h43.7c11.9,0,21.6-10.1,21.6-22s-9.7-22-21.6-22h-43.7
			v-28h58v0.2c12,0,21.5-9.7,21.5-21.6c0-11.9-9.5-21.6-21.5-21.6v0h-58v-23.6c0-11.9-9.1-21.6-21-21.6c-11.9,0-21,9.7-21,21.6v23.6
			h-123v-23.6c0-11.9-10.1-21.6-22-21.6c-11.9,0-22,9.7-22,21.6v23.6h-59.8c-11.9,0-21.6,9.6-21.6,21.5c0,11.9,9.7,21.5,21.6,21.5
			h59.8v28h-43.1c-11.9,0-21.6,10.1-21.6,22s9.7,22,21.6,22h43.1v29h-69.3c-11.9,0-21.6,9.6-21.6,21.5c0,11.9,9.7,21.5,21.6,21.5
			h348.6l0,0c0,0,0,0,0,0c0,0,0,0,0,0c0,0,0,0,0,0C1889.3,3090.2,1898.8,3080.3,1898.8,3068.4z M1765.2,3047.2h-123v-29h123V3047.2z
			 M1765.2,2974.2h-123v-28h123V2974.2z"/>
		<path class="st0" d="M1877.4,3046.5C1877.4,3046.5,1877.4,3046.5,1877.4,3046.5L1877.4,3046.5
			C1877.4,3046.5,1877.4,3046.5,1877.4,3046.5z"/>
		<path class="st0" d="M1877.4,3047.2C1877.4,3047.2,1877.4,3047.2,1877.4,3047.2C1877.3,3047.2,1877.4,3047.2,1877.4,3047.2z"/>
	</g>
	<g>
		<path class="st1" d="M2184.5,3177.7l-33.2-28.4c0,0-14.1,16.1-40.1,38v-152h66v-43h-66v-113.1c0-11.9-9.6-21.6-21.5-21.6
			s-21.5,9.7-21.5,21.6v113.1H2031c1.4-17,2.2-35.5,2.2-55.3c0,0,0,0.1,0,0.1c0-0.4,0-0.7,0-1.1c0-11.9-9.7-21.6-21.6-21.6
			s-21.6,9.5-21.6,21.4c0,0.6,0,0.5,0.1,1.5c0,0,0,0-0.1,0c0,0,5.1,105.4-44.8,216.6l35.5,21.2c0,0,30.9-44.7,45.3-139.7h42.2v185.2
			c-32,22.2-72,45.1-118.2,61.5l19,35.5c0,0,44.3-13.5,99.3-46.9v158.6h43V3242C2135.2,3224.3,2160.7,3203,2184.5,3177.7z"/>
		<path class="st1" d="M2493.2,3264.8v0.8l0,0c0,66.2-54,119.6-121,119.9v43.3c91-0.3,164-73.5,164-163.8c0-0.1,0-0.1,0-0.2l0,0
			v-271.4c0-0.8-0.3-1.7-0.3-2.5c0-35.7-29.1-65.2-64.9-65.2c-0.8,0-1.8-0.5-2.7-0.5h-198c1.6-15,2.4-30.3,2.2-46.5
			c0-11.9-9.7-21.4-21.6-21.4s-21.6,9.7-21.6,21.6c0,0.1,0,0.3,0,0.3c0,0,0,0,0,0c0,3,5.9,129-76.4,234.4l31.6,23.3
			c0,0,56.2-63.7,78.8-168.7h44.5c-7.3,57-37.6,203-158.9,299l26.1,32.9c0,0,147.8-81,177.7-332h26.5h25.8
			c-0.4,44-12.5,278.3-220.4,422.3l23.7,32.9c0,0,226.6-119.2,241.3-455.2h20.4c0.1,0,0.2,0,0.2,0h0.9l0,0c12,0,21.5,10.3,21.6,22
			l0,0l0.5,61.7V3264.8z"/>
	</g>
	<path class="st1" d="M1155.2,3061.2h-176v-116h173l0,0c2.4,0,10.2,1,9.8,6.9c0,0,0.1,9.3-16.6,32.2l34,28.4
		c0,0,24.6-32.5,30.1-56.5c0,0,5.7-22.7-2-35.7c-11.2-17.7-38.6-18.3-38.6-18.3h-16.7h-173v-22.3c0-11.9-9.6-21.6-21.5-21.6
		s-21.5,9.7-21.5,21.6v22.3H767.1l0,0c0,0-0.5,0-0.8,0c-35.7,0-64.1,30.2-64.1,65.9c0,0.6,0,1.1,0,1.7v75.4h-0.5l0.2,107.1
		c0,169.2-64.8,243.7-64.8,243.7l34,29.4c78.9-89.9,73.5-241.3,73.5-241.3l0.2-79.8h367.5h19.9c26.8,0,17.3,21.6,17.3,21.6
		c-33.2,70.3-97.4,119.9-161.1,160.9c-66.8-41.5-123.5-83.5-167.1-160.5H777c0,0,30.6,93.2,171.8,184.5
		c-106.3,53.7-208.9,76.9-208.9,76.9l15.8,40.3c111.9-29,179.5-58.5,233-91.3c64.2,37.3,144.5,69.9,251.7,91.3l11.9-40.3
		c0,0-109.5-16.8-223-76.9c169.4-107.6,168.5-206.4,168.5-206.4h-0.2c0-23-18.9-43.1-42.5-43.1 M936.2,2945.2v116H745.1l-0.2-93.7
		c0-11.9,9.4-21.9,21.4-21.9l0,0"/>
</g>
</svg>
