<svg width="280px" height="280px" viewBox="0 0 280 280" version="1.1" xmlns="http://www.w3.org/2000/svg" xmlns:xlink="http://www.w3.org/1999/xlink">
    <g id="Page-1" stroke="none" stroke-width="1" fill="none" fill-rule="evenodd">
        <g id="Desktop-HD-Copy-7" transform="translate(-720.000000, -267.000000)">
            <g id="Group-2" transform="translate(720.000000, 267.000000)">
                <g id="Page-1" transform="translate(47.000000, 40.000000)" fill="#FF5722">
                    <path d="M120.945811,149.942514 C119.280071,171.497705 95.2305728,172.402077 91.3177532,172.205355 C72.7860529,171.823388 61.7307502,161.796612 61.7307502,161.796612 L61.7312976,161.796066 C60.9512517,161.240328 60.4410743,160.331585 60.4410743,159.30153 C60.4410743,157.608634 61.8155972,156.236503 63.5114443,156.236503 C64.2044535,156.236503 64.8416278,156.468197 65.3550896,156.853989 L65.3589214,156.849617 C65.3589214,156.849617 65.3917654,156.87694 65.4530743,156.927213 C65.4601905,156.933224 65.4667593,156.938689 65.4738755,156.944153 C66.6343648,157.887869 76.5154933,165.551803 91.478689,165.856175 C101.960863,165.522842 113.313405,160.345246 114.182677,149.621202 C115.461952,133.91847 93.1017318,128.113005 88.9420346,126.792787 C84.7823373,125.472568 62.2442119,119.532131 63.2191324,100.915738 C63.6734749,93.291694 70.706478,79.7785792 89.0630101,79.3763934 C105.326282,79.055082 114.182677,86.6900546 114.182677,86.6900546 L114.17775,86.696612 C114.804524,87.2578142 115.201389,88.0698361 115.201389,88.9769399 C115.201389,90.6698361 113.826319,92.0419672 112.130472,92.0419672 C111.468665,92.0419672 110.857218,91.8310383 110.355799,91.4753005 L110.354157,91.4774863 C110.354157,91.4774863 100.787784,85.4244809 89.2239459,85.4042623 C76.5034505,85.8862295 70.3714688,94.480765 70.0621875,101.719563 C70.0621875,113.453989 86.0451905,118.481858 88.9020743,119.642514 C104.279652,124.464918 122.464848,130.281858 120.945811,149.942514 M89.3597012,9.98021858 C114.920025,10.6190164 117.621995,51.7255738 117.80209,55.1370492 L60.503478,55.1370492 C60.5981783,51.7255738 62.2994994,10.6501639 89.3597012,9.98021858 M169.104475,55.1370492 L127.961298,55.1370492 C127.889588,37.5212022 118.335805,0.144699454 89.2868969,0.00043715847 C57.2552028,-0.158579235 50.4137899,40.2523497 50.3431752,55.1370492 L9.22408349,55.1370492 C-1.8651581,55.1004372 0.141612538,66.2676503 0.141612538,66.2676503 L8.08986942,175.157268 C8.08986942,175.157268 7.75869205,199.140874 28.8910927,199.776393 C30.2535728,199.776393 146.997701,199.744153 149.681059,199.776393 C170.115524,198.463279 170.403457,175.094426 170.403457,175.094426 L178.379631,66.207541 C178.379631,66.207541 180.240246,54.6982514 169.104475,55.1370492" id="Fill-1"></path>
                </g>
                <path d="M0,40 L280,40" id="Path-5" stroke-opacity="0.09" stroke="#000000"></path>
                <path d="M86,140 L366,140" id="Path-5-Copy-3" stroke-opacity="0.09" stroke="#000000" transform="translate(226.000000, 140.000000) scale(-1, 1) rotate(90.000000) translate(-226.000000, -140.000000) "></path>
                <path d="M-93,140 L187,140" id="Path-5-Copy-4" stroke-opacity="0.09" stroke="#000000" transform="translate(47.000000, 140.000000) scale(-1, 1) rotate(90.000000) translate(-47.000000, -140.000000) "></path>
                <path d="M0,95 L280,95" id="Path-5-Copy" stroke-opacity="0.09" stroke="#000000"></path>
                <path d="M0,240 L280,240" id="Path-5-Copy-2" stroke-opacity="0.09" stroke="#000000"></path>
                <circle id="Oval-2" stroke-opacity="0.09" stroke="#000000" cx="55.5" cy="103.5" r="7.5"></circle>
                <circle id="Oval-2-Copy" stroke-opacity="0.09" stroke="#000000" cx="217.5" cy="103.5" r="7.5"></circle>
                <circle id="Oval-2-Copy-2" stroke-opacity="0.09" stroke="#000000" cx="194" cy="218" r="22"></circle>
                <circle id="Oval-2-Copy-2" stroke-opacity="0.09" stroke="#000000" cx="78" cy="218" r="22"></circle>
            </g>
        </g>
    </g>
</svg>