<?xml version="1.0" encoding="utf-8"?>
<!-- Generator: Adobe Illustrator 19.0.0, SVG Export Plug-In . SVG Version: 6.00 Build 0)  -->
<svg version="1.1" id="Layer_1" xmlns="http://www.w3.org/2000/svg" xmlns:xlink="http://www.w3.org/1999/xlink" x="0px" y="0px"
	 viewBox="0 0 4341.2 1065.8" style="enable-background:new 0 0 4341.2 1065.8;" xml:space="preserve">
<style type="text/css">
	.st0{fill:#FF5722;}
	.st1{fill-rule:evenodd;clip-rule:evenodd;fill:#FF5722;}
</style>
<path class="st0" d="M900.3,294.1h-219C680.9,200.1,630,0.8,475.3,0c-170.5-0.8-207,215-207.3,294H49.1c-59,0-48.4,59.5-48.4,59.5
	l42.3,580.8c0,0-1.8,128,110.7,131.3c7.3,0,628.8-0.2,643.1,0c108.8-7,110.3-131.6,110.3-131.6l42.5-580.9
	C949.7,353.3,959.6,292.1,900.3,294.1z M475.7,53.2c136.1,3.4,150.5,222.8,151.4,240.8h-305C322.6,276.1,331.7,56.8,475.7,53.2z
	 M626.9,850.7c-17.3,30.7-48.9,49.8-81.9,59.5c-74.4,21.9-156.2-1.4-216.5-47.5c-7.8-5.9-12.1-15.6-6.5-24.9
	c4.6-7.7,17-12.5,24.9-6.5c61.4,47,154.6,73,223,28.2c28.4-18.6,42.5-55.1,32.4-87.8c-9.5-30.8-37-52-66.2-67
	c-35.4-18.2-70.8-27.6-109.1-45.2c-37.9-17.4-63.7-37-79.3-68.7c-19.6-39.7-6.7-88.6,22.9-119.8c60-63.3,164.5-52.9,231.1-6.3
	c19.1,13.3,0.9,44.9-18.4,31.4c-34.1-23.9-80.2-38.8-121.8-32c-45.3,7.4-93.4,42.9-86.7,94.3c4.2,32,38.6,53.2,64.6,66.7
	c14,7.3,27.6,11.5,42.4,17.5c49.6,20.2,115.5,45.1,145.3,95.9C646.8,772.5,646.1,816.5,626.9,850.7z"/>
<g>
	<g>
		<path class="st0" d="M1354.2,942.1v40h-39v-158h93V472.8c0-29.8-24-53.8-53.8-53.8h-39.2v-70.2c0-14.9-12.1-27-27-27
			s-27,12.1-27,27v70.2h-66.5c-14.9,0-26.5,12.1-26.5,27v324v54h93v158h-66.5c-14.9,0-27,12.1-27,27c0,14.9,12.1,27,27,27h213.5v-94
			 M1408.2,942.1c0-14.9-12.6-26.9-27.5-26.9s-26.5,12-26.5,26.9 M1354.2,770.1h-39V473c0,0,23.4,0,23.5,0c8.8,0,15.5,5.9,15.5,17
			V770.1z M1261.2,770.1h-39v-297h39V770.1z"/>
		<path class="st0" d="M1891.2,602.1h-203v-54h149v-86c0-14.9-12.1-27-27-27h-122v-54h149l0,0c30,0,54,24.3,54,54.2V602.1z"/>
		<path class="st0" d="M1849.2,750.8c-0.2,10.2-8.9,58.5-56.3,115.3c-43-60.6-50.1-115.4-50.1-115.4l-53.6-0.1
			c0,0,5.6,74.5,66.8,153.8c-32.3,29.3-58.9,56.7-117.4,85l22.4,46.8c62.8-30.4,93.5-60.2,129.7-92.9
			c36.4,35.5,65.7,66.7,132.5,93.1l22.5-46.8c-61.5-22.1-86.3-50.4-118.8-83.1c74.4-85.5,77.8-165,76.7-182.6c0-0.6,0,0.6,0,0
			c0-29.8-24.2-53.9-54-53.9h-161.5v54h135h0C1837.2,724.5,1849.2,736.3,1849.2,750.8"/>
		<path class="st0" d="M1648.2,437.4c0-1.7,0-3.4,0-5.2c0-29.8-23.9-54-53.7-54l-149.3-0.2v658h54v-175h182c0,0-18.2-28.1-25-54
			h-157v-77h149v-54h-149v-77h149V437.4z M1594.2,547.1h-95v-113h68c15,0,27,12.1,27,27V547.1z"/>
	</g>
	<g>
		<path class="st0" d="M2776.2,1001l35.8,32.8c52.6-50.5,74.4-84.7,83.4-104.7H2838C2817.1,967.1,2776.2,1001,2776.2,1001z"/>
		<path class="st0" d="M2991.5,929.1h-57.4c9,20,30.8,54.3,83.4,104.7l35.8-32.8C3053.3,1001,3012.4,967.1,2991.5,929.1z"/>
		<path class="st0" d="M2803.2,900.1h222v-53l-0.4-433c-0.8-29-24.6-52-54-52h-140.5c-14.9,0-27,12-27,27h-0.1V900.1z M2971.2,846.1
			h-114v-108h114V846.1z M2971.2,684.1h-114v-107h114V684.1z M2971.2,523.1h-114v-107l86.8-0.1c14.8,0,27.2,12.3,27.2,27.2V523.1z"
			/>
		<path class="st0" d="M3512.2,706.1c0-29.7-24.1-54-53.7-54h-0.3l-345-0.5c-15,0-27,12.3-27,27.1l0,354.4h54v-112h318v4.3
			c0,29.8-24,53.9-53.8,53.9c-0.1,0-0.1,0-0.2,0v52.7c2,0.1,3.8,0.2,5.8,0.2c56.6,0,102.3-45.9,102.3-102.5c0-1.3,0-2.5-0.1-3.8
			V706.1 M3327.2,759.1v-53h104v0c0,0,0.1,0,0.2,0c14.7,0,26.8,11.9,26.8,26.6c0,0.2,0,0.3,0,0.5v26v0H3327.2z M3431.3,759.1
			 M3140.2,706.1h133v53h-133V706.1z M3140.2,836.8v-23.7h133v54h-133V836.8z M3327.2,867.1v-54h131v26.2v27.8H3327.2z"/>
		<path class="st0" d="M3544.1,583.9c0-14.9-12-27.1-26.9-27.1v0.2h-87v-36h53.8c14.9,0,27-12.1,27-27s-12.1-27-27-27h-53.8v-35h72
			v-0.5c15,0,26.9-12.1,26.9-27c0-14.9-11.9-27-26.9-27v0.5h-72V348c0-14.9-12.1-27-27-27c-14.9,0-27,12.1-27,27v30.1h-155V348
			c0-14.9-12.1-27-27-27c-14.9,0-27,12.1-27,27v30.1H3093c-14.9,0-27,12.1-27,27c0,14.9,12.1,27,27,27h74.3v35h-53.4
			c-14.9,0-27,12.1-27,27s12.1,27,27,27h53.4v36H3081c-14.9,0-27,12.1-27,27c0,14.9,12.1,27,27,27h436.2l0,0c0,0,0,0-0.1,0
			c0,0,0,0,0,0c0,0,0,0,0,0C3532.1,611.1,3544.1,598.8,3544.1,583.9z M3376.2,557.1h-155v-36h155V557.1z M3376.2,467.1h-155v-35h155
			V467.1z"/>
		<path class="st0" d="M3517.2,556.8C3517.2,556.8,3517.2,556.8,3517.2,556.8L3517.2,556.8C3517.2,556.8,3517.2,556.8,3517.2,556.8z
			"/>
		<path class="st0" d="M3517.2,557.1C3517.1,557.1,3517.1,557.1,3517.2,557.1C3517.1,557.1,3517.1,557.1,3517.2,557.1z"/>
	</g>
	<g>
		<path class="st1" d="M3901.7,721l-41.5-35.6c0,0-18,20.2-50,47.6V543.1h82v-54h-82V347.4c0-14.9-12.1-27-27-27s-27,12.1-27,27
			v141.7h-46.8c1.7-21,2.7-44.5,2.7-69.3c0,0,0,0.1,0,0.1c0-0.5,0-0.9,0-1.4c0-14.9-12.1-27-27-27s-27,12.3-27,27.2
			c0,0.7,0,1.3,0.1,2.3c0,0-0.1,0-0.1,0c0,0,6.4,131.4-56,270.5l44.5,26.4c0,0,38.7-56.9,56.6-174.9h53v231.5
			c-40,27.8-90.2,56.5-148.1,77l23.8,44.5c0,0,54.3-16.9,124.3-58.7v197.8h54V801.5C3840.2,779.3,3872,752.7,3901.7,721z"/>
		<path class="st1" d="M4287.2,830.1v1l0,0c-0.6,82.8-68.2,149.7-151,150v54.1c112.9-0.4,205-92,205-205c0-0.1,0-0.1,0-0.2l0,0
			V490.4c0-1-0.1-2.1-0.1-3.1c0-44.7-36.4-81.2-81.1-81.2c-1.1,0-2.2-0.1-3.3-0.1h-247.8c2-18.8,3-38.4,2.7-58.7
			c0-14.9-12.1-27-27-27c-14.9,0-27,12.3-27,27.2c0,0.1,0,0.5,0,0.5c0,0,0,0,0,0c0,3,7.3,161.1-95.6,293.1l39.6,29.6
			c0,0,70.4-81,98.6-210.7h55.7c-9.2,70.9-47.1,253.4-198.8,373.7l32.6,41.5c0,0,184.9-101.3,222.3-415.2h33.1h32.2
			c-0.5,54.5-15.6,347.7-275.8,527.9l29.7,41.5c0,0,283.6-150.3,302-569.4h25.6c0.1,0,0.2,0,0.3,0h1.1l0,0c15,0.2,26.6,12.4,26.7,27
			l0,0l0.3,76.6V830.1z"/>
	</g>
	<path class="st1" d="M2613.2,575.1h-220v-144h216.5l0,0c3,0,12.8,0.8,12.2,8.2c0,0,0.2,11.4-20.8,40.1l42.6,35.4
		c0,0,30.7-40.8,37.7-70.8c0,0,7.2-28-2.5-44.4c-14-22.2-48.3-22.5-48.3-22.5h-20.9h-216.5v-28.7c0-14.9-12.1-27-27-27
		s-27,12.1-27,27v28.7h-211.5l0,0c0,0-0.6,0-0.9,0c-44.7,0-80.5,37-80.5,81.7c0,0.7,0,1.4,0,2.1v95.2h-0.3l0.3,133.6
		c0,211.7-81.1,304.8-81.1,304.8l42.6,36.6c98.8-112.5,92-302.1,92-302.1l0.2-99.9h459.9h24.9c33.6,0,21.7,27.1,21.7,27.1
		c-41.6,87.9-121.8,149.7-201.6,201.1c-83.5-52-154.5-104.1-209.1-201.1h-55.4c0,0,38.3,116.9,214.9,231.1
		c-133,67.2-261.4,96.4-261.4,96.4l19.8,50.5c140.1-36.2,224.7-73.1,291.6-114.2c80.4,46.7,180.8,87.4,315,114.2l14.8-50.5
		c0,0-137-21-279.1-96.2c212-134.6,210.8-258.3,210.8-258.3h-0.2c0-29-23.8-54-53.3-54 M2339.2,431.1v144h-239l-0.3-117.2
		c0-14.9,11.7-26.8,26.7-26.8l0,0"/>
</g>
</svg>
