<?xml version="1.0" encoding="UTF-8"?>
<svg width="108px" height="24px" viewBox="0 0 108 24" version="1.1" xmlns="http://www.w3.org/2000/svg" xmlns:xlink="http://www.w3.org/1999/xlink">
    <!-- Generator: Sketch 46.1 (44463) - http://www.bohemiancoding.com/sketch -->
    <title>Group 3</title>
    <desc>Created with Sketch.</desc>
    <defs></defs>
    <g id="Page-1" stroke="none" stroke-width="1" fill="none" fill-rule="evenodd">
        <g id="Heiti-TC-Copy-2" transform="translate(-102.000000, -53.000000)" fill-rule="nonzero" fill="#D0021B">
            <g id="Group-3" transform="translate(102.000000, 52.000000)">
                <path d="M85.6195537,12.1685309 L85.6195537,11.0341422 L83.4388948,11.0341422 L83.4388948,8.53848706 L85.6195537,8.53848706 L85.6195537,4.22781003 L88.0297556,4.22781003 L88.0297556,8.65192593 L89.5217853,8.65192593 L89.5217853,11.0341422 L88.0297556,11.0341422 L88.0297556,12.2819697 C88.0297556,12.2819697 88.1445271,14.8616923 87.5706695,16.9035919 C88.1445271,16.5632753 88.7183847,16.1095198 89.2922423,15.5423255 C88.4888417,17.2439085 87.2263549,19.9664414 84.7013815,20.8739523 C84.4718385,20.9873912 84.1275239,21.1008301 83.7832094,21.1008301 L83.7832094,18.4917361 C85.8490967,17.2439085 85.6195537,12.1685309 85.6195537,12.1685309 Z M104.901169,3.66061569 L104.442083,2.63966587 C104.327311,2.41278813 104.097768,2.07247152 103.638682,1.95903265 C103.179596,1.84559378 102.031881,2.00648499 101.917109,2.8665436 C101.892776,3.06916809 101.917109,3.32029908 102.031881,3.66061569 L104.901169,3.66061569 Z M98.2444208,6.49658742 C98.5887354,9.89975349 99.392136,15.4582581 101.22848,19.3151796 C100.42508,20.5630072 99.2773645,21.4705181 98.0148778,22.3780291 L99.0478215,24.5333676 C99.0478215,24.5333676 100.769394,23.9661733 102.605739,21.6973959 C102.950053,22.2645902 103.409139,22.7788086 103.868225,23.1721012 C105.239319,24.2418823 106.687073,24.5333676 108,24.5333676 L108,22.0377125 C106.967056,22.0377125 105.692017,21.3447876 105.01594,20.6764461 C104.671626,20.3361294 104.346924,19.7810669 104.097768,19.3151796 C105.245484,17.1598411 106.393199,13.4163584 106.967056,9.1056814 L104.671626,9.1056814 C104.671626,9.1056814 104.097768,13.0724199 102.605739,16.4755859 C101.802338,14.3202474 101.113709,10.6938256 100.654623,6.49658742 L107.311371,6.49658742 C107.311371,6.49658742 107.540914,4.22781003 105.589798,4.11437116 C104.930058,4.11437116 104.239349,4.11437116 103.535156,4.11437116 C102.524282,4.11437116 101.485626,4.11437116 100.470917,4.11437116 C100.428192,3.55264282 100.379181,2.8665436 100.310308,2.29934926 C100.195537,1.50527717 99.7364506,1.0515217 99.0478215,1.0515217 C98.3591923,1.0515217 97.9001063,1.50527717 97.9001063,2.18591039 C97.9001063,2.18591039 97.9001063,2.97998247 98.0148778,4.11437116 L92.3910733,4.11437116 L90.325186,4.11437116 L90.325186,13.1894807 C90.325186,20.2226906 86.4229543,22.1511514 86.4229543,22.1511514 L86.4229543,24.6468065 C93.194474,22.8317846 92.6206164,13.1894807 92.6206164,13.1894807 L92.6206164,12.2819697 L95.4821167,12.2819697 C95.7523804,12.2819697 95.9489904,12.4805298 95.9489904,12.7924447 L95.9489904,13.6432362 C95.9489904,13.6432362 95.9489904,16.8129889 95.9489904,18.1742554 C95.9489904,19.5355218 95.1455898,20.7833494 93.8831031,20.5564716 C93.8831031,20.5564716 93.3092455,20.4430328 92.6206164,20.1027161 C92.6206164,20.1027161 92.1615303,21.123666 91.5876727,22.1446158 C92.5058448,22.825249 93.8831031,23.0521267 93.7683316,23.0521267 C96.4080765,23.5058822 98.1296493,21.4639826 98.1296493,18.7414497 L98.1296493,13.756675 L98.1296493,11.6013365 C98.1296493,10.5803867 97.4037476,9.89975349 96.4080765,9.89975349 L92.6206164,9.89975349 L92.6206164,6.49658742 L98.2444208,6.49658742 Z M73.6833156,17.1598411 L73.6833156,22.2645902 L64.1572795,22.2645902 L64.1572795,16.4792079 C64.1572795,16.0254524 64.501594,15.6851358 64.8459086,15.6851358 L72.1912859,15.6851358 C73.109458,15.6851358 73.6833156,16.365769 73.6833156,17.1598411 Z M71.3878852,19.882374 L71.3878852,18.974863 C71.3878852,18.4076687 71.3878852,17.9539132 70.5844846,17.9539132 L66.5674814,17.9539132 L66.5674814,19.882374 L71.3878852,19.882374 Z M78.5037194,9.1056814 L58.6482465,9.1056814 C58.1891605,9.1056814 57.7300744,9.33255914 57.7300744,9.89975349 L57.7300744,23.0586623 C57.7300744,23.0586623 57.7300744,24.6468065 60.1402763,24.6468065 L60.1402763,11.4878977 L64.5366211,11.4878977 C64.4218496,12.055092 63.9277365,12.8491641 62.4357067,13.4163584 C61.6323061,13.756675 61.9766206,14.664186 61.9766206,14.664186 C62.0913921,15.1179415 62.4357067,15.3448192 63.0095643,15.3448192 C63.380127,15.3448192 63.8533936,15.2128906 64.1572795,15.1179415 C64.501594,15.0045026 66.6019897,14.2534485 66.911796,11.4878977 L70.5844846,11.4878977 L70.5844846,13.5297973 C70.5844846,14.5066528 71.0117188,15.1179415 72.0765143,15.1179415 L74.752833,15.1179415 C75.2119191,15.1179415 75.6710052,14.664186 75.6710052,13.9835528 C75.6710052,13.3029196 75.0971476,12.962603 74.6380615,12.962603 L73.3750305,12.962603 C73.0560608,12.962603 72.9213308,12.8372803 72.9213308,12.4805298 L72.9213308,11.4878977 L76.7821467,11.4878977 C77.1264612,11.4878977 77.3560043,11.7147754 77.3560043,12.055092 L77.3560043,21.0167627 C77.3560043,21.8108347 76.8969182,22.3780291 76.2082891,22.3780291 L76.2082891,24.8736842 C78.9628055,24.8736842 79.7662062,23.6258567 79.7662062,21.9242736 L79.7662062,10.5803867 C79.7662062,9.65393066 79.1923486,9.1056814 78.5037194,9.1056814 Z M56.8119022,5.92939307 L80.9139214,5.92939307 L80.9139214,3.54717682 L58.303932,3.54717682 C58.303932,3.54717682 56.5823592,3.77405456 56.8119022,5.92939307 Z M65.5345377,8.65192593 L64.9606801,7.22324582 C64.6744995,6.54351771 64.1572795,6.31573486 63.5834219,6.31573486 C63.0095643,6.31573486 62.3209352,6.5426126 62.4357067,7.45012355 C62.4810486,7.8171078 62.8947928,8.65192593 62.8947928,8.65192593 L65.5345377,8.65192593 Z M75.4048884,7.40409837 C75.5701599,6.61002628 74.7162593,6.26970968 74.2571732,6.26970968 C73.6833156,6.26970968 73.1739502,6.49658742 72.879915,7.17722063 L72.3060574,8.64172363 L75.0605739,8.64172363 C75.0605739,8.64172363 75.3714905,7.55682373 75.4048884,7.40409837 Z M69.8958555,1.95903265 C69.6659851,1.44464111 69.3972168,1.18173218 69.0924548,1.0515217 C68.7000427,0.904022217 67.6004251,0.938082829 67.370882,1.84559378 C67.3241272,2.04766846 67.2561105,2.526227 67.4856536,2.97998247 L70.3549416,2.97998247 L69.8958555,1.95903265 Z M5.50903294,17.5001577 L5.50903294,22.1511514 L6.88629118,22.1511514 L6.88629118,21.4705181 C6.88629118,21.0167627 7.11583422,20.4495683 7.91923486,20.4495683 C8.60786397,20.4495683 8.95217853,21.0167627 8.95217853,21.4705181 L8.95217853,24.3064899 L1.03294368,24.3064899 C0.573857598,24.3064899 0,23.9661733 0,23.28554 C0,22.6049068 0.573857598,22.2645902 1.03294368,22.2645902 L3.32837407,22.2645902 L3.32837407,17.6135966 L0,17.6135966 L0,15.7985747 L0,5.47563759 C0,5.02188212 0.344314559,4.56812664 0.803400638,4.56812664 L3.44314559,4.56812664 L3.44314559,2.526227 C3.44314559,2.07247152 3.67268863,1.50527717 4.47608927,1.50527717 C5.2794899,1.50527717 5.50903294,2.07247152 5.50903294,2.526227 L5.50903294,4.56812664 L7.11583422,4.56812664 C8.03400638,4.56812664 8.83740701,5.36219872 8.83740701,6.26970968 L8.83740701,17.5001577 L5.50903294,17.5001577 Z M5.50903294,15.3448192 L6.88629118,15.3448192 L6.88629118,7.17722063 C6.88629118,6.83690402 6.65674814,6.61002628 6.4272051,6.61002628 L5.62380446,6.61002628 L5.62380446,15.3448192 L5.50903294,15.3448192 Z M3.44314559,6.61002628 L2.06588735,6.61002628 L2.06588735,15.3448192 L3.44314559,15.3448192 L3.44314559,6.61002628 Z M24.9054198,4.90844325 C24.9054198,4.00093229 24.1020191,3.20686021 23.183847,3.20686021 L18.3634431,3.20686021 L18.3634431,5.47563759 L21.9213603,5.47563759 C22.3804463,5.47563759 22.8395324,5.8159542 22.8395324,6.38314855 L22.8395324,8.42504819 L18.3634431,8.42504819 L18.3634431,10.6938256 L24.9054198,10.6938256 L24.9054198,4.90844325 Z M25.8235919,13.9835528 C25.8235919,13.0760418 25.0201913,12.2819697 24.1020191,12.2819697 L18.3634431,12.2819697 L18.3634431,14.4373083 L22.6099894,14.4373083 C23.0690755,14.4373083 23.5676858,14.6644919 23.41339,15.3448192 C23.2590942,16.0251465 23.0758972,16.6368713 21.7488708,18.2573853 C20.7634583,16.6368713 20.5148315,15.4582581 20.5148315,15.4582581 L18.3634431,15.4582581 C18.3634431,15.4582581 18.7077577,17.5001577 20.4293305,19.7689351 C19.3963868,20.6764461 18.3634431,21.4705181 16.4123273,22.3780291 L17.445271,24.3064899 C19.5111583,23.28554 20.6011557,22.491468 21.7488708,21.4705181 C22.896586,22.6049068 23.7577046,23.5124178 25.9383634,24.3064899 L26.8565356,22.6049068 C25.0905762,21.8713379 24.1501465,21.0167627 23.0758972,19.9701843 C25.6015625,17.3577881 25.8235919,14.592804 25.8235919,13.9835528 Z M18.3634431,18.974863 L12.3953241,18.974863 L12.3953241,24.3064899 L10.3294368,24.3064899 L10.3294368,3.09342134 L15.6089267,3.09342134 C16.5270988,3.09342134 17.3304995,3.88749343 17.3304995,4.79500438 L17.3304995,4.90844325 L17.3304995,10.4669478 L12.3953241,10.4669478 L12.3953241,12.5088475 L17.3304995,12.5088475 L17.3304995,14.664186 L12.3953241,14.664186 L12.3953241,16.7060856 L17.5600425,16.7060856 C17.7895855,17.6135966 18.4782147,18.974863 18.3634431,18.974863 Z M12.3953241,8.53848706 L15.2646121,8.53848706 L15.2646121,6.15627081 C15.2646121,5.70251533 14.9202976,5.24875985 14.34644,5.24875985 L12.2805526,5.24875985 L12.2805526,8.53848706 L12.3953241,8.53848706 Z M45.4495218,19.7689351 C50.0403826,21.6973959 54.5164718,22.3780291 54.5164718,22.3780291 L53.8278427,24.5333676 C50.0403826,23.8527344 45.9086079,22.8317846 42.8097768,21.2436404 C39.9404888,22.7183457 37.989373,23.28554 33.5132837,24.5333676 L32.250797,22.3780291 C32.250797,22.3780291 36.3825717,21.6973959 40.858661,19.7689351 C35.5791711,16.2523302 33.8575983,12.1685309 33.8575983,12.1685309 L36.6121148,12.1685309 C38.6780021,15.1179415 40.2848034,16.4792079 43.0393199,18.4076687 C45.2199787,16.9329634 47.9744952,15.1179415 49.696068,12.1685309 C49.696068,12.1685309 50.0403826,11.2610199 49.0074389,11.2610199 L32.5951116,11.2610199 L32.5951116,14.5507471 C32.5951116,14.5507471 32.8246546,20.7898849 29.6110521,24.4199287 L27.7747078,23.1721012 C27.7747078,23.1721012 30.4144527,20.1092517 30.4144527,13.1894807 L30.4144527,5.92939307 C30.4144527,4.45468777 31.5621679,3.20686021 33.0541977,3.20686021 L40.629118,3.20686021 L40.629118,2.18591039 C40.629118,1.73215491 40.9734325,1.0515217 41.7768332,1.0515217 C42.5802338,1.0515217 42.9245484,1.61871604 42.9245484,2.18591039 L42.9245484,3.32029908 L51.5324123,3.32029908 C51.5324123,3.32029908 52.7269897,3.32029908 53.1392136,4.00093229 C53.4835282,4.56812664 53.2539851,5.47563759 53.2539851,5.47563759 C53.0244421,6.49658742 51.9914984,8.19817045 51.9914984,8.19817045 L50.0403826,7.06378176 C50.7290117,6.15627081 50.730957,5.77575684 50.730957,5.77575684 C50.7807922,5.47563759 50.3846971,5.47563759 50.3846971,5.47563759 L42.9245484,5.47563759 L42.9245484,9.1056814 L50.9585547,9.1056814 C51.8767269,9.1056814 52.7269897,9.81808472 52.7269897,10.9372559 C52.7269897,11.1775818 52.6801275,11.3744588 52.6801275,11.3744588 C52.7269897,11.2156677 51.9914984,15.4582581 45.4495218,19.7689351 Z M40.629118,5.47563759 L33.614624,5.47563759 C33.0482483,5.47563759 32.5951116,5.87262499 32.5951116,6.43981934 L32.5951116,9.1056814 L40.629118,9.1056814 L40.629118,5.47563759 Z" id="Shape"></path>
            </g>
        </g>
    </g>
</svg>