<?xml version="1.0" encoding="UTF-8"?>
<svg width="1268px" height="288px" viewBox="0 0 1268 288" version="1.1" xmlns="http://www.w3.org/2000/svg" xmlns:xlink="http://www.w3.org/1999/xlink">
    <!-- Generator: Sketch 46.2 (44496) - http://www.bohemiancoding.com/sketch -->
    <title>Page 1</title>
    <desc>Created with Sketch.</desc>
    <defs>
        <path d="M176.390214,11.3841974 C176.390214,5.82398011 179.110427,0.381171875 187.352621,0.381171875 C195.596039,0.381171875 197.948854,6.39349574 198.799456,10.1371335 C199.816835,20.7328963 200.975301,38.5191506 201.091922,38.3797273 L240.650621,38.3797273 L261.122155,38.3797273 C281.453417,38.3797273 281.443631,60.5003338 281.729476,60.5003338 L204.052311,60.5003338 C206.425107,100.062713 224.158893,165.491375 234.302913,187.124 C256.604505,146.874696 259.965728,98.155223 259.896,98.1042642 L281.729476,98.1042642 C274.859825,149.684768 259.708019,186.356357 245.969534,212.14722 C262.032291,237.272358 279.361981,256.774089 293.929864,260.031376 L293.929864,286.779858 C271.87334,281.988507 249.194155,260.031376 234.302913,233.327739 C212.322641,260.475737 185.564971,285.422315 185.564971,285.422315 L170.36668,267.647476 C185.478117,256.788766 211.640854,227.077743 221.258447,212.14722 C199.360136,167.001386 185.57068,101.222128 181.449379,60.5003338 L105.046893,60.5003338 L105.046893,107.605432 L155.342505,107.605432 C167.259495,107.605432 175.94901,115.749872 175.94901,127.966125 L175.94901,153.756989 L175.94901,202.775284 C175.94901,235.350599 155.342913,259.78229 123.749942,254.356604 C122.564155,254.343966 108.446039,253.960756 98.357068,246.484895 C102.884097,237.168402 106.215553,226.381849 106.215553,226.381849 C117.447087,232.705634 130.750893,233.327739 130.622854,233.327739 C149.782602,235.370575 154.289243,211.150466 154.289243,195.987979 L154.289243,145.789477 L154.289243,135.608723 C154.289243,131.8765 151.935612,129.500597 148.700796,129.500597 L105.046893,129.500597 L105.046893,140.359307 C105.046893,140.359307 110.008194,266.41998 35.8239612,286.779858 L35.8239612,264.984165 C35.8239612,264.984165 82.5320388,247.188534 82.5320388,146.969683 L82.5320388,38.3797273 L107.260252,38.3797273 L178.157476,38.3797273 C178.126078,38.2036136 176.700117,22.315473 176.390214,11.3841974 Z M221.276796,20.7532798 C221.276796,14.1551335 226.627922,8.80608949 233.228447,8.80608949 C237.642524,8.80608949 241.497146,11.1974844 243.566971,14.7556321 L243.570233,14.7535937 L253.779087,31.7298068 L226.178155,31.7298068 L223.632466,27.877321 C223.36701,27.5206094 223.121942,27.1492216 222.896447,26.7635653 L222.888291,26.7492969 C221.863573,24.9865298 221.276796,22.9388011 221.276796,20.7532798 Z M26.208,39.7364545 L48.6975728,39.7364545 L48.6975728,91.3173665 L66.5569515,91.3173665 L66.5569515,114.027464 L48.6975728,114.027464 L48.6975728,142.450656 C48.6975728,142.450656 49.2019806,190.271624 43.7065049,202.775284 C50.5745243,198.703472 57.4441748,193.273709 64.3134175,186.486811 C64.1629515,186.834554 51.7366602,228.56044 15.7218641,243.770217 C12.9739223,245.127352 8.85302913,246.484895 4.73132039,246.484895 L4.73132039,221.778842 C21.3996117,217.007467 26.208,172.628054 26.208,142.912139 L26.208,114.027464 L0.106427184,114.027464 L0.106427184,91.3173665 L26.208,91.3173665 L26.208,39.7364545 Z" id="path-1"></path>
        <path d="M37.8373977,11.0449701 C37.8373977,5.10487624 42.6872583,0.289661451 48.6691202,0.289661451 C54.6522059,0.289661451 59.5016586,5.10487624 59.5016586,11.0449701 L59.5016586,39.0208962 L75.2309693,39.0208962 C87.195509,39.0208962 96.8116049,48.56101 96.8116049,60.4399772 L96.8116049,200.345644 L59.5016586,200.345644 L59.5016586,263.282324 L75.147344,263.282324 L75.147344,247.349724 L96.8116049,247.349724 L96.8116049,284.792535 L11.1698951,284.792535 C5.18803325,284.792535 0.338172634,279.978134 0.338172634,274.037633 C0.338172634,268.097539 5.18803325,263.282324 11.1698951,263.282324 L37.8373977,263.282324 L37.8373977,200.345644 L0.527451407,200.345644 L0.527451407,178.828111 L0.527451407,49.7701024 C0.527451407,43.8308222 5.18803325,39.0208962 11.1698951,39.0208962 L37.8373977,39.0208962 L37.8373977,11.0449701 Z M59.5016586,60.5079175 L59.5016586,178.835841 L75.147344,178.835841 L75.147344,67.2706174 C75.147344,62.8410754 72.4550166,60.4989673 68.9239885,60.4989673 C68.8844194,60.4989673 59.5016586,60.5054765 59.5016586,60.5079175 Z M22.1917123,178.836248 L37.8373977,178.836248 L37.8373977,60.5306999 L22.1917123,60.5306999 L22.1917123,178.836248 Z M118.630879,284.792535 L118.630879,22.4906657 L178.600023,22.5529104 C190.583327,22.5529104 200.194936,32.1906629 200.194936,44.079394 L200.194936,46.1521821 L200.194936,110.589243 L140.327774,110.589243 L140.327774,141.284 L200.194936,141.284 L200.194936,162.810484 L140.327774,162.810484 L140.327774,193.505647 L203.40982,193.505647 C206.126215,203.829718 213.454648,215.031724 213.454648,215.031724 L140.327774,215.031724 L140.327774,284.792535 L118.630879,284.792535 Z M140.327774,44.8141252 L140.327774,89.8597354 L178.498041,89.8597354 L178.498041,55.5771636 C178.498041,49.6472404 173.677143,44.8141252 167.649593,44.8141252 L140.327774,44.8141252 Z M215.927918,24.1354708 L215.927918,45.8340427 L264.987018,45.8340427 C270.983565,45.8340427 275.84444,50.6923812 275.84444,56.6833286 L275.84444,91.2409161 L215.927918,91.2409161 L215.927918,112.939488 L297.559284,112.939488 L297.559284,45.8966942 C297.559284,33.9131721 287.908106,24.1354708 275.84444,24.1354708 L215.927918,24.1354708 Z M216.661781,139.252302 L280.825653,139.252302 C292.677197,139.252302 302.285542,148.855474 302.285542,160.770649 C302.69551,167.78965 301.38402,199.563314 271.79779,233.729127 C284.702197,246.809457 294.538166,258.100964 318.997552,266.93035 L310.05821,285.615548 C283.503295,275.053482 271.858572,262.60577 257.406893,248.416427 C243.03272,261.473568 230.838109,273.40705 205.862285,285.541912 L196.963327,266.856714 C220.234418,255.538762 230.773248,244.602009 243.624624,232.885772 C219.271299,201.225206 217.060327,171.443371 217.060327,171.443371 L238.377441,171.471849 C238.377441,171.471849 241.196634,193.382378 258.28557,217.589451 C277.105347,194.881132 280.57437,175.582845 280.652284,171.527991 C280.652284,165.718896 275.869731,160.986267 270.311707,160.82557 L216.661781,160.82557 L216.661781,139.252302 Z M75.147344,247.349724 C75.147344,241.40963 79.8022148,236.6233 85.7844847,236.6233 C91.7667545,236.6233 96.8116049,241.40963 96.8116049,247.349724 L75.147344,247.349724 Z" id="path-3"></path>
        <path d="M149.589685,11.061588 C149.589685,5.11287554 154.41937,0.290300429 160.377844,0.290300429 C166.33591,0.290300429 171.165595,5.11287554 171.165595,11.061588 L171.165595,26.5698283 L257.650771,26.5698283 L266.007566,26.5698283 C266.007566,26.5698283 279.707242,26.699485 285.293669,35.5406009 C289.174877,42.068691 286.306193,53.2362876 286.306193,53.2362876 C283.542352,65.2197425 271.257028,81.4806438 271.257028,81.4806438 L254.239518,67.3704936 C262.596313,55.9574464 262.533897,51.390515 262.533897,51.390515 C262.754188,48.4137124 258.849319,48.111588 257.650771,48.111588 L171.165595,48.111588 L171.165595,101.490579 L259.004339,101.490579 C270.785441,101.490579 280.274697,111.463948 280.380355,123.033155 C280.380355,123.033155 280.861325,172.364249 196.140111,226.077167 C252.923073,256.070258 307.657732,264.466545 307.657732,264.466545 L301.72863,284.596352 C248.115417,273.913133 208.008106,257.661609 175.883094,239.030601 C149.149918,255.419936 115.355587,270.128219 59.3848477,284.588197 L51.482506,264.444528 C51.482506,264.444528 102.791226,252.825172 155.942236,226.004592 C85.3486358,180.438433 70.0591894,133.804442 70.0591894,133.804442 L92.2062252,133.804442 C114.029351,172.499614 142.389828,193.313584 175.768053,214.041931 C207.640138,193.560665 239.701102,168.903069 256.318824,133.828498 C256.318824,133.828498 261.064472,123.033155 247.654437,123.033155 L237.687068,123.033155 L53.9301881,123.033155 L53.8547179,162.903798 C53.8547179,162.903798 56.5626702,238.536438 17.0884927,283.410687 L0.0848529801,268.797403 C0.0848529801,268.797403 32.5060344,231.66382 32.5060344,147.218605 L32.5207205,93.9113734 L32.5207205,59.1690987 C32.5207205,41.3225536 46.8151841,26.5698283 65.0675497,26.5698283 L149.589685,26.5698283 L149.589685,11.061588 Z M53.9889325,58.8221245 L54.0966305,101.490579 L149.589685,101.490579 L149.589685,48.111588 L64.6677616,48.111588 C58.6746119,48.111588 53.9889325,52.8958369 53.9889325,58.8221245 Z" id="path-5"></path>
        <path d="M125.008419,12.1142496 C125.008419,14.2962638 125.593725,16.3410879 126.615772,18.1017617 L126.633681,18.1306652 C126.739915,18.3118213 126.850627,18.4905348 126.966223,18.6655844 L130.499224,24.355105 L158.050123,24.355105 L147.261444,6.12307376 L147.25778,6.12470213 C145.1913,2.5724156 141.343666,0.183598582 136.937997,0.183598582 C130.349438,0.183598582 125.008419,5.52505532 125.008419,12.1142496 Z M17.879511,31.1401106 C17.879511,31.1401106 -0.0427379209,31.1401106 0.0533206442,52.9993333 L277.740723,52.9993333 L277.740723,31.1401106 L17.879511,31.1401106 Z M188.371253,65.3207929 L177.46942,85.2422567 L204.594568,85.2422567 L210.042228,75.3979532 L209.976697,75.3621291 C210.882741,73.6800241 211.396817,71.7552922 211.396817,69.7096539 C211.396817,63.1208667 206.056612,57.779817 199.468053,57.779817 C194.429048,57.779817 190.119438,60.9034355 188.371253,65.3207929 Z M68.2394348,69.7096539 C68.2394348,71.9584312 68.8613734,74.0610624 69.9416252,75.8559319 L75.1365212,85.2422567 L102.261669,85.2422567 L90.8547145,64.3987291 C88.9005739,60.4755816 84.8498331,57.779817 80.1694202,57.779817 C73.5808609,57.779817 68.2394348,63.1208667 68.2394348,69.7096539 Z M19.1779297,90.8409957 L256.409209,90.8409957 C264.637277,90.8409957 271.493253,97.3911092 271.493253,108.461574 L271.493253,250.724421 C271.493253,271.056234 268.602949,285.965986 235.6919,285.965986 L235.6919,263.199762 C244.271233,263.313748 249.405482,259.150823 249.405482,247.740843 L249.405482,119.535704 C249.405482,115.469667 246.662521,112.758433 242.549098,112.758433 L188.3566,112.758433 L188.3566,131.567721 C188.3566,135.830383 189.891502,137.113538 193.702097,137.113538 L211.085034,137.113538 L211.177836,137.113538 C216.924255,137.371634 221.652697,142.143162 221.652697,147.953182 C221.652697,153.928481 216.809066,158.715478 210.833898,158.715478 L207.68798,158.715478 L184.412094,158.715478 C171.690846,158.715478 166.586717,151.41143 166.586717,139.738875 L166.586717,112.758433 L111.429564,112.758433 C108.490823,151.666677 78.8250073,160.801826 76.2371245,161.519122 C74.8817218,162.130574 73.3765329,162.470904 71.7923807,162.470904 C65.8176193,162.470904 60.9735813,157.626913 60.9735813,151.651614 C60.9735813,147.086075 63.8003895,143.181247 67.7990307,141.592366 C67.8067643,141.578118 67.8140908,141.565091 67.8210102,141.550843 C88.886328,133.991955 88.4906969,112.758433 89.0536164,112.758433 L30.2849048,113.40693 C30.2116398,113.40693 30.2849048,226.974662 30.2849048,286.615298 C8.20771596,286.784241 8.20771596,266.990197 8.20771596,266.990197 L8.20771596,100.328687 C8.20771596,93.5514156 13.6928228,90.8409957 19.1779297,90.8409957 Z M92.4038624,172.061996 L180.16598,172.061996 C191.135786,172.061996 197.992984,180.194477 197.992984,189.682982 L197.992984,250.67842 L84.1766091,250.67842 L84.1766091,181.549687 C84.1766091,176.128033 88.2900322,172.061996 92.4038624,172.061996 Z M106.070228,193.934245 L106.070228,228.903058 L176.295145,228.903058 L176.295145,206.13317 C176.295145,199.355899 176.295145,193.934245 166.696208,193.934245 L106.070228,193.934245 Z" id="path-7"></path>
    </defs>
    <g id="Page-1" stroke="none" stroke-width="1" fill="none" fill-rule="evenodd">
        <g id="cover-copy-4" transform="translate(-590.000000, -531.000000)">
            <g id="Page-1" transform="translate(590.000000, 531.000000)">
                <g id="Group-3" transform="translate(974.000000, 0.000000)">
                    <mask id="mask-2" fill="white">
                        <use xlink:href="#path-1"></use>
                    </mask>
                    <g id="Clip-2"></g>
                    <polygon id="Fill-1" fill="#D0011B" mask="url(#mask-2)" points="-39.9701359 326.847341 334.008466 326.847341 334.008466 -39.6875341 -39.9701359 -39.6875341"></polygon>
                </g>
                <g id="Group-6" transform="translate(0.000000, 1.000000)">
                    <mask id="mask-4" fill="white">
                        <use xlink:href="#path-3"></use>
                    </mask>
                    <g id="Clip-5"></g>
                    <polygon id="Fill-4" fill="#D0011B" mask="url(#mask-4)" points="-39.7546611 325.599405 359.090794 325.599405 359.090794 -39.6954168 -39.7546611 -39.6954168"></polygon>
                </g>
                <g id="Group-9" transform="translate(327.000000, 1.000000)">
                    <mask id="mask-6" fill="white">
                        <use xlink:href="#path-5"></use>
                    </mask>
                    <g id="Clip-8"></g>
                    <polygon id="Fill-7" fill="#D0011B" mask="url(#mask-6)" points="-40.0098119 324.669635 347.753213 324.669635 347.753213 -39.7829828 -40.0098119 -39.7829828"></polygon>
                </g>
                <g id="Group-12" transform="translate(659.000000, 1.000000)">
                    <mask id="mask-8" fill="white">
                        <use xlink:href="#path-7"></use>
                    </mask>
                    <g id="Clip-11"></g>
                    <polygon id="Fill-10" fill="#D0011B" mask="url(#mask-8)" points="-38.7307321 327.847631 318.966943 327.847631 318.966943 -38.6061816 -38.7307321 -38.6061816"></polygon>
                </g>
            </g>
        </g>
    </g>
</svg>