<?xml version="1.0" encoding="UTF-8"?>
<svg width="108px" height="24px" viewBox="0 0 1222 244" version="1.1" xmlns="http://www.w3.org/2000/svg" xmlns:xlink="http://www.w3.org/1999/xlink">
    <!-- Generator: Sketch 46.2 (44496) - http://www.bohemiancoding.com/sketch -->
    <title>Group</title>
    <desc>Created with Sketch.</desc>
    <defs>
        <polygon id="path-1" points="0 -2.71050543e-20 0 27.5 64.27 27.5 64.27 -2.71050543e-20 0.000270086574 -2.71050543e-20 64.2700871 -0.0002 64.2700871 27.4998 0.000270086574 27.4998 0.000270086574 -2.71050543e-20"></polygon>
    </defs>
    <g id="Page-1" stroke="none" stroke-width="1" fill="none" fill-rule="evenodd">
        <g id="shopee-copy-12" transform="translate(-14.000000, -17.000000)">
            <g id="Group" transform="translate(14.000000, 16.000000)">
                <g id="Group-2">
                    <g id="Group-33" transform="translate(138.713113, 2.690865)"></g>
                    <g id="Group-57" transform="translate(992.000000, 9.000000)" fill="#D0011B">
                        <path d="M95.4688215,162.629208 C85.3456979,171.224724 72.116082,176.429369 57.6400816,176.429369 C25.8054222,176.429369 0,151.262506 0,120.214685 C0,89.1692551 25.8054222,64 57.6400816,64 C72.1173179,64 85.3479569,69.2060284 95.4714143,77.8031722 C95.5983176,71.5248351 100.367632,67.0134228 106.231046,67.0134228 C112.174185,67.0134228 116.99327,71.648354 116.99327,78.0602481 L116.99327,165.432768 C116.99327,171.844662 112.174185,176.429369 106.231046,176.429369 C100.287906,176.429369 95.4688215,171.844662 95.4688215,165.432768 L95.4688215,162.629208 Z M95.1261045,120.176419 C95.1261045,100.247171 78.3250766,84.0870937 57.6042075,84.0870937 C36.8833384,84.0870937 20.0870937,100.247171 20.0870937,120.176419 C20.0870937,140.108058 36.8833384,156.268136 57.6042075,156.268136 C78.3250766,156.268136 95.1261045,140.108058 95.1261045,120.176419 Z" id="Combined-Shape"></path>
                        <path d="M135.014282,132.021081 L135.014282,10.7622243 C135.014282,4.81669326 139.768794,0 145.63301,0 C151.499618,0 156.251738,4.81669326 156.251738,10.7622243 L156.251738,133.343959 C156.251738,133.587942 156.243729,133.830031 156.227963,134.06997 C156.129803,147.739753 158.278462,152.360343 167.5,155 C173.144189,156.616725 176.126521,162.751193 174.533711,168.471913 C173.213545,173.214467 170.253047,176.122659 165.618116,176.122659 L164.618116,176.122659 C163.666257,176.122659 162.690482,175.991121 161.729056,175.716086 C146.537487,171.368805 134.489624,160.275599 135.014282,132.021081 Z" id="Combined-Shape"></path>
                        <path d="M187.043188,132.834625 L187.043188,10.7622243 C187.043188,4.81669326 191.7977,0 197.661916,0 C203.528524,0 208.280644,4.81669326 208.280644,10.7622243 L208.280644,132.839479 C208.283024,132.971596 208.283037,133.10426 208.280644,133.237427 L208.280644,134.44888 C208.280644,134.904096 208.252765,135.352717 208.19864,135.793084 C207.86075,148.079187 209.011615,151.663346 221.110094,154.178603 C226.85473,155.372015 230.17667,161.178832 229,167 C227.969218,172.091728 223.922622,175.485416 218.986348,175.485416 C218.278433,175.485416 217.560951,175.413668 216.841078,175.262997 C200.832541,171.935741 185.996782,163.424457 187.043188,132.834625 Z" id="Combined-Shape"></path>
                    </g>
                    <g id="LOGO" fill="#D0011B">
                        <g id="SHOPEE" transform="translate(0.000000, 0.366139)">
                            <path d="M543.709668,134.647838 C544.238382,137.7645 545.188913,141.625956 546.838166,146.256584 C554.15709,164.635846 576.697469,164.586762 580.086445,164.635846 C589.825718,164.776084 598.951231,162.797823 607.924465,157.846297 C612.953201,155.071388 618.946199,155.555031 622.121701,160.095438 C625.297202,164.635846 624.313842,171.356337 618.105515,175.145723 C605.83777,182.633606 592.698279,184.912335 579.163554,184.633861 C558.073228,184.201125 538.058095,175.793825 529.117653,155.726692 C525.049645,146.59557 522.687228,135.94716 523.417705,125.863684 C523.739703,114.280886 528.102617,104.386671 529.233645,101.793955 C534.388721,89.9798602 543.435069,80.6059156 555.478039,75.6775327 C570.172681,69.6653062 588.848361,70.5888771 602.857139,78.0625895 C619.166588,86.7613857 628.247229,106.593118 627.348545,124.6308 C627.080251,130.051019 622.914634,134.647838 617.262306,134.647838 L543.709668,134.647838 Z M546,116.133861 C586.386675,116.133861 606.580012,116.133861 606.580012,116.133861 C601.803237,90.6275861 574.111306,91.8646438 574.111306,91.8646438 C560.115663,92.4065928 550.745228,100.496332 546,116.133861 Z" id="Combined-Shape"></path>
                            <path d="M664.423736,134.911015 C664.95245,138.027677 665.902981,141.889134 667.552234,146.519761 C674.871158,164.899023 697.411537,164.84994 700.800513,164.899023 C710.539786,165.039262 719.665299,163.061001 728.638533,158.109475 C733.667269,155.334565 739.660267,155.818208 742.835768,160.358616 C746.01127,164.899023 745.02791,171.619514 738.819583,175.4089 C726.551838,182.896783 713.412347,185.175513 699.877622,184.897039 C678.787296,184.464303 658.772163,176.057002 649.831721,155.989869 C645.763712,146.858747 643.401295,136.210337 644.131773,126.126861 C644.453771,114.544064 648.816685,104.649849 649.947712,102.057133 C655.102789,90.2430376 664.149137,80.869093 676.192107,75.9407101 C690.886749,69.9284836 709.562429,70.8520546 723.571207,78.325767 C739.880655,87.0245631 748.961297,106.856296 748.062613,124.893977 C747.794319,130.314196 743.628702,134.911015 737.976374,134.911015 L664.423736,134.911015 Z M666.714068,116.397039 C707.100742,116.397039 727.29408,116.397039 727.29408,116.397039 C722.517304,90.8907635 694.825374,92.1278213 694.825374,92.1278213 C680.829731,92.6697703 671.459295,100.759509 666.714068,116.397039 Z" id="Combined-Shape"></path>
                            <path d="M411.640401,171.109694 L411.640401,234.247438 C411.640401,247.249609 391.467922,247.227419 391.467922,234.247438 L391.467922,215.23992 L391.467922,131.86885 C391.387112,130.648118 391.346081,129.416819 391.346081,128.176173 C391.346081,126.935528 391.387112,125.704229 391.467922,124.483497 L391.467922,82.4091929 C391.467922,69.4070219 411.640401,69.4292117 411.640401,82.4091929 L411.640401,85.2426527 C421.754841,76.810411 434.88467,71.7184854 449.233908,71.7184854 C481.204473,71.7184854 507.121736,96.9954533 507.121736,128.176173 C507.121736,159.356894 481.204473,184.633861 449.233908,184.633861 C434.88467,184.633861 421.754841,179.541936 411.640401,171.109694 Z M411.640401,131.074362 C413.194222,149.719995 429.416754,164.385345 449.200106,164.385345 C470.011049,164.385345 486.881652,148.156925 486.881652,128.138154 C486.881652,108.119384 470.011049,91.8909637 449.200106,91.8909637 C429.416754,91.8909637 413.194222,106.556314 411.640401,125.201947 L411.640401,131.074362 Z" id="Combined-Shape"></path>
                            <path d="M317.104175,184.633861 C285.133611,184.633861 259.216347,159.356894 259.216347,128.176173 C259.216347,96.9954533 285.133611,71.7184854 317.104175,71.7184854 C349.07474,71.7184854 374.992003,96.9954533 374.992003,128.176173 C374.992003,159.356894 349.07474,184.633861 317.104175,184.633861 Z M317.070372,164.385345 C337.881316,164.385345 354.751919,148.156925 354.751919,128.138154 C354.751919,108.119384 337.881316,91.8909637 317.070372,91.8909637 C296.259429,91.8909637 279.388826,108.119384 279.388826,128.138154 C279.388826,148.156925 296.259429,164.385345 317.070372,164.385345 Z" id="Combined-Shape"></path>
                            <path d="M159.362579,83.0986893 L159.362579,31.7821641 L159.362579,11.359547 C159.362579,-1.62043421 139.190101,-1.64161531 139.190101,11.359547 L139.190101,155.20243 L139.190101,175.059643 C139.190101,188.039624 159.362579,188.061814 159.362579,175.059643 L159.362579,121.203764 C159.441901,123.227487 159.457862,118.305628 160.8765,114.430559 C166.171776,96.9262675 182.112671,93.5939614 189.290488,93.4919819 C209.819701,93.4919819 220.683784,103.504404 221.882736,123.529248 L221.882736,139.529857 L221.882736,175.059643 C221.882736,188.039624 242.030503,188.060805 242.030503,175.059643 L242.030503,141.031698 C242.030503,131.293434 242.614437,120.610843 242.030503,114.430559 C238.786788,76.4185378 189.261848,60.6645246 161.735406,81.2189775 C160.925276,81.8239157 160.134287,82.4508859 159.362579,83.0986893 Z" id="Combined-Shape"></path>
                            <path d="M23.8528227,14.1903539 C11.874405,24.7899827 6.3491632,44.1000876 10.694315,59.4836196 C14.4595081,72.8146019 25.4640583,83.2048306 37.3724177,89.0504212 C49.7134814,95.1084182 63.3414578,98.3435991 73.8311465,102.967414 C81.1679516,106.244252 87.4748243,109.370498 93.796857,115.768869 C100.11889,122.167239 102.7958,130.133691 102.614247,136.04221 C102.430678,142.069746 100.165308,148.159817 96.9306515,151.977459 C88.6710302,161.7248 75.3319789,165.387114 63.0176895,164.772862 C54.2870408,164.338145 44.7434413,162.42882 36.955856,159.129611 C29.068417,155.78804 22.1156783,150.34245 15.1736139,145.5848 C10.694315,142.514974 4.11978954,144.021261 1.14562946,149.091221 C-1.45325161,153.597032 0.598998238,159.753949 4.99155541,163.002727 C18.190408,172.764189 32.1526888,180.219434 48.3613753,183.174197 C64.5700618,186.12896 78.7098604,185.451669 93.3016226,179.054977 C106.977554,173.060725 118.118814,161.291092 121.462402,146.493571 C124.946189,131.080789 120.960862,116.449393 110.779058,104.390582 C98.5030962,89.851557 80.3964333,84.2534845 63.3414578,78.1007999 C57.0183944,75.8197169 52.9727944,74.2407871 45.041994,70.1982315 C34.4432208,64.795734 29.0293235,57.0739423 29.7673934,45.0461768 C30.6461554,30.7256584 42.421589,23.3156365 57.0183944,21.3545178 C71.6151998,19.3933991 86.6640972,24.2969101 97.2856871,31.7061169 C107.467746,38.3361395 119.114736,22.598553 107.467746,14.2871818 C84.1554209,-1.51392053 46.039523,-5.44251069 23.8528227,14.1903539 Z" id="Fill-1"></path>
                        </g>
                    </g>
                </g>
                <g id="Group-2" transform="translate(139.000000, 3.000000)">
                    <g id="Group-33"></g>
                </g>
                <g id="Page-1" transform="translate(579.000000, 104.000000)">
                    <mask id="mask-2" fill="white">
                        <use xlink:href="#path-1"></use>
                    </mask>
                    <g id="Clip-2"></g>
                </g>
                <path d="M949.369284,17.5131578 C941.207572,41.7055053 917.636447,58.4613216 890.645771,58.4613216 C863.972384,58.4613216 840.614294,42.0961995 832.196348,18.3062692 C830.275513,12.8778048 824.237354,10.0063787 818.709742,11.8927597 C813.18213,13.7791406 810.258259,19.7089944 812.179093,25.1374588 C823.554459,57.2853439 854.937108,79.2726244 890.645771,79.2726244 C926.781625,79.2726244 958.453469,56.7583144 969.48536,24.0583953 C971.325788,18.6031316 968.314614,12.7155653 962.759713,10.9081479 C957.204812,9.10073052 951.209713,12.0578942 949.369284,17.5131578 Z" id="Stroke-3" fill="#D0011B" fill-rule="nonzero" transform="translate(890.807514, 44.824965) rotate(1.000000) translate(-890.807514, -44.824965) "></path>
                <path d="M961,10 L963,10 L963,10 C968.522847,10 973,14.4771525 973,20 L973,175 L973,175 C973,180.522847 968.522847,185 963,185 L961,185 L961,185 C955.477153,185 951,180.522847 951,175 L951,20 L951,20 C951,14.4771525 955.477153,10 961,10 Z" id="Rectangle-6" fill="#D0011B"></path>
                <path d="M820,10 L822,10 L822,10 C827.522847,10 832,14.4771525 832,20 L832,175 L832,175 C832,180.522847 827.522847,185 822,185 L820,185 L820,185 C814.477153,185 810,180.522847 810,175 L810,20 L810,20 C810,14.4771525 814.477153,10 820,10 Z" id="Rectangle-6-Copy" fill="#D0011B"></path>
                <circle id="Path" fill="#D0011B" cx="961.5" cy="20.5" r="11.5"></circle>
                <circle id="Path-Copy" fill="#D0011B" cx="821.5" cy="20.5" r="11.5"></circle>
            </g>
        </g>
    </g>
</svg>