<?xml version="1.0" encoding="UTF-8"?>
<svg width="400px" height="400px" viewBox="0 0 400 400" version="1.1" xmlns="http://www.w3.org/2000/svg" xmlns:xlink="http://www.w3.org/1999/xlink">
    <!-- Generator: Sketch 46.2 (44496) - http://www.bohemiancoding.com/sketch -->
    <title>Page 1</title>
    <desc>Created with Sketch.</desc>
    <defs>
        <polygon id="path-1" points="5.85437248e-05 399.862422 399.131504 399.862422 399.131504 0.146271497 5.85437248e-05 0.146271497"></polygon>
    </defs>
    <g id="Page-1" stroke="none" stroke-width="1" fill="none" fill-rule="evenodd">
        <g id="Desktop-HD-Copy-5" transform="translate(-830.000000, -287.000000)">
            <g id="Page-1" transform="translate(830.000000, 287.000000)">
                <mask id="mask-2" fill="white">
                    <use xlink:href="#path-1"></use>
                </mask>
                <g id="Clip-2"></g>
                <path d="M376.012938,399.469799 L360.812792,393.039063 L360.812792,376.260578 C364.777666,376.221793 368.37386,374.614475 371.009352,372.030209 L382.692777,383.713487 L382.694826,383.71861 L376.012938,399.469799 Z M253.385057,393.039063 L253.385057,376.260578 C257.34993,376.221793 260.946125,374.614475 263.581617,372.030209 L275.271482,383.719927 L268.568518,399.462627 L253.385057,393.039063 Z M221.679971,361.62655 L238.458163,361.62655 C238.497241,365.628452 240.133977,369.255236 242.760981,371.897168 L231.032477,383.625671 L215.284508,376.690582 L221.679971,361.62655 Z M161.184837,399.481361 L145.957322,393.039063 L145.957322,376.260578 C149.922195,376.221793 153.51839,374.614475 156.153882,372.030209 L167.855163,383.731343 L161.184837,399.481361 Z M53.7189023,399.465262 L38.5295865,393.039063 L38.5295865,376.260578 C42.4946067,376.221793 46.090655,374.614475 48.7261471,372.030209 L60.4161581,383.720073 L53.7189023,399.465262 Z M38.2368679,329.921171 L38.2368679,346.699656 C34.2717014,346.738441 30.6756531,348.345759 28.040161,350.930172 L16.3826418,339.272653 L23.0203293,323.399839 L38.2368679,329.921171 Z M6.82435419,254.052455 L23.602693,254.052455 C23.6416246,258.036356 25.2640176,261.647918 27.8699451,264.286776 L16.1825686,275.977373 L0.385568972,269.253187 L6.82435419,254.052455 Z M38.2368679,222.347076 L38.2368679,239.125562 C34.2717014,239.164347 30.6756531,240.771665 28.040161,243.356078 L16.3826418,231.698558 L23.0203293,215.825745 L38.2368679,222.347076 Z M6.82435419,146.332001 L23.602693,146.332001 C23.6417709,150.333904 25.2785071,153.960688 27.9055104,156.60262 L16.177007,168.331123 L0.429184047,161.39618 L6.82435419,146.332001 Z M38.2368679,114.626623 L38.2368679,131.405108 C34.2717014,131.443893 30.6756531,133.051211 28.040161,135.635624 L16.3826418,123.978105 L23.0203293,108.105291 L38.2368679,114.626623 Z M6.82435419,38.7579071 L23.602693,38.7579071 C23.6417709,42.7598097 25.2785071,46.3865935 27.9055104,49.0285254 L16.177007,60.7570289 L0.429184047,53.8220856 L6.82435419,38.7579071 Z M38.2368679,7.05252836 L38.2368679,23.8310135 C34.2717014,23.8697988 30.6756531,25.4771167 28.040161,28.0615295 L16.3826418,16.4040102 L23.0203293,0.531196487 L38.2368679,7.05252836 Z M60.383959,16.4045957 L48.7999122,28.1333919 C46.1579802,25.5066813 42.5314892,23.8700915 38.5295865,23.8310135 L38.5295865,7.05267472 L53.7459788,0.531196487 L60.383959,16.4045957 Z M145.664603,7.05252836 L145.664603,23.8310135 C141.699437,23.8697988 138.103388,25.4771167 135.467896,28.0615295 L123.810377,16.4040102 L130.448064,0.531196487 L145.664603,7.05252836 Z M167.811694,16.4045957 L156.227501,28.1333919 C153.585569,25.5066813 149.959078,23.8700915 145.957322,23.8310135 L145.957322,7.05267472 L161.173714,0.531196487 L167.811694,16.4045957 Z M183.868921,53.9223417 L168.018207,60.6118405 L156.360981,48.9544676 C158.945247,46.3189755 160.552565,42.7227808 160.59135,38.7579071 L177.36603,38.7579071 L177.370567,38.7598097 L183.868921,53.9223417 Z M215.303388,23.2487962 L231.031306,16.6111087 L242.688679,28.2684815 C240.104266,30.9039737 238.496948,34.5001683 238.458163,38.4651884 L221.679824,38.4651884 L215.303388,23.2487962 Z M253.092338,7.05252836 L253.092338,23.8310135 C249.127318,23.8697988 245.531123,25.4771167 242.895631,28.0615295 L231.238112,16.4040102 L237.875799,0.531196487 L253.092338,7.05252836 Z M275.239429,16.4045957 L263.655236,28.1333919 C261.013304,25.5066813 257.386813,23.8700915 253.385057,23.8310135 L253.385057,7.05267472 L268.601449,0.531196487 L275.239429,16.4045957 Z M306.998668,30.028745 L307.011987,29.9977168 L307.022525,30.0223052 L322.460505,23.3598829 L328.844698,38.5948628 L328.851577,38.6115477 L322.51861,53.7367581 L322.464896,53.7130479 L322.464018,53.715097 L322.461822,53.7142188 L322.405767,53.8474058 L322.394058,53.8737505 L307.03277,47.3522722 L307.031014,47.3478814 L307.026623,47.3496378 L307.021354,47.3474424 L307.019158,47.3528577 L291.573568,53.8253055 L285.059846,38.6270618 L285.034819,38.5682254 L291.482971,23.3789096 L306.864164,29.970933 L306.998668,30.028745 Z M360.520073,7.05252836 L360.520073,23.8310135 C356.555053,23.8697988 352.958858,25.4771167 350.323366,28.0615295 L338.665847,16.4040102 L345.303535,0.531196487 L360.520073,7.05252836 Z M382.667164,16.4045957 L371.082971,28.1333919 C368.441186,25.5066813 364.814548,23.8700915 360.812792,23.8310135 L360.812792,7.05267472 L376.029184,0.531196487 L382.667164,16.4045957 Z M392.188277,38.4651884 L375.44682,38.4651884 C375.408328,34.5370509 373.830721,30.9708599 371.288313,28.3422466 L382.917439,16.5677863 L398.640234,23.2644566 L392.188277,38.4651884 Z M375.920585,107.832038 L375.915756,107.833941 L375.944296,107.902144 L360.709755,114.352492 L360.623403,114.352492 L345.417109,107.835551 L351.999034,92.3317087 L352.003425,92.3299524 L352.001668,92.3255617 L352.003571,92.3210245 L351.998888,92.3191218 L345.452821,76.8470399 L360.549784,70.3769338 L375.927611,76.8828979 L369.328416,92.3219027 L369.329733,92.3224881 L375.920585,107.832038 Z M382.667164,123.97869 L371.082971,135.707486 C368.441186,133.080776 364.814548,131.444186 360.812792,131.405108 L360.812792,114.626769 L376.057285,108.172177 L382.667164,123.97869 Z M398.743125,269.260505 L382.873824,275.906535 L371.216451,264.249016 C373.800717,261.613524 375.408035,258.017329 375.44682,254.052455 L392.2215,254.052455 L392.226037,254.054358 L398.743125,269.260505 Z M375.911511,323.196985 L360.709608,329.64704 L360.623403,329.64704 L345.417109,323.130099 L351.999034,307.626257 L352.003425,307.624501 L352.001668,307.620256 L352.003571,307.615573 L351.998888,307.61367 L345.450333,292.143198 L360.658968,285.717585 L375.928342,292.177885 L375.921464,292.193985 L375.921756,292.194131 L369.33588,307.609426 L369.339246,307.611035 L369.329294,307.615134 L375.911511,323.196985 Z M360.666432,375.969762 C352.676824,375.969762 346.176861,369.469652 346.176861,361.48019 C346.176861,353.490582 352.676824,346.990618 360.666432,346.990618 C368.655895,346.990618 375.156004,353.490582 375.156004,361.48019 C375.156004,369.469652 368.655895,375.969762 360.666432,375.969762 L360.666432,375.969762 Z M338.683849,383.750809 L350.364201,372.070018 C352.995887,374.631014 356.575397,376.222086 360.520073,376.260578 L360.520073,393.029111 L345.313487,399.457212 L338.657505,383.812719 L338.683849,383.750809 Z M329.107706,361.62655 L345.885898,361.62655 C345.92483,365.611914 347.54854,369.22494 350.156224,371.864091 L338.467384,383.553224 L322.645796,376.847333 L329.107706,361.62655 Z M145.810962,375.969762 C137.821354,375.969762 131.32139,369.469652 131.32139,361.48019 C131.32139,353.490582 137.821354,346.990618 145.810962,346.990618 C153.800424,346.990618 160.300534,353.490582 160.300534,361.48019 C160.300534,369.469652 153.800424,375.969762 145.810962,375.969762 L145.810962,375.969762 Z M135.515609,372.076751 C138.146711,374.633941 141.723439,376.222086 145.664603,376.260578 L145.664603,393.024427 L130.469579,399.452382 L123.78974,383.783886 L135.515609,372.076751 Z M114.252089,361.62655 L131.030428,361.62655 C131.06936,365.61528 132.695704,369.231233 135.307486,371.870823 L123.612353,383.547223 L107.790472,376.847186 L114.252089,361.62655 Z M167.854724,60.8622613 L161.267091,76.2621881 L145.957322,70.1437834 L145.957322,53.3919356 C149.922195,53.3531504 153.51839,51.7458324 156.153882,49.161566 L167.854724,60.8622613 Z M183.984252,54.1916429 L184.006937,54.244625 L184.017768,54.2399415 L192.791716,75.9485401 L176.564859,82.3592243 L176.544076,82.3674204 L161.53888,76.3707867 L168.172031,60.864603 L183.984252,54.1916429 Z M275.445942,60.6118405 L263.788716,48.9544676 C266.372982,46.3189755 267.9803,42.7227808 268.019085,38.7579071 L284.793765,38.7579071 L284.798302,38.7598097 L291.296656,53.9223417 L275.445942,60.6118405 Z M329.107706,38.7579071 L345.885898,38.7579071 C345.924976,42.7598097 347.561712,46.3865935 350.188716,49.0285254 L338.460212,60.7570289 L322.786447,53.8547237 L329.107706,38.7579071 Z M345.319488,76.5857885 L338.666286,60.9648591 L350.397278,49.2338675 C353.026037,51.7758361 356.592082,53.3534431 360.520073,53.3919356 L360.520073,70.0710428 L345.319488,76.5857885 Z M345.147662,107.721098 L345.148101,107.72139 L345.147955,107.721683 L345.146784,107.721098 L345.146345,107.722561 L323.011109,98.7328796 L329.408328,83.7606147 L345.197131,76.9939846 L351.683776,92.3254153 L345.147662,107.721098 Z M360.520073,131.405108 C356.555053,131.443893 352.958858,133.051211 350.323366,135.635624 L338.665847,123.978105 L345.303535,108.105291 L360.520073,114.626623 L360.520073,131.405108 Z M375.156004,146.185642 C375.156004,154.175104 368.655895,160.675214 360.666432,160.675214 C352.676824,160.675214 346.176861,154.175104 346.176861,146.185642 C346.176861,138.196034 352.676824,131.69607 360.666432,131.69607 C368.655895,131.69607 375.156004,138.196034 375.156004,146.185642 L375.156004,146.185642 Z M382.845576,168.157834 L371.216451,156.528562 C373.800717,153.89307 375.408035,150.296875 375.44682,146.332001 L392.221793,146.332001 L392.225891,146.333611 L398.658383,161.524244 L382.89285,168.177739 L382.845576,168.157834 Z M376.054211,184.192667 L360.812792,177.744515 L360.812792,160.96603 C364.777666,160.927245 368.37386,159.319927 371.009352,156.73566 L382.716048,168.44221 L382.719415,168.450553 L376.054211,184.192667 Z M375.940051,215.62333 L360.658968,222.072945 L360.62311,222.072945 L345.39296,215.611767 L345.416378,215.555712 L345.417109,215.556004 L351.998741,200.052894 L352.003132,200.051138 L352.001376,200.046747 L352.003571,200.041478 L351.998156,200.039283 L345.506681,184.548321 L345.453553,184.421281 L360.627208,177.983666 L375.939612,184.462115 L369.332514,200.035038 L369.338368,200.037527 L369.329147,200.041332 L375.923513,215.578836 L375.921756,215.579568 L375.940051,215.62333 Z M371.046381,243.392375 C368.407669,240.786593 364.796253,239.164493 360.812792,239.125562 L360.812792,222.325708 L376.053333,215.893216 L382.680483,231.68524 L371.046381,243.392375 Z M360.666432,268.395668 C352.676824,268.395668 346.176861,261.895558 346.176861,253.906096 C346.176861,245.916487 352.676824,239.416524 360.666432,239.416524 C368.655895,239.416524 375.156004,245.916487 375.156004,253.906096 C375.156004,261.895558 368.655895,268.395668 360.666432,268.395668 L360.666432,268.395668 Z M345.319634,291.880483 L338.666286,276.259407 L350.397278,264.528416 C353.026037,267.070384 356.592082,268.647991 360.520073,268.686484 L360.520073,285.458529 L345.319634,291.880483 Z M345.147662,323.015646 L345.148101,323.015939 L345.147955,323.016231 L345.146784,323.015646 L345.146345,323.017109 L323.011109,314.027428 L329.408328,299.055163 L345.194497,292.289557 L351.683776,307.619963 L345.147662,323.015646 Z M345.033355,323.287142 L338.381032,339.194936 L322.55037,345.875799 L316.047333,330.325415 L322.896217,314.296436 L345.033355,323.287142 Z M253.385057,329.921317 L268.601449,323.399839 L275.239429,339.273238 L263.655236,351.002034 C261.013304,348.375324 257.386813,346.738734 253.385057,346.699656 L253.385057,329.921317 Z M215.122634,345.875799 L208.580227,330.230867 L215.422817,314.277849 L237.60562,323.287142 L230.953297,339.194936 L215.122634,345.875799 Z M145.957322,329.921464 L161.196839,323.455016 L167.811694,339.273238 L156.227501,351.002034 C153.585569,348.375324 149.959078,346.738734 145.957322,346.699656 L145.957322,329.921464 Z M135.467896,350.930172 L123.810377,339.272653 L130.448064,323.399839 L145.664603,329.921171 L145.664603,346.699656 C141.699437,346.738441 138.103388,348.345759 135.467896,350.930172 L135.467896,350.930172 Z M76.4793853,345.867164 L60.6370143,339.119561 L54.0435273,323.352419 L54.0767508,323.338368 L54.0755799,323.335734 L76.1123161,314.378251 L82.8189389,330.018646 L76.4793853,345.867164 Z M53.1636151,254.052455 L69.9384413,254.052455 L69.9428321,254.054358 L76.4411855,269.21689 L60.590472,275.906389 L48.9332455,264.249016 C51.5175119,261.613524 53.1248299,258.017329 53.1636151,254.052455 L53.1636151,254.052455 Z M60.6809221,231.882386 L76.3207318,238.543637 L76.3195609,238.546564 L76.3548335,238.560761 L76.344442,238.585349 L76.3466374,238.586374 L69.9050714,253.759737 L53.1636151,253.759737 C53.1249762,249.807889 51.5281961,246.222525 48.9590048,243.589374 L60.6809221,231.882386 Z M60.7249762,168.446747 L76.5565166,161.765591 L76.5792023,161.818719 L76.5900329,161.814036 L85.2792389,183.313194 L68.9900329,189.492924 L68.9688108,189.500973 L54.2301354,183.775836 L60.7249762,168.446747 Z M53.1636151,146.332001 L69.9384413,146.332001 L69.9428321,146.333904 L76.4411855,161.496436 L60.590472,168.185935 L48.9332455,156.528562 C51.5175119,153.89307 53.1248299,150.296875 53.1636151,146.332001 L53.1636151,146.332001 Z M60.6340871,124.141881 L76.348101,130.834892 L76.3479546,130.835477 L76.3577607,130.839429 L69.9050714,146.039283 L53.1636151,146.039283 C53.1252689,142.111145 51.5473692,138.544954 49.0051079,135.916341 L60.6340871,124.141881 Z M60.731416,60.8701647 L76.5565166,54.1914965 L76.5792023,54.244625 L76.5900329,54.2399415 L85.3350018,75.8772631 L69.0335016,82.229989 L54.2100842,76.3636151 L60.731416,60.8701647 Z M145.664603,70.1544676 L130.475287,76.6115477 L123.810962,60.8912404 L135.509023,49.2016685 C138.140856,51.7625174 141.720073,53.3534431 145.664603,53.3919356 L145.664603,70.1544676 Z M161.050626,76.7684449 L161.044186,76.7656641 L154.400498,92.4149872 L154.538514,92.4736773 L161.112243,107.81228 L161.060285,107.833941 L161.060871,107.835112 L145.853992,114.352492 L145.767786,114.352492 L130.561786,107.835551 L137.143564,92.3317087 L137.148101,92.3298061 L137.146198,92.3254153 L137.148101,92.3210245 L137.143564,92.3191218 L130.59296,76.8795317 L145.822525,70.4051811 L161.151906,76.5313428 L161.050626,76.7684449 Z M176.433575,82.6386242 L183.356809,98.8366484 L161.404815,107.75198 L154.800059,92.3409294 L154.775031,92.2820929 L161.269872,76.9830077 L161.276019,76.9856422 L161.423696,76.6400878 L176.433575,82.6386242 Z M199.407596,92.317951 L183.628013,98.7262935 L176.737856,82.605547 L192.901339,76.2200366 L199.407596,92.317951 Z M306.835331,92.317951 L291.085313,98.714292 L284.567494,83.3865203 L300.489045,76.6160849 L306.835331,92.317951 Z M315.789155,114.890509 L315.688899,114.932367 L315.729587,115.029696 L315.688313,115.12644 L315.787838,115.168884 L322.295997,130.731709 L307.041259,137.269579 L306.982422,137.294607 L291.580446,130.756151 L291.517219,130.904998 L297.995229,114.710048 L297.865262,114.657944 L291.200059,98.9838858 L307.025891,92.5565166 L322.625013,98.8918258 L315.789155,114.890509 Z M345.885898,146.039283 L329.107559,146.039283 L322.731123,130.822891 L338.459041,124.185203 L350.116414,135.842576 C347.532001,138.478068 345.924683,142.074263 345.885898,146.039283 L345.885898,146.039283 Z M338.460212,168.331123 L322.730684,161.40423 L322.731562,161.402181 L322.712975,161.394424 L329.107706,146.332001 L345.885898,146.332001 C345.924976,150.333904 347.561712,153.960688 350.188716,156.60262 L338.460212,168.331123 Z M345.885898,253.759737 L329.107559,253.759737 L322.731123,238.543344 L338.459041,231.905657 L350.116414,243.56303 C347.532001,246.198522 345.924683,249.794716 345.885898,253.759737 L345.885898,253.759737 Z M338.515536,275.996253 L322.666286,269.272653 L329.107559,254.052455 L345.885898,254.052455 C345.924976,258.054358 347.561712,261.681142 350.188716,264.323074 L338.515536,275.996253 Z M284.567494,298.680922 L300.489045,291.910633 L306.835331,307.612499 L291.123513,313.993326 L284.567494,298.680922 Z M268.83255,323.046528 L262.227794,307.635477 L262.223988,307.62655 L268.768445,292.334929 L268.772836,292.336831 L268.774592,292.332733 L284.228818,298.731123 L284.262481,298.810743 L284.298192,298.795521 L290.852455,314.103535 L268.83255,323.046528 Z M221.937563,299.088825 L221.945613,299.070238 L237.821939,292.265847 L244.249016,307.603278 L244.256041,307.62011 L237.719927,323.015646 L237.720366,323.015939 L237.72022,323.016231 L237.719049,323.015646 L237.71861,323.017109 L215.538149,314.00884 L221.937563,299.088825 Z M199.710413,307.580739 L193.334855,291.806279 L208.290435,285.434673 L208.425086,285.377446 L208.401522,285.321976 L208.457431,285.34554 L215.189082,269.394424 L230.953297,276.336392 L237.636209,292.026842 L221.860139,298.78835 L221.734124,298.84221 L221.726367,298.838844 L215.266798,313.898778 L199.710413,307.580739 Z M177.141368,298.704779 L193.065554,291.920878 L199.407596,307.612499 L183.654065,314.01045 L177.141368,298.704779 Z M161.353004,323.067457 L154.800351,307.635917 L154.789374,307.610157 L161.261529,292.289704 L161.27075,292.293802 L161.272945,292.288825 L176.841625,298.747955 L183.382715,314.120659 L161.353004,323.067457 Z M114.552858,299.055163 L130.326001,292.295119 L136.828306,307.619963 L130.292338,323.015646 L130.292777,323.015792 L130.292631,323.016231 L130.29146,323.015646 L130.290874,323.017109 L108.155638,314.027281 L114.552858,299.055163 Z M92.2826784,307.580739 L85.7732016,291.474921 L100.859773,285.43599 L100.995595,285.381544 L100.971299,285.320951 L101.029696,285.34554 L107.720366,269.491606 L107.777592,269.515609 L107.817988,269.419305 L123.525415,276.336392 L130.208474,292.026842 L114.384544,298.808694 L114.346784,298.792594 L114.329806,298.832258 L114.2979,298.845869 L114.310926,298.876312 L107.884435,313.917073 L92.2826784,307.580739 Z M85.5015587,291.583813 L91.9797146,307.612499 L76.2681888,313.999034 L69.4172558,298.022012 L85.5015587,291.583813 Z M92.1685181,245.318463 L92.1698353,245.315243 L107.621281,238.693216 L113.996107,253.906096 L107.663139,269.031306 L107.609279,269.007596 L107.608401,269.009645 L107.606352,269.008767 L107.549272,269.144003 L107.541076,269.162591 L92.1772997,262.646967 L92.1755434,262.64243 L92.1711526,262.644332 L92.1657373,262.64199 L92.1635419,262.647406 L76.7153165,269.113707 L70.2043761,253.92161 L70.1793487,253.86292 L76.6159385,238.700973 L92.1685181,245.318463 Z M91.979861,199.892484 L76.2658471,206.330245 L69.2206952,189.718463 L85.3890084,183.584691 L91.979861,199.892484 Z M100.857285,177.716414 L100.994131,177.664603 L100.969543,177.599619 L101.029696,177.625086 L107.761347,161.67397 L123.525415,168.615939 L130.208474,184.306389 L114.384544,191.08824 L114.346784,191.072141 L114.329806,191.111804 L114.2979,191.125415 L114.310926,191.155858 L107.884435,206.196619 L92.2826784,199.860285 L85.6627003,183.480922 L100.857285,177.716414 Z M76.8449909,161.663432 L92.1535895,155.248357 L92.1704208,155.241478 L107.425159,161.717731 L100.795668,177.426769 L85.5529308,183.209279 L76.8449909,161.663432 Z M76.6228174,130.964127 L92.163981,137.594643 L92.1648591,137.592594 L92.1664691,137.596253 L107.621281,130.972763 L113.996107,146.185642 L107.520146,161.440088 L92.1772997,154.926367 L92.175397,154.921976 L92.1711526,154.923732 L92.1658836,154.921537 L92.1635419,154.926952 L76.717951,161.3994 L70.2043761,146.201156 L70.1793487,146.142466 L76.6228174,130.964127 Z M92.1434907,92.5672009 L92.1701281,92.5565166 L107.736173,98.8782144 L100.835917,114.931489 L100.833428,114.932367 L107.440527,130.731709 L92.1667618,137.277629 L76.7224881,130.688386 L83.1399049,114.710194 L83.1123893,114.699217 L76.3463447,98.960322 L92.1434907,92.5672009 Z M91.9797146,92.3178046 L76.2308672,98.6914599 L69.2524552,82.4586023 L85.444625,76.1486132 L91.9797146,92.3178046 Z M130.292338,107.721098 L130.292777,107.721244 L130.292631,107.721537 L130.29146,107.721098 L130.290874,107.722561 L108.123,98.7194146 L114.570567,83.7194877 L130.326293,77.0002781 L136.828306,92.3254153 L130.292338,107.721098 Z M145.664603,131.405108 C141.699437,131.443893 138.103388,133.051211 135.467896,135.635624 L123.810377,123.978105 L130.448064,108.105291 L145.664603,114.626623 L145.664603,131.405108 Z M167.811694,123.97869 L156.227501,135.707486 C153.585569,133.080776 149.959078,131.444186 145.957322,131.405108 L145.957322,114.626769 L161.173714,108.105291 L167.811694,123.97869 Z M190.169543,114.775763 L190.198668,114.844113 L183.90712,130.572763 L168.064749,123.825013 L161.465262,108.043381 L183.471848,99.1058031 L190.169543,114.775763 Z M237.60562,107.992594 L230.953297,123.900388 L215.122634,130.581251 L208.619598,115.030867 L215.468482,99.0020344 L237.60562,107.992594 Z M291.335002,130.572763 L275.492338,123.825013 L268.892997,108.043381 L290.928855,99.093948 L297.597278,114.775617 L297.626403,114.844259 L291.335002,130.572763 Z M253.385057,268.686484 C257.34993,268.647698 260.946125,267.040381 263.581617,264.456114 L275.280849,276.155199 L268.598814,291.944588 L253.385057,285.465115 L253.385057,268.686484 Z M215.28524,269.114877 L221.679971,254.052455 L238.458163,254.052455 C238.497241,258.054358 240.133977,261.681142 242.760981,264.323074 L231.032477,276.051577 L215.302949,269.124683 L215.303827,269.122634 L215.28524,269.114877 Z M145.957322,285.464969 L145.957322,268.686484 C149.922195,268.647698 153.51839,267.040381 156.153882,264.456114 L167.853114,276.155199 L161.127903,291.883264 L145.957322,285.464969 Z M114.252236,254.052455 L131.030428,254.052455 C131.069506,258.054358 132.706242,261.681142 135.333246,264.323074 L123.604742,276.051577 L107.930977,269.149272 L114.252236,254.052455 Z M123.603571,231.905657 L135.260944,243.56303 C132.676531,246.198522 131.069213,249.794716 131.030428,253.759737 L114.252089,253.759737 L107.875653,238.543198 L123.603571,231.905657 Z M130.229989,215.587911 L130.177885,215.709974 L130.17891,215.71056 L123.525415,231.620988 L107.747003,238.279898 L101.192009,222.605108 L108.040746,206.576129 L130.229989,215.587911 Z M135.541808,156.807962 C138.170567,159.34993 141.736612,160.927538 145.664603,160.96603 L145.664603,177.645137 L130.464164,184.159737 L123.810816,168.538954 L135.541808,156.807962 Z M231.031306,124.185203 L242.688679,135.842576 C240.104266,138.478068 238.496948,142.074263 238.458163,146.039283 L221.679824,146.039283 L215.303388,130.822891 L231.031306,124.185203 Z M275.445942,168.185935 L263.788716,156.528562 C266.372982,153.89307 267.9803,150.296875 268.019085,146.332001 L284.793765,146.332001 L284.798302,146.333904 L291.296656,161.496436 L275.445942,168.185935 Z M284.339173,190.739759 L268.787764,184.344881 L275.580739,168.446747 L291.411987,161.765737 L291.434673,161.818719 L291.445503,161.814036 L300.379422,183.918829 L284.339173,190.739759 Z M268.779276,215.347589 L262.227794,200.061383 L262.202766,200.002547 L268.726293,184.63599 L284.228818,191.01067 L284.262481,191.090289 L284.298192,191.075214 L290.814255,206.398595 L268.779276,215.347589 Z M275.492338,231.545467 L268.870604,215.71056 L268.871775,215.709974 L268.841186,215.638551 L290.928855,206.668042 L297.597278,222.349711 L297.626403,222.418353 L291.284947,238.271848 L275.492338,231.545467 Z M284.760542,253.759737 L268.019085,253.759737 C267.980593,249.831599 266.402839,246.265408 263.860578,243.636795 L275.489704,231.862334 L291.176202,238.543637 L291.175031,238.546564 L291.212645,238.561639 L284.760542,253.759737 Z M156.153882,156.73566 L167.860578,168.44221 L167.906389,168.550809 L167.943125,168.535295 L161.244844,184.21228 L145.957322,177.744515 L145.957322,160.96603 C149.922195,160.927245 153.51839,159.319927 156.153882,156.73566 L156.153882,156.73566 Z M221.980593,191.334709 L237.769835,184.567786 L244.249016,200.029184 L244.256041,200.046015 L237.772323,215.318463 L215.583374,206.306974 L221.980593,191.334709 Z M242.969543,156.807962 C245.598302,159.34993 249.164347,160.927538 253.092338,160.96603 L253.092338,177.645137 L237.891753,184.159883 L231.238551,168.538954 L242.969543,156.807962 Z M199.710413,199.860285 L193.330757,184.07558 L208.290435,177.714219 L208.425086,177.657139 L208.401522,177.601522 L208.457431,177.625086 L215.189082,161.67397 L230.953297,168.615939 L237.636209,184.306389 L221.860139,191.067896 L221.81228,191.08824 L221.774519,191.072141 L221.757688,191.111804 L221.725488,191.125415 L221.738661,191.156151 L215.31217,206.196765 L199.710413,199.860285 Z M177.139759,190.960615 L193.06131,184.190179 L199.407596,199.892045 L183.657578,206.288386 L177.139759,190.960615 Z M168.331562,168.371518 L183.984252,161.765737 L184.006937,161.818719 L184.017768,161.814036 L192.951687,183.918829 L176.911438,190.739759 L161.484435,184.396107 L168.331562,168.371518 Z M161.35154,215.347589 L154.800059,200.061383 L154.775031,200.002547 L161.298558,184.63599 L176.801083,191.01067 L176.834746,191.090289 L176.870457,191.075214 L183.38652,206.398595 L161.35154,215.347589 Z M168.064749,231.545467 L161.442869,215.71056 L161.44404,215.709974 L161.41345,215.638551 L183.50112,206.668042 L190.169543,222.349711 L190.198668,222.418353 L183.857212,238.271848 L168.064749,231.545467 Z M145.957322,222.347223 L161.173714,215.825745 L167.811694,231.699144 L156.227501,243.42794 C153.585569,240.801229 149.959078,239.16464 145.957322,239.125562 L145.957322,222.347223 Z M177.332806,253.759737 L160.59135,253.759737 C160.553004,249.831599 158.975104,246.265408 156.432843,243.636795 L168.061969,231.862334 L183.748467,238.543637 L183.747296,238.546564 L183.78491,238.561639 L177.332806,253.759737 Z M215.174592,238.279898 L208.619598,222.604962 L215.468482,206.576129 L237.657724,215.587911 L237.605474,215.709974 L237.606645,215.71056 L230.953297,231.620842 L215.174592,238.279898 Z M242.895631,243.356078 L231.238112,231.698558 L237.875799,215.825745 L253.092338,222.347076 L253.092338,239.125562 C249.127318,239.164347 245.531123,240.771665 242.895631,243.356078 L242.895631,243.356078 Z M263.655236,243.42794 C261.013304,240.801229 257.386813,239.16464 253.385057,239.125562 L253.385057,222.347223 L268.601449,215.825745 L275.239429,231.699144 L263.655236,243.42794 Z M261.828233,200.135441 L261.96625,200.194131 L268.539978,215.532733 L268.48802,215.554394 L268.488606,215.555565 L253.281873,222.072945 L253.195668,222.072945 L237.989374,215.556004 L244.571006,200.052894 L244.575397,200.051138 L244.573494,200.046747 L244.575836,200.041478 L244.570421,200.039283 L238.078946,184.548321 L238.025671,184.420842 L253.122049,177.951028 L268.433575,184.428891 L268.414255,184.474116 L268.467237,184.496802 L261.828233,200.135441 Z M275.271628,168.425525 L268.548613,184.159883 L253.385057,177.744515 L253.385057,160.96603 C257.34993,160.927245 260.946125,159.319927 263.581617,156.73566 L275.271628,168.425525 Z M253.238697,131.69607 C261.22816,131.69607 267.728269,138.196034 267.728269,146.185642 C267.728269,154.175104 261.22816,160.675214 253.238697,160.675214 C245.249089,160.675214 238.749126,154.175104 238.749126,146.185642 C238.749126,138.196034 245.249089,131.69607 253.238697,131.69607 L253.238697,131.69607 Z M221.679971,146.332001 L238.458163,146.332001 C238.497241,150.333904 240.133977,153.960688 242.760981,156.60262 L231.032477,168.331123 L215.302949,161.40423 L215.303827,161.402181 L215.28524,161.394424 L221.679971,146.332001 Z M199.508145,155.175177 L199.524976,155.168299 L214.868116,161.681873 L208.244771,177.376422 L208.224427,177.424427 L193.220988,183.80423 L184.236575,161.574738 L199.508145,155.175177 Z M160.59135,146.332001 L177.36603,146.332001 L177.370567,146.333904 L183.868921,161.496436 L168.018207,168.185935 L156.360981,156.528562 C158.945247,153.89307 160.552565,150.296875 160.59135,146.332001 L160.59135,146.332001 Z M137.143125,200.052894 L137.147662,200.051138 L137.145759,200.046601 L137.148101,200.041478 L137.142686,200.039283 L130.597936,184.420842 L145.694314,177.951028 L161.091021,184.464896 L161.076531,184.500022 L161.044186,184.486118 L154.400498,200.135441 L154.538514,200.194131 L161.112243,215.532733 L161.060285,215.554394 L161.060871,215.555565 L145.853992,222.072945 L145.767786,222.072945 L130.561786,215.556004 L137.143125,200.052894 Z M123.810377,231.698558 L130.448064,215.825745 L145.664603,222.347076 L145.664603,239.125562 C141.699437,239.164347 138.103388,240.771665 135.467896,243.356078 L123.810377,231.698558 Z M145.810962,268.395668 C137.821354,268.395668 131.32139,261.895558 131.32139,253.906096 C131.32139,245.916487 137.821354,239.416524 145.810962,239.416524 C153.800424,239.416524 160.300534,245.916487 160.300534,253.906096 C160.300534,261.895558 153.800424,268.395668 145.810962,268.395668 L145.810962,268.395668 Z M168.034746,275.899363 L167.993472,275.881654 L156.360981,264.249016 C158.945247,261.613524 160.552565,258.017329 160.59135,254.052455 L177.36603,254.052455 L177.370567,254.054358 L183.868921,269.21689 L168.034746,275.899363 Z M214.947881,269.160395 L199.605035,262.64682 L199.603278,262.64243 L199.598888,262.644186 L199.593619,262.64199 L199.591423,262.647406 L184.145686,269.119854 L177.632111,253.92161 L177.607084,253.862774 L184.14554,238.460798 L184.105584,238.44382 L184.12944,238.387764 L184.126513,238.386447 L190.567494,222.284142 L190.437527,222.232038 L183.772323,206.55798 L199.598156,200.130611 L215.197278,206.46592 L208.36142,222.464603 L208.261164,222.506462 L208.301851,222.603791 L208.260578,222.700534 L208.360102,222.742978 L214.920073,238.429916 L199.613524,244.990033 L199.554687,245.01506 L184.152711,238.476604 L184.038258,238.745906 L199.687581,245.389594 L199.746125,245.251577 L215.049016,238.693216 L221.416963,253.889411 L221.423988,253.906242 L214.947881,269.160395 Z M238.458163,253.759737 L221.679824,253.759737 L215.303388,238.543344 L231.031306,231.905657 L242.688679,243.56303 C240.104266,246.198522 238.496948,249.794716 238.458163,253.759737 L238.458163,253.759737 Z M253.238697,268.395668 C245.249089,268.395668 238.749126,261.895558 238.749126,253.906096 C238.749126,245.916487 245.249089,239.416524 253.238697,239.416524 C261.22816,239.416524 267.728269,245.916487 267.728269,253.906096 C267.728269,261.895558 261.22816,268.395668 253.238697,268.395668 L253.238697,268.395668 Z M275.445942,275.906389 L263.788716,264.249016 C266.372982,261.613524 267.9803,258.017329 268.019085,254.052455 L284.793765,254.052455 L284.798302,254.054358 L291.296656,269.21689 L275.445942,275.906389 Z M291.085313,206.288386 L284.567494,190.960615 L300.489045,184.190179 L306.835331,199.892045 L291.085313,206.288386 Z M307.00906,155.248357 L307.025891,155.241478 L322.280629,161.717731 L315.672506,177.376422 L315.652162,177.424427 L300.648723,183.80423 L291.700315,161.663432 L307.00906,155.248357 Z M284.760542,146.039283 L268.019085,146.039283 C267.980593,142.111145 266.402839,138.544954 263.860578,135.916341 L275.489704,124.141881 L291.213377,130.83899 L284.760542,146.039283 Z M275.239429,123.97869 L263.655236,135.707486 C261.013304,133.080776 257.386813,131.444186 253.385057,131.405108 L253.385057,114.626769 L268.601449,108.105291 L275.239429,123.97869 Z M253.092338,114.626623 L253.092338,131.405108 C249.127318,131.443893 245.531123,133.051211 242.895631,135.635624 L231.238112,123.978105 L237.875799,108.105291 L253.092338,114.626623 Z M199.614402,137.59596 L199.672945,137.457944 L214.944076,130.913048 L214.960907,130.953443 L215.028965,130.925049 L221.416963,146.168957 L221.423988,146.185789 L214.963103,161.404376 L199.531855,154.853187 L199.530099,154.848796 L199.525708,154.850553 L199.520439,154.848357 L199.518244,154.853772 L184.108072,161.311292 L177.632111,146.201156 L177.607084,146.14232 L184.003571,131.075068 L184.018939,131.081215 L184.055236,130.990618 L199.614402,137.59596 Z M168.061969,124.141881 L183.785642,130.83899 L177.332806,146.039283 L160.59135,146.039283 C160.553004,142.111145 158.975104,138.544954 156.432843,135.916341 L168.061969,124.141881 Z M145.810962,131.69607 C153.800424,131.69607 160.300534,138.196034 160.300534,146.185642 C160.300534,154.175104 153.800424,160.675214 145.810962,160.675214 C137.821354,160.675214 131.32139,154.175104 131.32139,146.185642 C131.32139,138.196034 137.821354,131.69607 145.810962,131.69607 L145.810962,131.69607 Z M123.603571,124.185203 L135.260944,135.842576 C132.676531,138.478068 131.069213,142.074263 131.030428,146.039283 L114.252089,146.039283 L107.875653,130.822744 L123.603571,124.185203 Z M130.177885,107.992594 L123.525415,123.900534 L107.695046,130.581251 L101.152345,114.936465 L108.007377,98.988423 L130.177885,107.992594 Z M107.857651,161.394424 L114.252089,146.332001 L131.030428,146.332001 C131.069506,150.333904 132.706242,153.960688 135.333246,156.60262 L123.604742,168.331123 L107.875214,161.40423 L107.876092,161.402181 L107.857651,161.394424 Z M114.552858,191.334709 L130.342247,184.567786 L136.82816,200.045869 L130.344588,215.318463 L108.155638,206.306828 L114.552858,191.334709 Z M100.796107,285.146198 L85.6635785,291.203571 L76.8423564,269.377739 L92.1535895,262.968957 L92.1704208,262.962078 L107.427647,269.432477 L100.796107,285.146198 Z M130.46431,291.880483 L123.810816,276.259407 L135.541808,264.528416 C138.170567,267.070384 141.736612,268.647991 145.664603,268.686484 L145.664603,285.462627 L130.46431,291.880483 Z M176.942466,298.471628 L176.940856,298.47236 L161.387984,292.019671 L168.169396,276.160322 L183.984252,269.486191 L184.006937,269.539173 L184.017768,269.53449 L192.955931,291.649528 L176.942466,298.471628 Z M208.244771,285.096875 L208.224427,285.144881 L193.225232,291.534782 L184.27258,269.383886 L199.581325,262.968811 L199.598156,262.961932 L214.852894,269.438185 L208.244771,285.096875 Z M237.892045,291.880483 L231.238551,276.259407 L242.969543,264.528416 C245.598302,267.070384 249.164347,268.647991 253.092338,268.686484 L253.092338,285.469067 L237.892045,291.880483 Z M284.339173,298.460212 L268.869579,292.055382 L275.596253,276.160615 L291.411987,269.486191 L291.434673,269.539173 L291.445503,269.53449 L300.379422,291.639283 L284.339173,298.460212 Z M315.652162,285.144735 L300.648723,291.524683 L291.700315,269.383886 L307.00906,262.968811 L307.025891,262.961932 L322.267018,269.432477 L315.652162,285.144735 Z M315.679532,222.52139 L315.698412,222.529587 L322.347808,238.429916 L307.041259,244.990033 L306.982422,245.01506 L291.580446,238.476604 L291.465993,238.745906 L307.115317,245.389594 L307.17386,245.251577 L322.476751,238.693216 L328.844698,253.889411 L328.851723,253.906096 L322.392887,269.167713 L307.03277,262.64682 L307.031014,262.64243 L307.026623,262.644186 L307.021354,262.64199 L307.019158,262.647406 L291.573568,269.119854 L285.059846,253.92161 L285.034819,253.862774 L291.573275,238.460798 L291.533319,238.44382 L291.557175,238.387764 L291.554248,238.386447 L297.995229,222.284142 L297.865262,222.232038 L291.200059,206.55798 L307.025452,200.130757 L322.561639,206.516414 L315.679532,222.52139 Z M338.381032,231.620842 L322.602327,238.279898 L316.005327,222.504559 L322.832404,206.627647 L345.019012,215.747003 L338.381032,231.620842 Z M338.381032,168.615939 L345.063944,184.306389 L329.287874,191.067896 L329.240307,191.088094 L329.202547,191.071994 L329.185569,191.111658 L329.153224,191.125415 L329.166396,191.156151 L322.677263,206.247552 L307.138295,199.860724 L300.758492,184.07558 L315.718171,177.714219 L315.852821,177.657139 L315.829257,177.601522 L315.885166,177.625086 L322.616817,161.67397 L338.381032,168.615939 Z M291.446674,131.081215 L291.468628,131.026476 L307.115317,137.66914 L307.17386,137.531123 L322.476751,130.972763 L328.844698,146.168957 L328.851723,146.185789 L322.375617,161.439941 L307.03277,154.926367 L307.031014,154.921976 L307.026623,154.923732 L307.021354,154.921537 L307.019158,154.926952 L291.573568,161.3994 L285.059846,146.201156 L285.034819,146.14232 L291.431306,131.075068 L291.446674,131.081215 Z M284.228818,83.4365752 L284.262481,83.5161947 L284.298192,83.5011196 L290.814255,98.8245005 L268.83255,107.75198 L262.276239,92.4536261 L268.784691,77.1224881 L268.809133,77.1331723 L268.822744,77.1017051 L284.228818,83.4365752 Z M253.123074,70.3763483 L268.515829,77.0067179 L262.039283,92.2624808 L261.90112,92.32161 L268.539978,107.81228 L268.48802,107.833941 L268.488606,107.835112 L253.281873,114.352492 L253.195668,114.352492 L237.989374,107.835551 L244.571006,92.3324405 L244.575397,92.3306842 L244.573494,92.3262935 L244.575836,92.3210245 L244.570421,92.3188291 L238.078946,76.8278668 L238.077629,76.8243542 L253.123074,70.3763483 Z M221.980593,83.7606147 L237.821939,76.9712989 L244.249016,92.3087303 L244.256041,92.3255617 L237.719927,107.721098 L237.720366,107.72139 L237.72022,107.721683 L237.719049,107.721098 L237.71861,107.722561 L215.583374,98.7328796 L221.980593,83.7606147 Z M199.598156,92.5565166 L215.197278,98.8918258 L208.36142,114.890509 L208.261164,114.932367 L208.301851,115.029696 L208.260578,115.12644 L208.360102,115.168884 L214.831233,130.643015 L199.540344,137.1964 L199.481508,137.221427 L184.163981,130.718829 L190.567494,114.710048 L190.437527,114.657944 L183.743052,98.9955946 L199.598156,92.5565166 Z M100.987984,70.0707501 L101.00584,70.0783608 L107.731782,54.216524 L123.515317,60.9437834 L130.208474,76.7322942 L114.346784,83.4965825 L114.347223,83.4980461 L114.347076,83.4978997 L107.851797,98.6093524 L92.2826784,92.286191 L85.7174387,76.0423564 L100.994863,70.0887523 L100.987984,70.0707501 Z M60.6370143,123.825013 L54.0179144,107.996692 L76.0751409,99.0702378 L82.8021076,114.71839 L82.81206,114.741368 L76.457285,130.563103 L60.6370143,123.825013 Z M83.1397585,222.284142 L83.0097914,222.232038 L76.3801537,206.599839 L92.1705671,200.130757 L107.769543,206.46592 L100.933685,222.464603 L100.833428,222.506462 L100.874116,222.603937 L100.832843,222.700534 L100.932367,222.742978 L107.492484,238.429769 L92.1648591,244.998814 L76.6904354,238.414548 L76.7018514,238.387764 L76.6989243,238.386447 L83.1397585,222.284142 Z M60.7242444,231.582642 L60.674775,231.533026 L54.0091328,215.764859 L76.1092426,206.710779 L82.7416612,222.349565 L82.7707867,222.418353 L76.4294768,238.271848 L60.7242444,231.582642 Z M60.7359532,276.162664 L76.5565166,269.486045 L76.5792023,269.539173 L76.5900329,269.53449 L85.3917892,291.312316 L69.2044493,297.791936 L69.1836663,297.800278 L54.1451006,291.740271 L60.7359532,276.162664 Z M123.525415,339.195082 L107.695046,345.875799 L101.192009,330.325562 L108.040746,314.296583 L130.177885,323.287142 L123.525415,339.195082 Z M145.854138,329.64704 L145.767786,329.64704 L130.561786,323.130099 L137.143564,307.626257 L137.148101,307.624354 L137.146198,307.619963 L137.148101,307.615573 L137.143564,307.61367 L130.58169,292.14876 L145.808328,285.71978 L161.003498,292.148467 L154.525488,307.482971 L154.468408,307.617768 L154.476019,307.620988 L161.060724,323.128342 L161.060285,323.128489 L161.083849,323.184837 L145.854138,329.64704 Z M183.893802,345.861456 L168.064749,339.119561 L161.466286,323.34071 L161.475946,323.336465 L161.474921,323.334124 L183.497461,314.389813 L190.18052,330.095924 L183.893802,345.861456 Z M253.281873,329.64704 L253.195668,329.64704 L237.989374,323.130099 L244.571006,307.626989 L244.575397,307.625232 L244.573494,307.620842 L244.575836,307.615573 L244.570421,307.613377 L238.078946,292.122415 L238.077922,292.11978 L253.243674,285.722854 L268.499144,292.220183 L261.912097,307.611475 L261.90112,307.616158 L268.539978,323.106828 L268.48802,323.128489 L268.488606,323.12966 L253.281873,329.64704 Z M291.335002,345.867164 L275.492338,339.119561 L268.892997,323.337929 L290.96764,314.372689 L297.670604,330.028306 L291.335002,345.867164 Z M329.287874,298.78835 L329.240015,298.808694 L329.202254,298.792594 L329.185423,298.832258 L329.153224,298.845869 L329.166396,298.876604 L322.739905,313.917073 L307.138149,307.580739 L300.758492,291.796034 L315.718171,285.434673 L315.852821,285.377592 L315.829111,285.321829 L315.885313,285.345393 L322.540271,269.53727 L338.292045,276.219744 L338.285898,276.225891 L338.369469,276.309316 L345.063944,292.026842 L329.287874,298.78835 Z M360.520073,222.347369 L360.520073,239.125562 C356.555053,239.164347 352.958858,240.771665 350.323366,243.356078 L338.665847,231.698558 L345.280117,215.881947 L360.520073,222.347369 Z M345.199327,215.463505 L345.146784,215.441551 L345.132001,215.47697 L322.948028,206.358785 L329.408035,191.334855 L345.19757,184.567786 L351.676751,200.029184 L351.683776,200.046015 L345.147662,215.441551 L345.199327,215.463505 Z M360.520073,177.711145 L345.319634,184.160029 L338.666286,168.538954 L350.397278,156.807962 C353.026037,159.34993 356.592082,160.927538 360.520073,160.96603 L360.520073,177.711145 Z M345.033355,107.992594 L338.381032,123.900388 L322.55037,130.581251 L316.047333,115.030867 L322.896217,99.0020344 L345.033355,107.992594 Z M315.718171,70.1401244 L315.852821,70.0830443 L315.829257,70.0274277 L315.885166,70.0509916 L322.575836,54.1970582 L322.633063,54.2210611 L322.673458,54.1247567 L338.381032,61.0418441 L345.063944,76.7322942 L329.287874,83.4938017 L329.240015,83.5141456 L329.202254,83.4980461 L329.185423,83.5377095 L329.153224,83.5513209 L329.166396,83.5820563 L322.739905,98.6226711 L307.138149,92.286191 L300.758492,76.5014855 L315.718171,70.1401244 Z M291.411987,54.1916429 L291.434673,54.244625 L291.445503,54.2399415 L300.379422,76.3447347 L284.339173,83.1656641 L268.91217,76.8220124 L275.759297,60.7974241 L291.411987,54.1916429 Z M263.581617,49.161566 L275.288313,60.8681156 L275.334124,60.9767142 L275.37086,60.9612001 L268.641551,76.710633 L268.599839,76.693509 L268.589008,76.7195609 L253.385057,70.1704208 L253.385057,53.3919356 C257.34993,53.3531504 260.946125,51.7458324 263.581617,49.161566 L263.581617,49.161566 Z M242.969543,49.2338675 C245.598302,51.7758361 249.164347,53.3534431 253.092338,53.3919356 L253.092338,70.0710428 L237.891753,76.5857885 L231.238551,60.9648591 L242.969543,49.2338675 Z M208.286923,70.141588 L208.423037,70.0878741 L208.398595,70.0261105 L208.457431,70.0509916 L215.189082,54.0998756 L230.953297,61.0418441 L237.636209,76.7322942 L221.860139,83.4938017 L221.81228,83.5141456 L221.774519,83.4980461 L221.757688,83.5377095 L221.725488,83.5513209 L221.738661,83.5820563 L215.31217,98.6226711 L199.710413,92.286191 L193.173421,76.1123161 L208.286923,70.141588 Z M114.252089,38.7579071 L131.030428,38.7579071 C131.06936,42.7435638 132.69307,46.3565898 135.301046,48.9957409 L123.6185,60.6696524 L107.849455,53.9486864 L107.850479,53.9461983 L107.827794,53.936685 L114.252089,38.7579071 Z M92.1535895,47.6742627 L92.1699817,47.6675302 L107.445064,54.0932894 L107.444625,54.0941676 L107.462481,54.1016319 L100.781178,69.8579437 L85.6078156,75.7710062 L76.8449909,54.0893377 L92.1535895,47.6742627 Z M53.1636151,38.7579071 L69.9384413,38.7579071 L69.9428321,38.7598097 L76.4411855,53.9223417 L60.590472,60.6118405 L48.9332455,48.9544676 C51.5175119,46.3189755 53.1248299,42.7227808 53.1636151,38.7579071 L53.1636151,38.7579071 Z M38.5295865,70.1581266 L38.5295865,53.3919356 C42.4946067,53.3531504 46.090655,51.7458324 48.7261471,49.161566 L60.4199634,60.8553824 L53.9378558,76.2558946 L38.5295865,70.1581266 Z M53.8974607,77.0902891 L53.9031687,77.0926308 L54.0965093,76.6335016 L68.9579802,82.5148042 L75.959517,98.8012294 L53.9573216,107.705584 L47.3723235,92.3409294 L47.3698353,92.335075 L53.8974607,77.0902891 Z M38.5295865,114.626769 L53.7459788,108.105291 L60.383959,123.97869 L48.7999122,135.707486 C46.1579802,133.080776 42.5314892,131.444186 38.5295865,131.405108 L38.5295865,114.626769 Z M38.5295865,160.96603 C42.4946067,160.927245 46.090655,159.319927 48.7261471,156.73566 L60.4161581,168.425525 L53.9570289,183.669726 L38.5295865,177.676897 L38.5295865,160.96603 Z M53.8989243,184.547589 L53.9024369,184.549052 L54.1158288,184.04543 L68.9282693,189.7994 L68.9389535,189.803498 L75.994936,206.441186 L53.8951189,215.495119 L53.8772631,215.452821 L53.8752141,215.453699 L47.3600293,200.031819 L53.8989243,184.547589 Z M38.5295865,222.347223 L53.7374899,215.874043 L60.4340139,231.715243 L48.7526381,243.381837 C46.1146579,240.782349 42.507779,239.164493 38.5295865,239.125562 L38.5295865,222.347223 Z M38.5295865,285.46453 L38.5295865,268.686484 C42.4946067,268.647698 46.090655,267.040381 48.7261471,264.456114 L60.4225979,276.152419 L53.8757995,291.625379 L38.5295865,285.46453 Z M53.9084376,292.298192 L53.9088767,292.298485 L53.9702012,292.153736 L54.01206,292.055529 L54.0117673,292.055382 L54.0310867,292.009718 L69.1296597,298.094168 L75.996985,314.109096 L53.9292206,323.079458 L53.9025832,323.015646 L53.9015587,323.016085 L47.3654446,307.618793 L53.9084376,292.298192 Z M38.5295865,329.907559 L53.773787,323.466286 L60.383959,339.273238 L48.7999122,351.002034 C46.1579802,348.375324 42.5314892,346.738734 38.5295865,346.699656 L38.5295865,329.907559 Z M69.9050714,361.333831 L53.1636151,361.333831 C53.1252689,357.405693 51.5473692,353.839356 49.0051079,351.210889 L60.6340871,339.436429 L76.3579071,346.133538 L69.9050714,361.333831 Z M92.1701281,352.57086 L76.7382949,346.008694 L83.1397585,330.004596 L83.1296597,330.000644 L76.3835199,314.268042 L92.1704208,307.851065 L107.769543,314.186374 L100.933685,330.18491 L100.833428,330.226915 L100.874116,330.324391 L100.832843,330.420988 L100.932367,330.463432 L107.440527,346.026257 L92.1701281,352.57086 Z M131.030428,361.333831 L114.252089,361.333831 L107.875653,346.117292 L123.603571,339.479751 L135.260944,351.137124 C132.676531,353.772616 131.069213,357.368664 131.030428,361.333831 L131.030428,361.333831 Z M177.332806,361.333831 L160.59135,361.333831 C160.553004,357.405693 158.975104,353.839356 156.432843,351.210889 L168.061969,339.436429 L183.785203,346.133392 L183.778031,346.151687 L177.332806,361.333831 Z M199.60401,352.568079 L184.150516,346.007669 L190.495631,330.095485 L190.489484,330.092997 L190.49607,330.090216 L183.768664,314.279751 L199.598156,307.851065 L215.151467,314.167786 L208.313121,330.110706 L208.263798,330.225891 L208.261164,330.226915 L208.262188,330.229404 L208.255456,330.245064 L208.271701,330.252089 L214.831379,345.938002 L199.60401,352.568079 Z M242.895631,350.930172 L231.238112,339.272653 L237.875799,323.399839 L253.092338,329.921171 L253.092338,346.699656 C249.127318,346.738441 245.531123,348.345759 242.895631,350.930172 L242.895631,350.930172 Z M284.760542,361.333831 L268.019085,361.333831 C267.980593,357.405693 266.402839,353.839356 263.860578,351.210889 L275.489704,339.436429 L291.213377,346.133538 L284.760542,361.333831 Z M307.041259,352.564127 L307.000424,352.58169 L291.601815,345.988203 L297.995229,330.004596 L297.975324,329.996546 L291.238844,314.262627 L307.025891,307.851065 L322.625013,314.186374 L315.789155,330.185057 L315.688899,330.226915 L315.729587,330.324244 L315.688313,330.420988 L315.787838,330.463432 L322.295997,346.026257 L307.041259,352.564127 Z M345.885898,361.333831 L329.107559,361.333831 L322.731123,346.117439 L338.459041,339.479751 L350.116414,351.137124 C347.532001,353.772616 345.924683,357.368664 345.885898,361.333831 L345.885898,361.333831 Z M360.520073,346.699656 C356.555053,346.738441 352.958858,348.345759 350.323366,350.930172 L338.665847,339.272653 L345.303535,323.399839 L360.520073,329.921171 L360.520073,346.699656 Z M392.188277,361.333831 L375.44682,361.333831 C375.408328,357.405693 373.830721,353.839502 371.28846,351.210889 L382.949052,339.449894 L398.628525,346.128269 L392.188277,361.333831 Z M376.028891,323.465262 L382.722049,339.263139 L371.083117,351.002181 C368.441186,348.37547 364.814694,346.738734 360.812792,346.699656 L360.812792,329.921464 L376.028891,323.465262 Z M382.714877,276.161493 L376.042356,291.908291 L360.812792,285.464969 L360.812792,268.686484 C364.777666,268.647698 368.37386,267.040381 371.009352,264.456114 L382.714877,276.161493 Z M392.188277,253.759737 L375.44682,253.759737 C375.408181,249.813304 373.815792,246.232331 371.252602,243.600205 L382.917146,231.862334 L398.641112,238.559444 L392.188277,253.759737 Z M382.917439,124.141881 L398.635697,130.836648 L392.18813,146.039283 L375.44682,146.039283 C375.408328,142.111145 373.830721,138.544954 371.288313,135.916341 L382.917439,124.141881 Z M376.046015,76.6152067 L360.812792,70.1704208 L360.812792,53.3919356 C364.777666,53.3531504 368.37386,51.7458324 371.009352,49.161566 L382.707413,60.8594804 L376.046015,76.6152067 Z M375.44682,38.7579071 L392.221354,38.7579071 L392.226037,38.7598097 L398.678727,53.9421003 L382.934563,60.6620417 L382.915829,60.653992 L371.216451,48.9544676 C373.800717,46.3189755 375.408035,42.7227808 375.44682,38.7579071 L375.44682,38.7579071 Z M360.666432,24.1219759 C368.655895,24.1219759 375.156004,30.6219393 375.156004,38.6115477 C375.156004,46.6010099 368.655895,53.1011196 360.666432,53.1011196 C352.676824,53.1011196 346.176861,46.6010099 346.176861,38.6115477 C346.176861,30.6219393 352.676824,24.1219759 360.666432,24.1219759 L360.666432,24.1219759 Z M350.116414,28.2684815 C347.532001,30.9039737 345.924683,34.5001683 345.885898,38.4651884 L329.107559,38.4651884 L322.731123,23.2487962 L338.459041,16.6111087 L350.116414,28.2684815 Z M307.00906,47.6742627 L307.025891,47.6673838 L322.280629,54.143637 L315.672506,69.8023271 L315.652162,69.850333 L300.648723,76.2301354 L291.700315,54.0893377 L307.00906,47.6742627 Z M275.489704,16.5677863 L291.213377,23.2648957 L284.760542,38.4651884 L268.019085,38.4651884 C267.980593,34.5370509 266.402839,30.9708599 263.860578,28.3422466 L275.489704,16.5677863 Z M253.238697,24.1219759 C261.22816,24.1219759 267.728269,30.6219393 267.728269,38.6115477 C267.728269,46.6010099 261.22816,53.1011196 253.238697,53.1011196 C245.249089,53.1011196 238.749126,46.6010099 238.749126,38.6115477 C238.749126,30.6219393 245.249089,24.1219759 253.238697,24.1219759 L253.238697,24.1219759 Z M221.679971,38.7579071 L238.458163,38.7579071 C238.497241,42.7598097 240.133977,46.3865935 242.760981,49.0285254 L231.032477,60.7570289 L215.302949,53.8301354 L215.303827,53.8280864 L215.28524,53.8203293 L221.679971,38.7579071 Z M199.598156,47.6673838 L214.852894,54.143637 L208.244771,69.8023271 L208.223696,69.8517966 L193.063798,75.8411123 L184.27258,54.0893377 L199.581325,47.6742627 L199.598156,47.6673838 Z M168.061969,16.5677863 L183.785642,23.2648957 L177.332806,38.4651884 L160.59135,38.4651884 C160.553004,34.5370509 158.975104,30.9708599 156.432843,28.3422466 L168.061969,16.5677863 Z M145.810962,24.1219759 C153.800424,24.1219759 160.300534,30.6219393 160.300534,38.6115477 C160.300534,46.6010099 153.800424,53.1011196 145.810962,53.1011196 C137.821354,53.1011196 131.32139,46.6010099 131.32139,38.6115477 C131.32139,30.6219393 137.821354,24.1219759 145.810962,24.1219759 L145.810962,24.1219759 Z M135.260944,28.2684815 C132.676531,30.9039737 131.069213,34.5001683 131.030428,38.4651884 L114.252089,38.4651884 L107.875653,23.2486498 L123.603571,16.6111087 L135.260944,28.2684815 Z M92.2620417,30.0883132 L92.2630662,30.0908013 L107.605913,23.3622247 L113.996107,38.6115477 L107.557907,53.8231101 L92.1775924,47.353004 L92.175397,47.3478814 L92.1702744,47.3500768 L92.1651518,47.3478814 L92.1629565,47.353004 L76.717951,53.8253055 L70.2043761,38.6270618 L70.1793487,38.5683718 L76.6248664,23.3852031 L92.2591145,30.0953385 L92.2620417,30.0883132 Z M60.6340871,16.5677863 L76.3579071,23.2648957 L69.9050714,38.4651884 L53.1636151,38.4651884 C53.1252689,34.5370509 51.5473692,30.9708599 49.0051079,28.3422466 L60.6340871,16.5677863 Z M38.3832272,24.1219759 C46.3726894,24.1219759 52.8727991,30.6219393 52.8727991,38.6115477 C52.8727991,46.6010099 46.3726894,53.1011196 38.3832272,53.1011196 C30.3936187,53.1011196 23.8936553,46.6010099 23.8936553,38.6115477 C23.8936553,30.6219393 30.3936187,24.1219759 38.3832272,24.1219759 L38.3832272,24.1219759 Z M23.602693,38.4651884 L6.82435419,38.4651884 L0.447918039,23.2486498 L16.1758361,16.6111087 L27.8332089,28.2684815 C25.2487962,30.9039737 23.6414782,34.5001683 23.602693,38.4651884 L23.602693,38.4651884 Z M28.1140724,49.2338675 C30.7428321,51.7758361 34.3088767,53.3534431 38.2368679,53.3919356 L38.2368679,70.1585657 L23.0365752,76.5859349 L16.3830809,60.9648591 L28.1140724,49.2338675 Z M29.7184632,92.3254153 L29.7203659,92.3210245 L29.7158288,92.3191218 L23.1546872,76.8539188 L38.3826418,70.4146945 L53.824281,76.5256348 L53.7404171,76.7249762 L53.7361727,76.7232199 L47.0598463,92.3156092 L47.0457958,92.32161 L53.6845079,107.81228 L53.6325503,107.833941 L53.6329894,107.835112 L38.4262569,114.352492 L38.3400512,114.352492 L23.1340505,107.835551 L29.7158288,92.3317087 L29.7203659,92.3298061 L29.7184632,92.3254153 Z M38.3832272,131.69607 C46.3726894,131.69607 52.8727991,138.196034 52.8727991,146.185642 C52.8727991,154.175104 46.3726894,160.675214 38.3832272,160.675214 C30.3936187,160.675214 23.8936553,154.175104 23.8936553,146.185642 C23.8936553,138.196034 30.3936187,131.69607 38.3832272,131.69607 L38.3832272,131.69607 Z M23.602693,146.039283 L6.82435419,146.039283 L0.447918039,130.822744 L16.1758361,124.185203 L27.8332089,135.842576 C25.2487962,138.478068 23.6414782,142.074263 23.602693,146.039283 L23.602693,146.039283 Z M28.1140724,156.807962 C30.7428321,159.34993 34.3088767,160.927538 38.2368679,160.96603 L38.2368679,177.645137 L23.0364288,184.159737 L16.3830809,168.538954 L28.1140724,156.807962 Z M29.7180241,200.046601 L29.7203659,200.041478 L29.7149506,200.039283 L23.1702012,184.420842 L38.3425393,177.91839 L53.8427223,183.939466 L53.7328064,184.198814 L53.7291475,184.197205 L47.0421368,200.031965 L47.0550165,200.03738 L47.0460885,200.041039 L53.621427,215.605327 L38.4265496,222.072945 L38.3400512,222.072945 L23.1340505,215.556004 L29.7153897,200.052894 L29.7199268,200.051138 L29.7180241,200.046601 Z M38.3832272,239.416524 C46.3726894,239.416524 52.8727991,245.916487 52.8727991,253.906096 C52.8727991,261.895558 46.3726894,268.395668 38.3832272,268.395668 C30.3936187,268.395668 23.8936553,261.895558 23.8936553,253.906096 C23.8936553,245.916487 30.3936187,239.416524 38.3832272,239.416524 L38.3832272,239.416524 Z M23.602693,253.759737 L6.82435419,253.759737 L0.447918039,238.543198 L16.1758361,231.905657 L27.8332089,243.56303 C25.2487962,246.198522 23.6414782,249.794716 23.602693,253.759737 L23.602693,253.759737 Z M28.0779217,264.492997 C30.7100476,267.055602 34.2907281,268.647845 38.2368679,268.686484 L38.2368679,285.460139 L23.0365752,291.880483 L16.3625906,276.211255 L28.0779217,264.492997 Z M29.7184632,307.619963 L29.7203659,307.615573 L29.7158288,307.61367 L23.1608342,292.145832 L38.3770801,285.718756 L53.7543213,291.892192 L53.7521259,291.897461 L53.7595902,291.900388 L53.7016319,292.03738 L47.0513575,307.608986 L47.0563337,307.611182 L47.0459422,307.615573 L53.6602122,323.196546 L38.3942042,329.64704 L38.3400512,329.64704 L23.1340505,323.130099 L29.7158288,307.626257 L29.7203659,307.624354 L29.7184632,307.619963 Z M38.3832272,375.969762 C30.3936187,375.969762 23.8936553,369.469652 23.8936553,361.48019 C23.8936553,353.490582 30.3936187,346.990618 38.3832272,346.990618 C46.3726894,346.990618 52.8727991,353.490582 52.8727991,361.48019 C52.8727991,369.469652 46.3726894,375.969762 38.3832272,375.969762 L38.3832272,375.969762 Z M28.0830443,372.072067 C30.7145847,374.631892 34.2932162,376.222086 38.2368679,376.260578 L38.2368679,393.023403 L23.0399415,399.462627 L16.3703476,383.803644 L28.0830443,372.072067 Z M6.82435419,361.62655 L23.602693,361.62655 C23.6416246,365.613085 25.2660666,369.226696 27.8750677,371.865993 L16.1942774,383.56581 L0.382349067,376.80079 L6.82435419,361.62655 Z M27.8332089,351.137124 C25.2487962,353.772616 23.6414782,357.368664 23.602693,361.333831 L6.82435419,361.333831 L0.447918039,346.117292 L16.1758361,339.479751 L27.8332089,351.137124 Z M60.590472,383.480483 L48.9332455,371.82311 C51.5175119,369.187618 53.1248299,365.59157 53.1636151,361.62655 L69.9384413,361.62655 L69.9426857,361.628306 L76.3687377,376.82172 L60.590472,383.480483 Z M92.175397,370.216524 L92.1711526,370.21828 L92.1658836,370.216085 L92.1635419,370.2215 L76.6727259,376.712975 L76.6453568,376.724391 L70.1794951,361.436575 L76.5758361,346.369616 L76.5913502,346.375763 L76.6294036,346.280483 L92.1645664,352.886557 L92.1664691,352.890801 L92.1705671,352.889045 L92.1710062,352.889191 L92.1711526,352.888752 L107.621281,346.267311 L113.996107,361.48019 L107.520146,376.734636 L92.1772997,370.220915 L92.175397,370.216524 Z M156.360981,371.82311 C158.945247,369.187618 160.552565,365.59157 160.59135,361.62655 L177.36603,361.62655 L177.370567,361.628452 L183.805547,376.817768 L168.018207,383.480483 L156.360981,371.82311 Z M214.963103,376.698924 L199.530977,370.147296 L199.529074,370.142905 L199.52483,370.144808 L199.520439,370.142905 L199.518683,370.147296 L184.075287,376.704193 L177.632404,361.49629 L177.60723,361.436575 L184.036063,346.292777 L184.036648,346.29307 L184.042064,346.279605 L199.614402,352.890509 L199.618353,352.881142 L214.944222,346.208181 L214.960907,346.247991 L215.028965,346.219598 L221.416963,361.463505 L221.423988,361.480337 L214.963103,376.698924 Z M238.458163,361.333831 L221.679824,361.333831 L215.303388,346.117439 L231.031306,339.479751 L242.688679,351.137124 C240.104266,353.772616 238.496948,357.368664 238.458163,361.333831 L238.458163,361.333831 Z M253.238697,375.969762 C245.249089,375.969762 238.749126,369.469652 238.749126,361.48019 C238.749126,353.490582 245.249089,346.990618 253.238697,346.990618 C261.22816,346.990618 267.728269,353.490582 267.728269,361.48019 C267.728269,369.469652 261.22816,375.969762 253.238697,375.969762 L253.238697,375.969762 Z M231.238551,383.833502 L242.969543,372.10251 C245.598302,374.644479 249.164347,376.222086 253.092338,376.260578 L253.092338,393.025452 L237.887947,399.444918 L231.238551,383.833502 Z M275.445942,383.480483 L263.788716,371.82311 C266.372982,369.187618 267.9803,365.59157 268.019085,361.62655 L284.793765,361.62655 L284.798302,361.628452 L291.228745,376.819671 L275.445942,383.480483 Z M307.03116,370.216524 L307.026623,370.218427 L307.021354,370.216085 L307.019158,370.2215 L291.497314,376.703169 L285.034965,361.436429 L291.431306,346.369616 L291.446674,346.375763 L291.49307,346.259846 L306.984764,352.893289 L307.003937,352.84865 L307.021939,352.890801 L322.476751,346.267311 L328.844698,361.463505 L328.851723,361.480337 L322.375617,376.73449 L307.032916,370.221061 L307.03116,370.216524 Z M371.216451,371.82311 C373.800717,369.187618 375.408035,365.59157 375.44682,361.62655 L392.221647,361.62655 L392.226037,361.628306 L398.710487,376.863139 L382.921829,383.528635 L371.216451,371.82311 Z M399.091314,377.010377 L392.462554,361.436722 L399.010523,345.97708 L398.9833,345.965518 L398.98491,345.961859 L382.992082,339.15015 L376.22311,323.172982 L376.165884,323.038185 L376.162664,323.039502 L369.655821,307.636209 L369.649382,307.620695 L376.289704,292.077922 L376.288679,292.077483 L383.034819,276.156517 L398.858456,269.52966 L398.862408,269.539173 L399.131562,269.423842 L392.487581,253.92161 L392.462554,253.862774 L399.00101,238.460798 L398.961054,238.44382 L398.98491,238.387764 L382.943344,231.555419 L376.263066,215.636795 L376.265701,215.63577 L369.647625,200.04221 L376.210523,184.573494 L376.210962,184.573641 L383.045649,168.431087 L398.984764,161.704413 L398.979934,161.692997 L399.037307,161.668701 L392.4627,146.141881 L399.017841,130.685606 L398.9833,130.671116 L398.98491,130.667311 L382.920073,123.825013 L376.326879,108.058163 L376.330684,108.056407 L376.256773,107.8818 L376.259407,107.880776 L369.655675,92.3413685 L369.647186,92.3210245 L376.198522,76.9938383 L376.202913,76.9955946 L382.983008,60.9595902 L398.985057,54.1295865 L398.982861,54.1247567 L399.060578,54.0916795 L392.4627,38.568079 L399.025452,23.1060959 L398.756004,22.9917892 L398.754541,22.9950091 L382.920073,16.2509184 L376.298339,0.416011709 L376.29951,0.415426271 L376.24243,0.282532016 L376.185935,0.147003293 L376.184764,0.14758873 L376.184179,0.146271497 L376.048943,0.204229784 L375.915756,0.259846323 L375.916341,0.261017197 L360.709608,6.77839737 L360.623403,6.77839737 L345.416378,0.261163557 L345.416963,0.259846323 L345.274702,0.200424442 L345.14854,0.146271497 L345.147955,0.14758873 L345.146784,0.147003293 L345.090143,0.282532016 L345.033209,0.415426271 L345.03438,0.416011709 L338.381032,16.3262935 L322.588423,22.9913502 L322.586374,22.986813 L307.002913,29.7120234 L291.474629,23.0569191 L291.340124,22.9992536 L291.339539,23.0004244 L275.492338,16.2509184 L268.870604,0.416011709 L268.871775,0.415426271 L268.814841,0.282532016 L268.7582,0.147003293 L268.757029,0.14758873 L268.756443,0.146271497 L268.621207,0.204229784 L268.48802,0.259846323 L268.488606,0.261017197 L253.281873,6.77839737 L253.195668,6.77839737 L237.988643,0.261163557 L237.989228,0.259846323 L237.846967,0.200424442 L237.720805,0.146271497 L237.72022,0.14758873 L237.719049,0.147003293 L237.662408,0.282532016 L237.605474,0.415426271 L237.606645,0.416011709 L230.953297,16.3262935 L215.057797,23.0345262 L214.920512,23.0920454 L214.920659,23.0924844 L214.92022,23.0926308 L214.935441,23.1287816 L199.613524,29.6954848 L199.554687,29.7205123 L184.152711,23.1820563 L184.038258,23.4513575 L199.687581,30.0950457 L199.746125,29.9570289 L215.049016,23.3986681 L221.416963,38.5948628 L221.423988,38.6116941 L214.947881,53.8658471 L199.605035,47.3522722 L199.603278,47.3478814 L199.598888,47.3496378 L199.593619,47.3474424 L199.591423,47.3528577 L184.145686,53.8253055 L177.632111,38.6270618 L177.607084,38.5682254 L184.14554,23.1662495 L184.105584,23.1492719 L184.12944,23.0932162 L168.064749,16.2509184 L161.442869,0.416011709 L161.44404,0.415426271 L161.387106,0.282532016 L161.330465,0.147003293 L161.329294,0.14758873 L161.328708,0.146271497 L161.193472,0.204229784 L161.060285,0.259846323 L161.060871,0.261017197 L145.853992,6.77839737 L145.767786,6.77839737 L130.561054,0.261163557 L130.561493,0.259846323 L130.420549,0.201009879 L130.29307,0.146271497 L130.292631,0.147442371 L130.29146,0.147003293 L130.236136,0.279019393 L130.177885,0.415426271 L130.17891,0.416011709 L123.525415,16.3264398 L107.676312,23.0150604 L107.675141,23.0122795 L107.495412,23.0910209 L107.492777,23.0920454 L92.2545774,29.7748116 L76.6993633,23.0987779 L76.7018514,23.0932162 L60.6370143,16.2509184 L54.0151336,0.416011709 L54.0163044,0.415426271 L53.9579071,0.279019393 L53.9025832,0.147003293 L53.9014124,0.147442371 L53.9009733,0.146271497 L53.7670545,0.203644347 L53.6325503,0.259846323 L53.6329894,0.261017197 L38.4262569,6.77839737 L38.3400512,6.77839737 L23.1333187,0.261163557 L23.1337578,0.259846323 L22.9928138,0.201009879 L22.8653348,0.146271497 L22.8648957,0.147442371 L22.8637248,0.147003293 L22.808401,0.279019393 L22.75015,0.415426271 L22.7511745,0.416011709 L16.0976802,16.3264398 L0.216670326,23.0285254 L0.0650420783,23.0920454 L0.0651884376,23.0924844 L0.0647493597,23.0926308 L0.133538236,23.2556751 L6.56837175,38.6115477 L0.032550311,54.0072302 L0.301997805,54.1216831 L0.314731065,54.0915331 L16.0976802,61.0418441 L22.8648957,76.9300256 L22.8684083,76.9284157 L29.4005708,92.3254153 L22.864603,107.721098 L22.8650421,107.721244 L22.8648957,107.721537 L22.8637248,107.721098 L22.808401,107.853114 L22.75015,107.989521 L22.7511745,107.990106 L16.0976802,123.900534 L0.216670326,130.60262 L0.0650420783,130.66614 L0.0651884376,130.666579 L0.0647493597,130.666725 L0.133538236,130.829769 L6.56837175,146.185642 L0.032550311,161.581325 L0.301997805,161.695778 L0.314731065,161.665628 L16.0976802,168.615939 L22.8648957,184.50412 L22.9213904,184.480117 L22.9345628,184.510706 L22.8970948,184.526367 L29.4004244,200.045869 L22.864603,215.441551 L22.8650421,215.441698 L22.8648957,215.44199 L22.8637248,215.441551 L22.808401,215.573568 L22.75015,215.709974 L22.7511745,215.71056 L16.0976802,231.620988 L0.216670326,238.323074 L0.0650420783,238.386593 L0.0651884376,238.387033 L0.0647493597,238.387179 L0.133538236,238.550223 L6.56851811,253.906096 L0.116267838,269.138588 L0.114657885,269.137856 L5.85437248e-05,269.407157 L16.0575778,276.242283 L22.8648957,292.224574 L22.8744091,292.220476 L29.4005708,307.619963 L22.864603,323.015646 L22.8650421,323.015792 L22.8648957,323.016231 L22.8637248,323.015646 L22.808401,323.147662 L22.75015,323.284069 L22.7511745,323.284654 L16.0976802,339.195082 L0.216670326,345.897168 L0.0650420783,345.960688 L0.0651884376,345.961127 L0.0647493597,345.961273 L0.133538236,346.124318 L6.56837175,361.48019 L0.032550311,376.875873 L0.039575558,376.8788 L0.00562019759,376.95798 L15.9715185,383.788862 L15.9702012,383.790179 L16.1029491,383.922781 L22.7716648,399.579568 L22.8846542,399.846235 L38.3647859,393.286996 L53.604303,399.734563 L53.6031321,399.737344 L53.8724332,399.851943 L60.706974,383.784032 L60.7251226,383.741295 L76.6440395,377.02311 L76.6509184,377.039356 L92.1535895,370.542905 L92.1704208,370.536026 L107.565957,377.071994 L107.566689,377.070238 L123.482678,383.810231 L130.310487,399.825891 L130.361127,399.80423 L130.365371,399.814329 L145.793692,393.287581 L161.183227,399.798522 L161.184398,399.796034 L161.341295,399.862481 L168.172177,383.733246 L183.976934,377.063213 L183.977226,377.063944 L199.50873,370.469579 L199.524976,370.462847 L214.920512,376.998814 L214.959737,376.906462 L215.157322,376.990326 L215.170201,376.960176 L230.953297,383.910487 L237.720366,399.798668 L237.725635,399.796473 L237.738075,399.826037 L253.222598,393.288167 L268.453772,399.732075 L268.453626,399.732514 L268.722781,399.847113 L275.580446,383.741442 L291.557029,376.998961 L291.555858,376.99618 L307.025891,370.536173 L322.421427,377.071994 L322.422159,377.070238 L338.341515,383.817988 L345.157468,399.838039 L345.219671,399.811401 L345.220842,399.814329 L360.654724,393.289923 L375.898632,399.739393 L376.168225,399.853699 L382.966762,383.827501 L398.958566,377.076092 L399.093509,377.019158 L399.089996,377.010816 L399.091314,377.010377 Z" id="Fill-1" fill="#272727" mask="url(#mask-2)"></path>
            </g>
        </g>
    </g>
</svg>