<?xml version="1.0" encoding="UTF-8"?>
<svg width="198px" height="200px" viewBox="0 0 198 200" version="1.1" xmlns="http://www.w3.org/2000/svg" xmlns:xlink="http://www.w3.org/1999/xlink">
    <!-- Generator: Sketch 46.2 (44496) - http://www.bohemiancoding.com/sketch -->
    <title>Page 1</title>
    <desc>Created with Sketch.</desc>
    <defs>
        <polygon id="path-1" points="0.455543767 75.331565 75.3929443 75.331565 75.3929443 0.385251989 0.455543767 0.385251989 0.455543767 75.331565"></polygon>
        <polygon id="path-3" points="74.9372944 75.331565 0 75.331565 0 0.385251989 74.9372944 0.385251989 74.9372944 75.331565"></polygon>
        <polygon id="path-5" points="75.3931034 75.1679576 75.3931034 0.222599469 0.455755968 0.222599469 0.455755968 75.1679576 75.3931034 75.1679576"></polygon>
    </defs>
    <g id="Page-1" stroke="none" stroke-width="1" fill="none" fill-rule="evenodd">
        <g id="Desktop-HD-Copy-5" transform="translate(-350.000000, -287.000000)">
            <g id="Page-1" transform="translate(350.000000, 287.000000)">
                <g id="Group-3" transform="translate(122.015915, 124.446154)">
                    <mask id="mask-2" fill="white">
                        <use xlink:href="#path-1"></use>
                    </mask>
                    <g id="Clip-2"></g>
                    <path d="M59.3335279,58.5932095 L48.5749072,47.8345889 C50.8900265,45.3459947 52.348382,42.0520955 52.4788859,38.4239788 L67.9812732,38.4239788 L73.9770292,52.4133687 L59.3335279,58.5932095 Z M38.414695,67.9836605 L38.414695,52.4881698 C42.0428117,52.3576658 45.3361804,50.8998408 47.8247745,48.5847215 L58.621061,59.3804775 L52.5759682,73.6690716 L38.414695,67.9836605 Z M7.78870027,38.4239788 L23.290557,38.4239788 C23.4215915,42.0701326 24.8937401,45.3783554 27.2290186,47.8711936 L16.4417507,58.6611141 L1.84811671,52.4489125 L7.78870027,38.4239788 Z M37.353687,7.79745358 L37.353687,23.2998408 C33.7261008,23.4303448 30.4322016,24.8881698 27.9441379,27.2032891 L17.1839257,16.4436074 L23.3160212,1.78047745 L37.353687,7.79745358 Z M58.6322016,16.4600531 L47.8507692,27.2282228 C45.3595225,24.8982493 42.0555438,23.4308753 38.414695,23.2998408 L38.414695,7.79798408 L52.4459947,1.82503979 L58.6322016,16.4600531 Z M23.290557,37.3629708 L7.78923077,37.3629708 L1.90700265,23.3258355 L16.4348541,17.1942706 L27.1940053,27.9534218 C24.8783554,30.4425464 23.4205305,33.7359151 23.290557,37.3629708 L23.290557,37.3629708 Z M27.9807427,48.6192042 C30.4650928,50.914695 33.7441379,52.3587268 37.353687,52.4881698 L37.353687,67.9847215 L23.3303448,73.9083289 L17.1664191,59.4367109 L27.9807427,48.6192042 Z M37.884191,51.4409549 C30.414695,51.4409549 24.3377719,45.3640318 24.3377719,37.8934748 C24.3377719,30.4239788 30.414695,24.3470557 37.884191,24.3470557 C45.3542175,24.3470557 51.4311406,30.4239788 51.4311406,37.8934748 C51.4311406,45.3640318 45.3542175,51.4409549 37.884191,51.4409549 L37.884191,51.4409549 Z M52.4788859,37.3629708 C52.3489125,33.7486472 50.9006366,30.4653581 48.5998408,27.9794164 L59.4205305,17.1725199 L73.8985146,23.3396286 L67.9446684,37.3629708 L52.4788859,37.3629708 Z M75.2666844,22.8324668 L75.2284881,22.8165517 L75.2512997,22.7624403 L59.6364456,16.1115119 L52.9945358,0.397984085 L52.016817,0.81071618 L52.0327321,0.847851459 L37.885252,6.87013263 L23.7255703,0.801167109 L23.7271618,0.797453581 L23.2385676,0.593209549 L22.7542175,0.385251989 L22.752626,0.389496021 L22.748382,0.387904509 L22.5478515,0.867480106 L22.3367109,1.36084881 L22.3409549,1.36297082 L16.151565,16.1624403 L1.06190981,22.5306101 L0.519204244,22.7581963 L0.519734748,22.7597878 L0.51867374,22.7603183 L0.766419098,23.3475862 L6.86137931,37.8929443 L0.87198939,52.0335279 L0.870928382,52.0329973 L0.455543767,53.0091247 L16.1138992,59.6743767 L22.752626,75.2605836 L22.8056764,75.2383024 L22.821061,75.2749072 L37.882069,68.9131034 L52.1621751,74.6467905 L52.0475862,74.917878 L53.024244,75.3316711 L59.681008,59.5985146 L74.3950663,53.388435 L74.417878,53.4420159 L75.3929443,53.0239788 L68.890557,37.8510345 L75.2666844,22.8324668 Z" id="Fill-1" fill="#272727" mask="url(#mask-2)"></path>
                </g>
                <g id="Group-6" transform="translate(0.000000, 124.446154)">
                    <mask id="mask-4" fill="white">
                        <use xlink:href="#path-3"></use>
                    </mask>
                    <g id="Clip-5"></g>
                    <path d="M58.8784085,58.5932095 L48.1197878,47.8345889 C50.4349072,45.3459947 51.8932626,42.0520955 52.0232361,38.4239788 L67.5261538,38.4239788 L73.5213793,52.4138992 L58.8784085,58.5932095 Z M37.9595756,67.9836605 L37.9595756,52.4881698 C41.5876923,52.3576658 44.881061,50.8998408 47.3696552,48.5847215 L58.1659416,59.3804775 L52.1208488,73.6690716 L37.9595756,67.9836605 Z M7.3335809,38.4239788 L22.8349072,38.4239788 C22.9659416,42.0701326 24.4386207,45.3783554 26.7738992,47.8711936 L15.9866313,58.6611141 L1.39299735,52.4489125 L7.3335809,38.4239788 Z M36.8985676,7.79745358 L36.8985676,23.2998408 C33.2709814,23.4303448 29.9770822,24.8881698 27.4890186,27.2032891 L16.7288064,16.4436074 L22.8603714,1.78047745 L36.8985676,7.79745358 Z M58.1765517,16.4605836 L47.3956499,27.2282228 C44.9044032,24.8982493 41.6004244,23.4308753 37.9595756,23.2998408 L37.9595756,7.79798408 L51.9908753,1.82557029 L58.1765517,16.4605836 Z M22.8349072,37.3629708 L7.33411141,37.3629708 L1.45188329,23.3258355 L15.9797347,17.1942706 L26.7388859,27.9534218 C24.4232361,30.4420159 22.9654111,33.7359151 22.8349072,37.3629708 L22.8349072,37.3629708 Z M27.5256233,48.6197347 C30.0099735,50.914695 33.2890186,52.3587268 36.8985676,52.4881698 L36.8985676,67.9847215 L22.874695,73.9083289 L16.7112997,59.4367109 L27.5256233,48.6197347 Z M37.4290716,51.4409549 C29.9595756,51.4409549 23.8826525,45.3640318 23.8826525,37.8934748 C23.8826525,30.4239788 29.9595756,24.3470557 37.4290716,24.3470557 C44.8985676,24.3470557 50.9760212,30.4239788 50.9760212,37.8934748 C50.9760212,45.3640318 44.8985676,51.4409549 37.4290716,51.4409549 L37.4290716,51.4409549 Z M52.0232361,37.3629708 C51.8932626,33.7486472 50.4455172,30.4648276 48.1447215,27.9794164 L58.9648806,17.1725199 L73.4433952,23.3396286 L67.4895491,37.3629708 L52.0232361,37.3629708 Z M74.8110345,22.8324668 L74.7728382,22.8165517 L74.7961804,22.7624403 L59.1813263,16.1115119 L52.5388859,0.397984085 L51.5616976,0.81071618 L51.5776127,0.847851459 L37.4296021,6.87013263 L23.2699204,0.801167109 L23.2720424,0.797453581 L22.7829178,0.593209549 L22.2990981,0.385251989 L22.2969761,0.389496021 L22.2932626,0.387904509 L22.0927321,0.867480106 L21.881061,1.36084881 L21.885305,1.36297082 L15.6964456,16.1624403 L0.607320955,22.5306101 L0.0640848806,22.7581963 L0.0646153846,22.7597878 L0.0630238727,22.7603183 L0.312891247,23.3512997 L6.40625995,37.8929443 L0.416870027,52.0335279 L0.415809019,52.0329973 L-0.000106100796,53.0091247 L15.6593103,59.6743767 L22.2975066,75.2605836 L22.350557,75.2383024 L22.3659416,75.2749072 L37.4269496,68.9131034 L51.7070557,74.6467905 L51.5924668,74.917878 L52.5691247,75.3316711 L59.2258886,59.5985146 L73.9394164,53.388435 L73.9622281,53.4420159 L74.9372944,53.0239788 L68.4354377,37.8510345 L74.8110345,22.8324668 Z" id="Fill-4" fill="#272727" mask="url(#mask-4)"></path>
                </g>
                <g id="Group-9" transform="translate(122.015915, 0.308223)">
                    <mask id="mask-6" fill="white">
                        <use xlink:href="#path-5"></use>
                    </mask>
                    <g id="Clip-8"></g>
                    <path d="M7.78891247,38.2613263 L23.2902387,38.2613263 C23.4212732,41.9074801 24.8934218,45.2151724 27.2292308,47.7080106 L16.4419629,58.497931 L1.84832891,52.2857294 L7.78891247,38.2613263 Z M37.3538992,7.63374005 L37.3538992,23.1366578 C33.726313,23.2666313 30.4324138,24.7249867 27.9443501,27.0401061 L17.1841379,16.2804244 L23.3162334,1.61782493 L37.3538992,7.63374005 Z M58.6318833,16.29687 L47.8509814,27.0650398 C45.3592042,24.7350663 42.0552255,23.2671618 38.4149072,23.1366578 L38.4149072,7.63427056 L52.4456764,1.66238727 L58.6318833,16.29687 Z M59.3337401,58.4300265 L48.5745889,47.6714058 C50.8902387,45.1828117 52.3485942,41.8889125 52.4785676,38.2613263 L67.9809549,38.2613263 L73.9767109,52.2507162 L59.3337401,58.4300265 Z M38.4149072,67.821008 L38.4149072,52.3249867 C42.0424934,52.1944828 45.3363926,50.7366578 47.8244562,48.421008 L58.6212732,59.2178249 L52.5756499,73.5058886 L38.4149072,67.821008 Z M27.9809549,48.4565517 C30.4647745,50.7515119 33.7443501,52.1950133 37.3538992,52.3249867 L37.3538992,67.822069 L23.3300265,73.7451459 L17.1661008,59.2735279 L27.9809549,48.4565517 Z M59.4202122,17.0093369 L73.8987268,23.1759151 L67.9448806,37.2003183 L52.4785676,37.2003183 C52.3491247,33.5854642 50.9008488,30.3016446 48.5995225,27.8162334 L59.4202122,17.0093369 Z M37.8844032,24.1838727 C45.3544297,24.1838727 51.4313528,30.2607958 51.4313528,37.7308223 C51.4313528,45.2003183 45.3544297,51.2772414 37.8844032,51.2772414 C30.4149072,51.2772414 24.3379841,45.2003183 24.3379841,37.7308223 C24.3379841,30.2607958 30.4149072,24.1838727 37.8844032,24.1838727 L37.8844032,24.1838727 Z M23.2902387,37.2003183 L7.78944297,37.2003183 L1.90721485,23.1626525 L16.4350663,17.031618 L27.1942175,27.7907692 C24.8785676,30.2788329 23.4207427,33.5727321 23.2902387,37.2003183 L23.2902387,37.2003183 Z M0.871140584,51.8698143 L0.455755968,52.8459416 L16.1141114,59.5111936 L22.7528382,75.097931 L22.8058886,75.0751194 L22.8212732,75.1117241 L37.8822812,68.7504509 L52.1623873,74.4830769 L52.0472679,74.754695 L53.0244562,75.1679576 L59.6812202,59.4353316 L74.394748,53.2257825 L74.4175597,53.2788329 L75.3931565,52.8607958 L68.8902387,37.6878515 L75.2668966,22.6687533 L75.2287003,22.6523077 L75.2515119,22.5992573 L59.6366578,15.9483289 L52.9942175,0.234801061 L52.0170292,0.64806366 L52.0324138,0.685198939 L37.8849337,6.7069496 L23.7257825,0.639045093 L23.727374,0.634270557 L23.2276393,0.425251989 L22.7544297,0.222599469 L22.7528382,0.226843501 L22.7485942,0.224721485 L22.5454111,0.710132626 L22.3363926,1.19766578 L22.3406366,1.1997878 L16.1512467,15.9997878 L0.943819629,22.4172944 L0.519416446,22.5950133 L0.51994695,22.5960743 L0.518355438,22.5966048 L0.734270557,23.1080106 L6.86159151,37.7302918 L0.871671088,51.8698143 L0.871140584,51.8698143 Z" id="Fill-7" fill="#272727" mask="url(#mask-6)"></path>
                </g>
                <path d="M7.33352785,38.5695491 L22.8348541,38.5695491 C22.9658886,42.2157029 24.4385676,45.5233952 26.7738462,48.0162334 L15.9865782,58.8061538 L1.3929443,52.5939523 L7.33352785,38.5695491 Z M36.8985146,7.94196286 L36.8985146,23.4448806 C33.2709284,23.5748541 29.9775597,25.0332095 27.4889655,27.3483289 L16.7287533,16.5886472 L22.8608488,1.92604775 L36.8985146,7.94196286 Z M58.1770292,16.6056233 L47.3955968,27.3732626 C44.9038196,25.0432891 41.6003714,23.5753846 37.9595225,23.4448806 L37.9595225,7.94249337 L51.9902918,1.97061008 L58.1770292,16.6056233 Z M58.8788859,58.7382493 L48.1197347,47.9790981 C50.4353846,45.4910345 51.8932095,42.1971353 52.023183,38.5695491 L67.5266313,38.5695491 L73.5218568,52.558939 L58.8788859,58.7382493 Z M37.9595225,68.1292308 L37.9595225,52.6332095 C41.5876393,52.5027056 44.881008,51.0448806 47.3696021,48.7292308 L58.1658886,59.5260477 L52.1207958,73.8141114 L37.9595225,68.1292308 Z M27.5261008,48.7647745 C30.0099204,51.0597347 33.2889655,52.5032361 36.8985146,52.6332095 L36.8985146,68.1302918 L22.8746419,74.0533687 L16.7112467,59.5817507 L27.5261008,48.7647745 Z M58.9648276,17.3175597 L73.4433422,23.4841379 L67.4900265,37.5085411 L52.023183,37.5085411 C51.8937401,33.893687 50.4454642,30.6098674 48.1441379,28.1244562 L58.9648276,17.3175597 Z M37.4290186,24.4920955 C44.8990451,24.4920955 50.9759682,30.5690186 50.9759682,38.0390451 C50.9759682,45.5085411 44.8990451,51.5854642 37.4290186,51.5854642 C29.9595225,51.5854642 23.8825995,45.5085411 23.8825995,38.0390451 C23.8825995,30.5690186 29.9595225,24.4920955 37.4290186,24.4920955 L37.4290186,24.4920955 Z M22.8348541,37.5085411 L7.33458886,37.5085411 L1.45183024,23.4708753 L15.9796817,17.3398408 L26.7388329,28.0984615 C24.423183,30.5870557 22.9653581,33.8809549 22.8348541,37.5085411 L22.8348541,37.5085411 Z M0.415755968,52.1780371 L0.000371352785,53.1541645 L15.6592573,59.8194164 L22.2974536,75.4061538 L22.350504,75.3833422 L22.3658886,75.4199469 L37.4274271,69.0586737 L51.7070027,74.7918302 L51.5924138,75.0629178 L52.5696021,75.4761804 L59.2258355,59.7435544 L73.9393634,53.5340053 L73.9621751,53.5870557 L74.9377719,53.1690186 L68.4353846,37.9960743 L74.8109814,22.9769761 L74.7733156,22.961061 L74.7961273,22.9074801 L59.1812732,16.2565517 L52.5388329,0.543023873 L51.5616446,0.956286472 L51.5775597,0.993421751 L37.4300796,7.01517241 L23.2703979,0.947267905 L23.2719894,0.942493369 L22.7722546,0.733474801 L22.2990451,0.530822281 L22.2974536,0.535066313 L22.2932095,0.532944297 L22.090557,1.01729443 L21.881008,1.50588859 L21.885252,1.50801061 L15.6963926,16.3080106 L0.489496021,22.7249867 L0.0640318302,22.9032361 L0.0645623342,22.9042971 L0.0629708223,22.9048276 L0.280477454,23.4194164 L6.4062069,38.0379841 L0.416286472,52.1780371 L0.415755968,52.1780371 Z" id="Fill-10" fill="#272727"></path>
                <polygon id="Fill-12" fill="#272727" points="29.9532626 99.6751194 23.5659947 84.432679 22.5877454 84.8427586 28.9293899 99.9769761 22.5553846 114.992361 23.5320424 115.407215 29.9522016 100.283077 30.1697082 100.192361 30.0811141 99.9801592 30.1712997 99.7674271"></polygon>
                <polygon id="Fill-14" fill="#272727" points="45.9499735 100.358992 52.5696021 115.528223 53.5420159 115.10382 46.9812732 100.069337 53.4141645 84.9165517 52.4375066 84.5016976 45.9542175 99.7738462 45.7361804 99.8693369 45.826366 100.075172 45.7430769 100.270928"></polygon>
                <polygon id="Fill-16" fill="#272727" points="152.424562 99.6751194 146.036764 84.432679 145.058515 84.8427586 151.40069 99.9775066 145.026684 114.992361 146.003342 115.407215 152.423501 100.283077 152.641008 100.192361 152.552414 99.9801592 152.642599 99.7674271"></polygon>
                <polygon id="Fill-18" fill="#272727" points="168.561698 100.418568 175.036499 115.52679 176.011565 115.108223 169.509178 99.935809 175.885305 84.9161804 174.908647 84.5018568 168.45878 99.6949602 168.283714 99.7697613 168.355862 99.937931 168.214218 100.271088"></polygon>
                <polygon id="Fill-20" fill="#272727" points="98.314695 46.5838196 98.1019629 46.493634 98.0096552 46.7116711 82.7035544 53.1180371 83.113634 54.096817 98.3120424 47.7350133 113.336446 54.1068966 113.750769 53.1297082 98.6181432 46.7127321 98.5268966 46.4952255"></polygon>
                <polygon id="Fill-22" fill="#272727" points="98.1046154 30.8523607 98.3088594 30.7648276 98.5173475 30.8534218 98.6096552 30.6359151 113.860584 24.0995756 113.443077 23.1245093 98.3072679 29.6109814 82.9953316 23.0958621 82.5799469 24.0725199 98.0133687 30.6390981"></polygon>
                <polygon id="Fill-24" fill="#272727" points="98.5268435 170.655438 98.3151724 170.744032 98.1019098 170.653846 98.0096021 170.871883 82.7035013 177.27878 83.1135809 178.25756 98.3119894 171.895756 113.336393 178.267639 113.750716 177.290451 98.6175597 170.872414"></polygon>
                <polygon id="Fill-26" fill="#272727" points="98.3069496 153.771512 82.9955438 147.256923 82.5801592 148.23305 98.0130504 154.799098 98.1048276 155.012891 98.3090716 154.925358 98.5170292 155.013952 98.6098674 154.796446 113.860796 148.260106 113.442759 147.284509"></polygon>
                <path d="M77.0847215,90.8197878 L91.8237135,84.9195225 L97.7632361,99.6160743 L83.3664191,105.468064 L77.0847215,90.8197878 Z M113.926101,106.764615 L135.486844,115.521114 L135.886313,114.53809 L114.343077,105.789019 L120.278886,91.8961804 L135.916552,85.1943236 L135.499045,84.2192573 L119.819469,90.9391512 L119.57809,90.8357029 L119.469867,91.0887533 L119.224775,91.1937931 L119.32504,91.4277454 L113.360053,105.389549 L98.8613793,99.5009549 L92.8088594,84.5253581 L106.997188,78.846313 L107.182334,78.9242971 L107.259788,78.7407427 L107.448647,78.6654111 L107.372255,78.4744297 L114.070398,62.6028117 L113.092679,62.1900796 L106.454483,77.9211141 L92.4115119,83.5418037 L83.8390981,62.3327851 L82.8555438,62.7301326 L91.426366,83.9359682 L76.3457294,89.9731034 L61.3918833,83.9471088 L60.9950663,84.9311936 L75.9977188,90.976817 L82.3833952,105.867533 L60.9282228,114.589019 L61.3276923,115.571512 L82.8014324,106.84313 L89.0375066,121.385836 L82.7016976,137.226684 L83.6868435,137.620849 L90.0709284,121.660637 L90.2725199,121.574164 L90.1860477,121.372573 L90.2746419,121.150822 L90.0528912,121.062228 L83.7844562,106.44366 L98.4534218,100.480796 L112.943077,106.365146 L106.586048,121.24313 L106.276233,121.372573 L106.401963,121.673899 L106.274111,121.973634 L106.582865,122.105729 L113.021061,137.500955 L113.999841,137.091936 L107.554218,121.678143 L113.926101,106.764615 Z" id="Fill-28" fill="#272727"></path>
            </g>
        </g>
    </g>
</svg>