<?xml version="1.0" encoding="utf-8"?>
<!-- Generator: Adobe Illustrator 19.0.0, SVG Export Plug-In . SVG Version: 6.00 Build 0)  -->
<svg version="1.1" id="SHOPEE" xmlns="http://www.w3.org/2000/svg" xmlns:xlink="http://www.w3.org/1999/xlink" x="0px" y="0px"
	 viewBox="0 0 336.6 499.1" style="enable-background:new 0 0 336.6 499.1;" xml:space="preserve">
<style type="text/css">
	.st0{fill:#F1592B;}
</style>
<path class="st0" d="M319,101.1h-75.3C243.6,68.8,226.1,0.3,173,0c-58.6-0.3-71.1,73.8-71.2,101.1H26.5C6.2,101,9.9,121.4,9.9,121.4
	L24.4,321c0,0-0.6,44,38.1,45.1c2.5,0,216.1-0.1,221,0c37.4-2.4,37.9-45.2,37.9-45.2L336,121.3C336,121.3,339.4,100.2,319,101.1z
	 M173.1,18.3c46.8,1.2,51.7,76.5,52,82.8H120.3C120.5,94.8,123.6,19.5,173.1,18.3z M225,292.2c-5.9,10.6-16.8,17.1-28.2,20.5
	c-25.6,7.5-53.7-0.5-74.4-16.3c-2.7-2-4.2-5.4-2.2-8.6c1.6-2.6,5.9-4.3,8.6-2.2c21.1,16.2,53.1,25.1,76.6,9.7
	c9.7-6.4,14.6-18.9,11.1-30.2c-3.3-10.6-13.5-17.9-22.8-23c-12-6.7-25.3-9.5-37.5-15.5c-10.6-5.2-21.9-12.7-27.3-23.6
	c-6.7-13.6-2.3-30.5,7.9-41.2c20.6-21.8,56.5-18.2,79.4-2.2c6.6,4.6,0.3,15.4-6.3,10.8c-11.7-8.2-27.6-13.3-41.9-11
	c-15.6,2.6-32.1,14.7-29.8,32.4c1.4,11,13.3,18.3,22.2,22.9c4.8,2.5,9.3,4.4,14.6,6c18.6,5.8,39.7,15.5,49.9,33
	C231.9,265.3,231.6,280.5,225,292.2z"/>
<g>
	<path class="st0" d="M78.4,425.5c-2.9,1.3-5.4,3.2-7.6,5.5c0-11.7,0-23.5,0-35.2c0-4.8-7.5-4.8-7.5,0c0,24.4,0,48.8,0,73.2
		c0,4.8,7.5,4.8,7.5,0c0-8.1,0-16.2,0-24.3c0,0,0-0.1,0-0.1c1.8-4.9,6.4-10.9,12.1-12.9c7-2.5,16.3,0.3,17.4,8.1
		c0.5,3.4,0.1,8.1,0.1,11.8c0,5.8,0,11.6,0,17.5c0,4.8,7.5,4.8,7.5,0c0-7.3,0-14.6,0-21.9c0-5,0.3-9.8-2.1-14.3
		C100.7,423.3,87.6,421.3,78.4,425.5z"/>
	<path class="st0" d="M142.6,423.8c-13.4,0-25.1,10.9-25.1,24.5c0,13.6,11.7,24.5,25.1,24.5c13.7,0,24.6-10.9,25.1-24.5
		C167.2,434.7,156.3,423.8,142.6,423.8z M142.6,465.2c-9.3,0-17.6-7.4-17.6-17c0-9.2,7.8-16.6,16.9-16.9c9.8-0.4,18,7.1,18.3,16.9
		C159.8,457.8,152.1,465.2,142.6,465.2z"/>
	<path class="st0" d="M202.9,423.8c-7.1,0-13.8,3.1-18.5,8.1c0-1.4,0-2.7,0-4.1c0-4.8-7.5-4.8-7.5,0c0,22.6,0,45.1,0,67.7
		c0,4.8,7.5,4.8,7.5,0c0-10.3,0-20.5,0-30.8c4.7,5,11.3,8.1,18.5,8.1c13.7,0,24.6-10.9,25.1-24.5
		C227.5,434.7,216.6,423.8,202.9,423.8z M202.9,465.2c-9.3,0-17.6-7.4-17.6-17c0-9.2,7.8-16.6,16.9-16.9c9.8-0.4,18,7.1,18.3,16.9
		C220.1,457.8,212.4,465.2,202.9,465.2z"/>
	<path class="st0" d="M260.2,423.9c-12.9,0-21.4,9.9-22.6,22.1c-0.1,0.3-0.1,0.5-0.1,0.8c-0.6,6.7,1.5,14.3,6.1,19.3
		c8.5,9.3,24.7,8.5,34.9,2.8c4.2-2.4,0.4-8.8-3.8-6.5c-7.6,4.3-21.1,5.4-26.8-2.8c-1.8-2.6-2.7-5.8-3-9c11.2,0,22.4,0,33.6,0
		c2.1,0,3.7-1.7,3.8-3.8C282.9,433.8,273.2,423.8,260.2,423.9z M260.2,431.4c7.7,0,13.2,4.8,14.4,11.7c-9.6,0-19.3,0-28.9,0
		C247.5,436.6,252.6,431.4,260.2,431.4z"/>
	<path class="st0" d="M314.5,423.6c-12.9,0-21.4,9.9-22.6,22.1c-0.1,0.3-0.1,0.5-0.1,0.8c-0.6,6.7,1.5,14.3,6.1,19.3
		c8.5,9.3,24.7,8.5,34.9,2.8c4.2-2.4,0.4-8.8-3.8-6.5c-7.6,4.3-21.1,5.4-26.8-2.8c-1.8-2.6-2.7-5.8-3-9c11.2,0,22.4,0,33.6,0
		c2.1,0,3.7-1.7,3.8-3.8C337.2,433.5,327.4,423.6,314.5,423.6z M314.5,431.1c7.7,0,13.2,4.8,14.4,11.7c-9.6,0-19.3,0-28.9,0
		C301.7,436.4,306.8,431.1,314.5,431.1z"/>
	<path class="st0" d="M28.7,426.8c-6-1.9-14.2-4.4-16.7-10.9c-2.9-7.7,3.6-14.8,10.9-16c6.7-1.1,14.3,0.7,20,4.5
		c4,2.7,7.8-3.8,3.8-6.5c-9.2-6.2-23.9-8.4-33.6-2.3c-10.5,6.6-12,22-2.8,30.2c5,4.5,11.2,6.5,17.4,8.5c9.1,3,22,10.3,16.8,21.9
		c-2.7,6.1-10,8.8-16.3,8.8c-8.7,0-15.7-4-22.7-8.7c-4-2.7-7.8,3.8-3.8,6.5C12.2,470,25,475.5,37.8,471
		c11.2-3.9,19.1-16.3,13.6-27.9C47.3,434.5,37.4,429.5,28.7,426.8z"/>
</g>
</svg>
