<?xml version="1.0" encoding="utf-8"?>
<!-- Generator: Adobe Illustrator 19.0.0, SVG Export Plug-In . SVG Version: 6.00 Build 0)  -->
<svg version="1.1" id="Layer_1" xmlns="http://www.w3.org/2000/svg" xmlns:xlink="http://www.w3.org/1999/xlink" x="0px" y="0px"
	 viewBox="0 0 1126.2 383.8" style="enable-background:new 0 0 1126.2 383.8;" xml:space="preserve">
<style type="text/css">
	.st0{fill:#F1592B;}
</style>
<g>
	<path class="st0" d="M439.2,218.6c-2.1-0.6-4.1-1.3-6.1-2c-0.9-0.3-1.8-0.7-2.6-1c-0.3-0.1-1.7-0.7-2-0.9c-2.5-1.2-5-2.5-7.3-3.9
		c-10.3-6.2-16.6-13.2-15.1-24.9c1.8-14.9,13.2-22.3,27-23.3c14-1.1,28.6,2.5,39.9,10.1c10.7,7.2,20.7-10.1,10.1-17.3
		c-23.1-15.7-60.9-19.6-82.9-0.1c-11.9,10.5-17.4,29.7-13,44.9c3.7,13.2,14.8,22.9,26.4,29.3c6.4,3.5,13.4,6.5,20.5,8.4
		c1.7,0.5,3.5,0.9,5.2,1.5c1.7,0.5,3.4,1.1,5.1,1.7c1.1,0.4,2.1,0.8,3.2,1.2c0.1,0,0.3,0.1,0.5,0.2c0.4,0.2,1.5,0.7,1.7,0.7
		c5,2.3,9.8,4.9,14.2,8c2,1.4,0.8,0.4,2.6,2c1,0.9,2,1.7,2.9,2.7c0.9,0.9,1.8,1.9,2.7,2.9c1.5,1.7,0.8,0.8,2,2.7
		c3.1,5,4.3,8.7,4.1,14.6c-0.2,6-2.4,12-5.6,15.8c-8.2,9.7-21.4,13.3-33.6,12.7c-8.7-0.4-18.1-2.3-25.8-5.6
		c-7.8-3.3-14.8-8.4-21.6-13.4c-4.3-3.2-11.2-0.7-13.7,3.6c-3,5.1-0.8,10.5,3.6,13.7c13.1,9.7,26.8,17.2,43,20
		c15.4,2.6,30.1,2.3,44.6-4.1c13.6-5.9,24.6-17.6,27.9-32.3c3.5-15.3-0.4-30-10.6-41.7C474.4,231,456.3,223.4,439.2,218.6z"/>
	<path class="st0" d="M537.1,221.7c-1.3,1-2.6,2-3.8,3.1c0-17.4,0-34.8,0-52.2c0-6.7,0-13.5,0-20.2c0-12.9-20-12.9-20,0
		c0,47.5,0,95.1,0,142.6c0,6.7,0,13.5,0,20.2c0,12.9,20,12.9,20,0c0-17.9,0-35.8,0-53.6c0-0.1,0-0.1,0.1-0.2
		c0.2-0.7,0.4-1.4,0.7-2.1c0.3-0.8,0.6-1.6,0.9-2.4c0.2-0.4,0.4-0.9,0.5-1.3c-1.1,2.9,0,0,0.3-0.6c1.2-2.5,2.5-4.9,4-7.3
		c2.1-3.3,2.5-3.9,5.7-7c4.5-4.4,10.8-7.9,17.7-8.4c8.8-0.7,16.6,0.9,23.2,5.3c0.2,0.1,0.3,0.2,0.5,0.3c0.1,0.1,0.2,0.2,0.4,0.4
		c0.4,0.4,0.9,0.8,1.3,1.2c0.6,0.6,1.2,1.2,1.8,1.8c0.1,0.2,0.6,0.8,0.9,1.1c0.6,0.8,1.1,1.7,1.6,2.5c0.4,0.6,1.7,3.7,1.4,2.7
		c0.6,1.5,1.1,3.1,1.4,4.6c0,0.2,0.1,0.4,0.1,0.6c-0.7,2.1,0.1,5.7,0.1,7.8c0,6.4,0,12.9,0,19.3c0,11.7,0,23.5,0,35.2
		c0,12.9,20,12.9,20,0c0-11.2,0-22.5,0-33.7c0-9.7,0.6-19.5,0-29.2C613.1,215.2,564.3,201.2,537.1,221.7z"/>
	<path class="st0" d="M748.9,268c-0.8-23.7-16.2-43.8-38.5-51.7c-21.6-7.7-47.8-1-62.7,16.6c-15.5,18.2-18.3,44.8-5.4,65.3
		c12.8,20.3,36.8,30.1,60.2,25.9c26.1-4.6,45.4-27.6,46.4-53.8c0-0.4,0.1-0.8,0-1.2C749,268.7,748.9,268.4,748.9,268z M704.5,303
		c-15,5.1-31.8,0.9-42.2-11.2c-10-11.7-10.8-28.7-2.7-41.6c8.1-12.8,24.2-19.4,39-16.5c17.2,3.4,30.1,17.8,30.4,35.4
		C728.7,284.3,719,298.1,704.5,303z"/>
	<path class="st0" d="M883,268c-0.8-23.7-16.2-43.8-38.5-51.7c-19.7-7-43.1-2.1-58.4,12.1c0-1.6,0-3.2,0-4.8c0-12.9-20-12.9-20,0
		c0,43.9,0,87.8,0,131.7c0,6.3,0,12.6,0,18.8c0,12.9,20,12.9,20,0c0-21.4,0-42.9,0-64.3c13.4,12.2,32.1,17.6,50.5,14.3
		c26.1-4.6,45.4-27.6,46.4-53.8c0-0.4,0.1-0.8,0-1.2C883,268.7,883,268.4,883,268z M838.5,303c-15,5.1-31.8,0.9-42.2-11.2
		c-10-11.7-10.8-28.7-2.7-41.6c8.1-12.8,24.2-19.4,39-16.5c17.2,3.4,30.1,17.8,30.4,35.4C862.8,284.3,853,298.1,838.5,303z"/>
	<path class="st0" d="M979.7,219.4c-13.9-7.5-32.4-8.4-47-2.4c-11.9,4.9-20.9,14.3-26,26.1c-2.8,6.6-4.6,13.3-5.4,20.3
		c-0.2,0.8-0.3,1.6-0.3,2.5c-1,10.4,1.3,21.6,5.5,31c8.9,20,28.7,28.4,49.6,28.9c13.4,0.3,27-2.6,38.6-9.5
		c11.1-6.5,1-23.8-10.1-17.3c-8.7,5.1-17.9,6.9-27.6,6.8c-3.4,0-7.3-0.2-9.9-0.7c-5-0.9-7.8-1.9-11.4-3.9c-0.8-0.5-1.6-1-2.4-1.5
		c-0.2-0.2-0.4-0.2-0.5-0.3c-0.1-0.1-0.2-0.2-0.3-0.3c-1.4-1.2-2.7-2.5-3.9-3.9c-0.2-0.2-0.4-0.4-0.5-0.5c0-0.1-0.1-0.2-0.3-0.4
		c-0.5-0.7-0.9-1.3-1.3-2c-0.9-1.4-1.6-3-2.4-4.5c0-0.1-0.1-0.1-0.1-0.1c0-0.1-0.1-0.2-0.1-0.3c-0.2-0.7-0.5-1.4-0.7-2.1
		c-0.5-1.5-0.9-3-1.3-4.5c-0.3-1.4-0.6-2.8-0.8-4.2c0,0,0,0,0,0c0-0.3,0-0.5-0.1-0.8c24.2,0,48.5,0,72.7,0c5.6,0,9.7-4.6,10-10
		C1004.9,247.9,995.9,228.1,979.7,219.4z M934.1,238.8C934.7,238.3,934.4,238.6,934.1,238.8L934.1,238.8z M924.3,252.5
		c0.1-0.3,0.1-0.4,0.2-0.6c0.1-0.1,0.1-0.3,0.3-0.5c1-2,2-4,3.3-5.9c0.2-0.4,1.4-1.9,1.3-1.9c0.6-0.7,1.2-1.4,1.8-2
		c0.8-0.8,1.7-1.6,2.6-2.4c0.1-0.1,0.1-0.1,0.2-0.2c0.7-0.5,1.5-1,2.2-1.5c3.9-2.4,8.8-3.9,13.8-4.2c6.4-0.4,12.1,0.1,18.1,2.5
		c-0.2,0,2.2,1.2,2.4,1.3c0.9,0.5,1.8,1.1,2.7,1.7c0,0.1,1.6,1.4,1.9,1.7c0.9,0.8,1.7,1.7,2.4,2.7c0,0,0.1,0.1,0.1,0.2
		c0.3,0.5,0.6,0.9,0.9,1.4c0.6,0.9,1.1,1.8,1.6,2.8c0.1,0.2,0.7,1.5,1,2c0.2,0.6,0.7,1.9,0.8,2.2c0.4,1.4,0.8,2.7,1.1,4.1
		c-19.9,0-39.9,0-59.8,0c0.1-0.2,0.1-0.5,0.2-0.7C923.7,254.3,924,253.4,924.3,252.5z"/>
	<path class="st0" d="M1101.9,219.4c-13.9-7.5-32.4-8.4-47-2.4c-11.9,4.9-20.9,14.3-26,26.1c-2.8,6.6-4.6,13.3-5.4,20.3
		c-0.2,0.8-0.3,1.6-0.3,2.5c-1,10.4,1.3,21.6,5.5,31c8.9,20,28.7,28.4,49.6,28.9c13.4,0.3,27-2.6,38.6-9.5
		c11.1-6.5,1-23.8-10.1-17.3c-8.7,5.1-17.9,6.9-27.6,6.8c-3.4,0-7.3-0.2-9.9-0.7c-5-0.9-7.8-1.9-11.4-3.9c-0.8-0.5-1.6-1-2.4-1.5
		c-0.2-0.2-0.4-0.2-0.5-0.3c-0.1-0.1-0.2-0.2-0.3-0.3c-1.4-1.2-2.7-2.5-3.9-3.9c-0.2-0.2-0.4-0.4-0.5-0.5c0-0.1-0.1-0.2-0.3-0.4
		c-0.5-0.7-0.9-1.3-1.3-2c-0.9-1.4-1.6-3-2.4-4.5c0-0.1-0.1-0.1-0.1-0.1c0-0.1-0.1-0.2-0.1-0.3c-0.2-0.7-0.5-1.4-0.7-2.1
		c-0.5-1.5-0.9-3-1.3-4.5c-0.3-1.4-0.6-2.8-0.8-4.2c0,0,0,0,0,0c0-0.3,0-0.5-0.1-0.8c24.2,0,48.5,0,72.7,0c5.6,0,9.7-4.6,10-10
		C1127.1,247.9,1118.1,228.1,1101.9,219.4z M1056.3,238.8C1056.9,238.3,1056.6,238.6,1056.3,238.8L1056.3,238.8z M1046.5,252.5
		c0.1-0.3,0.1-0.4,0.2-0.6c0.1-0.1,0.1-0.3,0.3-0.5c1-2,2-4,3.3-5.9c0.2-0.4,1.4-1.9,1.3-1.9c0.6-0.7,1.2-1.4,1.8-2
		c0.8-0.8,1.7-1.6,2.6-2.4c0.1-0.1,0.1-0.1,0.2-0.2c0.7-0.5,1.5-1,2.2-1.5c3.9-2.4,8.8-3.9,13.8-4.2c6.4-0.4,12.1,0.1,18.1,2.5
		c-0.2,0,2.2,1.2,2.4,1.3c0.9,0.5,1.8,1.1,2.7,1.7c0,0.1,1.6,1.4,1.9,1.7c0.9,0.8,1.7,1.7,2.4,2.7c0,0,0.1,0.1,0.1,0.1
		c0.3,0.5,0.6,0.9,0.9,1.4c0.6,0.9,1.1,1.8,1.6,2.8c0.1,0.2,0.7,1.5,1,2c0.2,0.6,0.7,1.9,0.8,2.2c0.4,1.4,0.8,2.7,1.1,4.1
		c-19.9,0-39.9,0-59.8,0c0.1-0.2,0.1-0.5,0.2-0.7C1045.9,254.3,1046.2,253.4,1046.5,252.5z"/>
</g>
<path class="st0" d="M308.9,100.9h-75.2C233.6,68.7,216.2,0.3,163.1,0c-58.5-0.3-71,73.7-71.1,100.9H16.9
	c-20.3-0.1-16.6,20.4-16.6,20.4l14.5,199.3c0,0-0.6,43.9,38,45.1c2.5,0,215.8-0.1,220.7,0c37.3-2.4,37.9-45.2,37.9-45.2l14.6-199.3
	C325.9,121.2,329.3,100.1,308.9,100.9z M163.2,18.3c46.7,1.2,51.6,76.4,52,82.6H110.5C110.7,94.7,113.8,19.5,163.2,18.3z
	 M220.9,274.4c-3,39.4-47,41.1-54.1,40.7c-33.9-0.7-54-19-54-19l0,0c-1.4-1-2.4-2.7-2.4-4.6c0-3.1,2.5-5.6,5.6-5.6
	c1.3,0,2.4,0.4,3.4,1.1l0,0c0,0,0.1,0.1,0.2,0.1c0,0,0,0,0,0c2.1,1.7,20.2,15.8,47.5,16.3c19.1-0.6,39.9-10.1,41.5-29.7
	c2.3-28.7-38.5-39.4-46.1-41.8c-7.6-2.4-48.8-13.3-47-47.4c0.8-14,13.7-38.7,47.2-39.4c29.7-0.6,45.9,13.4,45.9,13.4l0,0
	c1.1,1,1.9,2.5,1.9,4.2c0,3.1-2.5,5.6-5.6,5.6c-1.2,0-2.3-0.4-3.2-1l0,0c0,0-17.5-11.1-38.6-11.1c-23.2,0.9-34.4,16.6-35,29.9
	c0,21.5,29.2,30.7,34.4,32.8C190.5,227.8,223.7,238.4,220.9,274.4z"/>
</svg>
