<?xml version="1.0" encoding="UTF-8"?>
<svg width="54px" height="54px" viewBox="0 0 54 54" version="1.1" xmlns="http://www.w3.org/2000/svg" xmlns:xlink="http://www.w3.org/1999/xlink">
    <!-- Generator: Sketch 46.2 (44496) - http://www.bohemiancoding.com/sketch -->
    <title>Page 1</title>
    <desc>Created with Sketch.</desc>
    <defs></defs>
    <g id="Page-1" stroke="none" stroke-width="1" fill="none" fill-rule="evenodd">
        <g id="shopee-design-confirm" transform="translate(-475.000000, -709.000000)">
            <g id="Page-1" transform="translate(475.000000, 717.000000)">
                <path d="M50.1829,3.541 L2.2869,3.541 C1.7339,3.541 1.2869,3.094 1.2869,2.541 C1.2869,1.988 1.7339,1.541 2.2869,1.541 L50.1829,1.541 C50.7359,1.541 51.1829,1.988 51.1829,2.541 C51.1829,3.094 50.7359,3.541 50.1829,3.541 Z" id="Fill-1" fill="#FF5722"></path>
                <polygon id="Fill-3" fill="#FF5722" points="0.001 4.4976 4.442 4.4976 4.442 0.0556 0.001 0.0556"></polygon>
                <polygon id="Fill-5" fill="#FF5722" points="49.242 5.0266 53.683 5.0266 53.683 0.5856 49.242 0.5856"></polygon>
                <path d="M38.459,6.8281 C34.851,3.6631 31.179,2.7131 26.305,2.7131 C20.607,2.7131 13.138,5.2451 13.138,12.4621 C13.138,19.5531 20.164,21.7051 26.052,22.1471 C30.482,22.4011 32.255,23.2871 32.255,25.4391 C32.255,27.7191 29.533,29.2381 26.621,29.1751 C23.14,29.1111 18.075,27.2751 15.859,24.8071 L12.062,30.3141 C16.619,35.0611 21.557,35.8851 26.494,35.8851 C35.421,35.8851 39.915,31.1371 39.915,25.6301 C39.915,17.3371 32.445,16.0071 26.558,15.6271 C22.569,15.3741 20.734,14.2341 20.734,12.2091 C20.734,10.2461 22.76,9.1071 26.432,9.1071 C29.406,9.1071 31.938,9.8041 34.154,11.8921 L38.459,6.8281 Z" id="Stroke-6" stroke="#FF5722" stroke-width="2"></path>
            </g>
        </g>
    </g>
</svg>