<?xml version="1.0" encoding="UTF-8"?>
<svg width="54px" height="54px" viewBox="0 0 54 54" version="1.1" xmlns="http://www.w3.org/2000/svg" xmlns:xlink="http://www.w3.org/1999/xlink">
    <!-- Generator: Sketch 46.2 (44496) - http://www.bohemiancoding.com/sketch -->
    <title>Page 1</title>
    <desc>Created with Sketch.</desc>
    <defs>
        <polygon id="path-1" points="32.901 41.9999 32.901 0.714 0.0004 0.714 0.0004 41.9999 32.901 41.9999"></polygon>
        <polygon id="path-3" points="0 42.2861 32.901 42.2861 32.901 1.0001 0 1.0001"></polygon>
    </defs>
    <g id="Page-1" stroke="none" stroke-width="1" fill="none" fill-rule="evenodd">
        <g id="shopee-design-confirm" transform="translate(-1345.000000, -713.000000)">
            <g id="Page-1" transform="translate(1355.000000, 718.000000)">
                <g id="Group-3" transform="translate(0.000000, 0.286100)">
                    <mask id="mask-2" fill="white">
                        <use xlink:href="#path-1"></use>
                    </mask>
                    <g id="Clip-2"></g>
                    <path d="M3.6084,2.7139 L30.8834,2.7139 L30.8834,30.0169 L6.9194,30.0199 C4.9964,30.0199 3.2544,30.7029 2.0004,31.8039 L2.0004,4.2499 C2.0004,3.4029 2.7214,2.7139 3.6084,2.7139 L3.6084,2.7139 Z M6.9194,39.9999 C4.2074,39.9999 2.0004,38.2099 2.0004,36.0099 C2.0004,33.8099 4.2074,32.0199 6.9194,32.0199 L30.8834,32.0169 L30.8834,32.0919 L32.8834,32.0919 L32.8834,32.0169 L32.8994,32.0169 L32.8994,30.0169 L32.8834,30.0169 L32.8834,2.1379 C32.8834,1.3529 32.2394,0.7139 31.4474,0.7139 L3.6084,0.7139 C1.6194,0.7139 0.0004,2.2999 0.0004,4.2499 L0.0004,36.4639 L0.0264,36.4639 C0.2964,39.5549 3.2804,41.9999 6.9194,41.9999 L32.9014,41.9999 L32.9014,39.9999 L6.9194,39.9999 Z" id="Fill-1" fill="#FF5722" mask="url(#mask-2)"></path>
                </g>
                <mask id="mask-4" fill="white">
                    <use xlink:href="#path-3"></use>
                </mask>
                <g id="Clip-5"></g>
                <polygon id="Fill-4" fill="#FF5722" mask="url(#mask-4)" points="6.42 37.2961 32.855 37.2961 32.855 35.2961 6.42 35.2961"></polygon>
                <polygon id="Fill-6" fill="#FF5722" mask="url(#mask-4)" points="5.487 26.1111 7.487 26.1111 7.487 7.5491 5.487 7.5491"></polygon>
            </g>
        </g>
    </g>
</svg>