<?xml version="1.0" encoding="UTF-8"?>
<svg width="23px" height="23px" viewBox="0 0 23 23" version="1.1" xmlns="http://www.w3.org/2000/svg" xmlns:xlink="http://www.w3.org/1999/xlink">
    <!-- Generator: Sketch 44.1 (41455) - http://www.bohemiancoding.com/sketch -->
    <title>ins</title>
    <desc>Created with Sketch.</desc>
    <defs></defs>
    <g id="Page-1" stroke="none" stroke-width="1" fill="none" fill-rule="evenodd">
        <g id="shopee-design-copy" transform="translate(-1534.000000, -2630.000000)" fill-rule="nonzero">
            <g id="Group-3" transform="translate(340.000000, 2609.000000)">
                <g id="Group-9" transform="translate(1152.000000, 21.000000)">
                    <g id="ins" transform="translate(42.586207, 0.741935)">
                        <path d="M11.2008672,5.341092 C8.04039473,5.341092 5.42218007,7.89879596 5.42218007,11.0843373 C5.42218007,14.2704655 7.99530294,16.8275827 11.2008672,16.8275827 C14.4064314,16.8275827 16.9795542,14.2252847 16.9795542,11.0843373 C16.9795542,7.94339004 14.3607615,5.341092 11.2008672,5.341092 Z M11.2008672,14.763934 C9.16942393,14.763934 7.49871509,13.103392 7.49871509,11.0843373 C7.49871509,9.06528266 9.16942395,7.40532752 11.2008672,7.40532752 C13.2323104,7.40532752 14.9030192,9.06528268 14.9030192,11.0843373 C14.9030192,13.103392 13.2323104,14.7633472 11.2008672,14.7633472 L11.2008672,14.763934 Z" id="Shape" fill="#4A4A4A"></path>
                        <path d="M15.8961949,5.20613631 C15.8961949,5.92490309 16.4824317,6.5075787 17.2055913,6.5075787 C17.928751,6.5075787 18.5149877,5.92490309 18.5149877,5.20613631 C18.5149877,4.48736952 17.928751,3.90469391 17.2055913,3.90469391 C16.4824317,3.90469391 15.8961949,4.48736952 15.8961949,5.20613631 L15.8961949,5.20613631 Z" id="Shape" fill="#222222"></path>
                        <path d="M20.5915227,1.84104517 C19.4179798,0.629377658 17.747271,0.0015402536 15.8511031,0.0015402536 L6.55063117,0.0015402536 C2.62302011,0.0015402536 0.00422735587,2.60383829 0.00422735587,6.5075787 L0.00422735587,15.7056901 C0.00422735587,17.6355566 0.636668703,19.2955118 1.90039519,20.5071793 C3.11960798,21.673666 4.74464693,22.2569093 6.59572297,22.2569093 L15.8060113,22.2569093 C17.747271,22.2569093 19.372888,21.6290719 20.5464309,20.5071793 C21.7650656,19.3406926 22.397507,17.6801507 22.397507,15.7508709 L22.397507,6.5075787 C22.397507,4.62289296 21.7650656,3.00753187 20.5915227,1.84104517 Z M20.4105774,15.7508709 C20.4105774,17.1415014 19.9139896,18.263394 19.1017591,19.0261871 C18.2889506,19.7889802 17.1604995,20.1932606 15.8060113,20.1932606 L6.59572297,20.1932606 C5.2412348,20.1932606 4.11278369,19.7889802 3.30055325,19.0261871 C2.48774472,18.2188 2.08076236,17.0969073 2.08076238,15.7056901 L2.08076238,6.5075787 C2.08076238,5.16154225 2.48774474,4.03964961 3.30055325,3.23226245 C4.06769188,2.46946935 5.24123477,2.065189 6.59572297,2.065189 L15.8961949,2.065189 C17.2506831,2.065189 18.3791342,2.46946935 19.1913646,3.27685651 C19.9590814,4.08483044 20.4111555,5.20613631 20.4111555,6.5075787 L20.4111555,15.7508709 L20.4105774,15.7508709 Z" id="Shape" fill="#4A4A4A"></path>
                    </g>
                </g>
            </g>
        </g>
    </g>
</svg>