<?xml version="1.0" encoding="UTF-8"?>
<svg width="730px" height="256px" viewBox="0 0 730 256" version="1.1" xmlns="http://www.w3.org/2000/svg" xmlns:xlink="http://www.w3.org/1999/xlink">
    <!-- Generator: Sketch 44.1 (41455) - http://www.bohemiancoding.com/sketch -->
    <title>shopee design logoGroup 2</title>
    <desc>Created with Sketch.</desc>
    <defs></defs>
    <g id="Page-2" stroke="none" stroke-width="1" fill="none" fill-rule="evenodd">
        <g id="logo" transform="translate(-167.000000, -445.000000)" fill-rule="nonzero" fill="#ff5722">
            <g id="Group-13" transform="translate(167.000000, 445.000000)">
                <path d="M212.574474,70.360687 L161.389027,70.360687 C160.563455,48.0645494 149.005451,0.994925666 111.854723,0.994925666 C72.2272801,0.994925666 63.145991,51.3676809 63.145991,70.360687 L11.9605436,70.360687 C-2.07417579,70.360687 0.402539408,84.3989958 0.402539408,84.3989958 L10.3094002,221.478953 C10.3094002,221.478953 9.48382846,251.207136 36.7276956,252.032919 C38.3788391,252.032919 184.505036,252.032919 187.807322,252.032919 C213.400046,250.381353 213.400046,220.65317 213.400046,220.65317 L223.306907,83.5732129 C224.132479,84.3989958 225.783622,69.5349041 212.574474,70.360687 Z M112.680295,13.3816688 C144.877592,14.2074516 148.179879,65.4059897 148.179879,70.360687 L76.3551387,70.360687 C76.3551387,66.2317726 78.8318539,14.2074516 112.680295,13.3816688 Z M152.307738,189.273421 C149.831023,216.524255 120.11044,217.350038 115.15701,217.350038 C92.0410016,216.524255 78.0062822,204.137512 78.0062822,204.137512 L78.0062822,204.137512 C77.1807104,203.311729 76.3551387,202.485947 76.3551387,200.834381 C76.3551387,198.357032 78.0062822,196.705467 80.4829974,196.705467 C81.3085691,196.705467 82.1341408,196.705467 82.9597126,197.531249 L82.9597126,197.531249 L82.9597126,197.531249 L82.9597126,197.531249 C84.610856,198.357032 96.994432,208.266427 115.15701,209.09221 C128.366158,208.266427 142.400877,202.485947 143.226449,188.447638 C144.877592,168.628849 116.808154,161.196803 111.854723,159.545237 C106.901293,157.893671 78.0062822,150.461626 79.6574256,127.339705 C80.4829974,117.430311 88.7387147,100.914653 111.854723,100.08887 C132.494016,100.08887 143.226449,109.172482 143.226449,109.172482 L143.226449,109.172482 C144.052021,109.998265 144.877592,110.824048 144.877592,111.649831 C144.877592,114.127179 143.226449,115.778745 140.749734,115.778745 C139.924162,115.778745 139.09859,115.778745 138.273019,114.952962 L138.273019,114.952962 C138.273019,114.952962 125.889443,107.520916 111.854723,107.520916 C96.1688603,108.346699 87.913143,119.081876 87.913143,128.165488 C87.913143,143.02958 107.726865,148.81006 111.854723,150.461626 C130.842873,157.067889 153.958881,164.499934 152.307738,189.273421 Z" id="Shape"></path>
                <path d="M373.85502,160.74778 C373.85502,171.301689 372.114782,180.514186 368.584437,188.355312 C365.052958,196.198955 360.127588,202.739506 353.831006,207.917709 C347.611247,213.032734 340.328771,216.813069 332.026122,219.256447 C323.892913,221.649962 315.193797,222.84243 305.941783,222.84243 L278.208285,222.84243 C272.838789,222.84243 268.485952,218.489594 268.485952,213.120098 L268.485952,108.375462 C268.485952,103.005966 272.838789,98.6531292 278.208285,98.6531292 L305.941783,98.6531292 C315.182526,98.6531292 323.870441,99.8157066 331.993646,102.149358 C340.308553,104.538083 347.60253,108.295037 353.831006,113.417231 C360.132556,118.59952 365.059489,125.171884 368.59043,133.073298 C372.116033,140.962769 373.85502,150.197683 373.85502,160.74778 Z M282.643106,209.159822 L305.140273,209.159822 C313.001015,209.159822 320.346302,208.180182 327.188567,206.228519 C333.84567,204.329671 339.541988,201.439737 344.321308,197.560807 C349.028201,193.740659 352.756937,188.845849 355.527094,182.815983 C358.289945,176.802019 359.697866,169.456572 359.697866,160.74778 C359.697866,152.034903 358.288591,144.658046 355.520578,138.585028 C352.749905,132.506172 349.022857,127.589943 344.321308,123.774132 C339.551235,119.902707 333.867035,117.042952 327.222714,115.196345 C320.369873,113.291786 313.012835,112.335737 305.140273,112.335737 L282.643106,112.335737 L282.643106,209.159822 Z M401.873684,193.973747 C402.855873,197.106618 404.334321,199.887504 406.320444,202.349134 C408.240701,204.729129 410.68202,206.029789 413.693609,207.531666 C416.600571,208.981367 420.136043,209.524592 424.353018,209.524592 C428.656057,209.524592 432.288286,209.257239 435.716231,208.356651 C438.856404,207.531666 441.676265,206.447216 443.10183,205.622428 C446.237133,203.808437 448.490547,203.562859 450.418408,204.464833 C454.334749,206.297143 455.591616,210.377877 453.905131,213.752368 C452.218647,217.126859 446.871011,218.717182 442.584199,220.394538 C438.297387,222.071893 430.772364,222.946355 424.353018,222.946355 C418.860478,222.946355 413.780765,221.9637 409.154722,219.982147 C404.551021,218.010165 400.546351,215.875543 397.180144,212.333708 C393.807673,208.785281 391.21976,204.555165 389.424044,199.686778 C387.650717,194.879092 386.769818,189.687318 386.769818,184.138273 C386.769818,178.72938 387.689653,173.678051 389.541127,169.017955 C391.38365,164.380389 393.930565,160.332313 397.175529,156.909279 C400.449136,153.456029 404.317731,150.77657 408.742734,148.89394 C413.167447,147.011433 417.914146,146.072132 422.940438,146.072132 C428.748526,146.072132 433.919453,147.088539 438.414005,149.164663 C442.828671,151.203887 446.55446,153.928094 449.544283,157.329315 C452.497385,160.688761 454.705643,164.521553 456.150867,168.791894 C457.557286,172.947571 458.263509,177.200303 458.263509,181.528274 C458.263509,185.861004 454.751138,189.373375 450.418408,189.373375 L400.775545,189.373375 C401.028775,190.912871 401.39463,192.445718 401.873684,193.973747 Z M444.376096,172.127752 C443.259071,169.355898 441.76724,167.023678 439.894545,165.093282 C438.056171,163.198264 435.84641,161.729841 433.220259,160.671823 C430.56815,159.603347 427.558392,159.059247 424.158439,159.059247 C420.121649,159.059247 416.815279,159.835983 414.161967,161.335318 C411.276087,162.966071 408.967467,164.932809 407.193985,167.24457 C405.332519,169.67102 403.989063,172.170338 403.141502,174.7554 C402.978696,175.251959 402.831699,175.733591 402.700266,176.200084 L445.598599,176.200084 C445.300988,174.766922 444.892978,173.410372 444.376096,172.127752 Z M507.202003,159.762831 C504.989412,159.098028 502.767082,159.152335 499.656584,159.152335 C498.278177,159.152335 496.789034,159.333352 495.187151,159.70425 C493.785419,160.028806 492.527204,160.553193 491.386846,161.281936 C490.40469,161.90958 489.591318,162.741468 488.915882,163.826677 C488.377416,164.691818 488.081976,165.841039 488.081976,167.379333 C488.081976,169.320654 488.358987,170.681751 488.789973,171.475869 C489.255205,172.333088 489.877881,172.995744 490.720264,173.525806 C491.902513,174.269726 493.766062,175.451133 496.552322,176.272357 C499.338583,177.093581 501.890266,177.828242 504.59949,178.464909 C507.308714,179.101577 510.257218,179.902164 512.902585,181.080845 C515.547953,182.259525 518.247979,183.385232 520.472877,184.938609 C522.951131,186.668874 524.946518,188.859695 526.416559,191.470199 C527.973382,194.234812 528.714561,197.493943 528.714561,201.182088 C528.714561,204.81463 528.276387,207.224412 526.766024,210.223158 C525.301738,213.13042 522.992532,215.309106 520.479778,217.335474 C518.041915,219.301448 515.237349,220.794308 512.098005,221.811941 C509.021727,222.80913 503.253589,223.303361 499.797842,223.303361 C495.187151,223.303361 491.116249,222.553311 486.773632,220.972118 C482.431014,219.390924 476.9399,216.748906 473.26777,213.137888 C471.864,211.757479 471.364887,210.028081 471.364887,208.181977 C471.364887,204.371982 474.335742,202.31727 477.510319,202.31727 C480.135338,202.31727 481.5659,203.128913 484.272205,205.323291 C486.97851,207.517669 492.703489,210.223158 499.9391,210.223158 C501.488378,210.223158 505.566721,209.980631 507.202003,209.485886 C508.75388,209.016374 510.729389,208.722328 512.647411,206.891095 C514.565433,205.059862 515.323976,202.780036 515.323976,201.182088 C515.323976,199.314372 515.242683,197.944083 513.324661,195.805394 C511.406638,193.666705 507.800716,192.44243 504.943665,191.470199 C502.086613,190.497967 497.67471,189.753136 495.456033,189.189471 C492.947809,188.506507 490.579577,187.747 488.351013,186.909674 C485.780718,185.94395 483.488492,184.670175 481.494387,183.083561 C479.327066,181.359127 477.61127,179.209266 476.3772,176.682763 C475.102683,174.073454 474.504094,171.00974 474.504094,167.516701 C474.504094,163.909292 475.278038,160.647886 476.868387,157.812531 C478.380133,155.117315 480.416073,152.859016 482.937972,151.080986 C485.3113,149.407704 487.987651,148.149277 490.942184,147.304226 C493.809392,146.48415 496.718696,146.072132 499.656584,146.072132 C508.882346,146.072132 512.731885,147.695538 516.602381,149.588041 C520.472877,151.480543 523.011754,153.561414 524.040937,154.721415 C525.070121,155.881417 525.531556,157.950851 525.325794,159.762831 C524.939379,163.165682 521.255361,165.029224 519.205945,165.029224 C517.156529,165.029224 514.634106,163.136521 512.647411,162.000234 C510.660717,160.863948 509.414594,160.427634 507.202003,159.762831 Z M547.215927,135.862102 C544.972965,135.862102 542.921187,134.989167 541.306055,133.41851 C539.578292,131.738323 538.731889,129.504204 538.731889,127.055422 C538.731889,124.668892 539.606083,122.482865 541.306055,120.829703 C542.921187,119.259046 544.972965,118.386111 547.215927,118.386111 C549.458888,118.386111 551.510667,119.259046 553.125799,120.829703 C554.825771,122.482865 555.699965,124.668892 555.699965,127.055422 C555.699965,129.575837 554.770394,131.865904 552.923842,133.541895 C551.308572,135.007968 549.363721,135.862102 547.215927,135.862102 Z M541.243816,215.459754 L541.243816,155.377984 C541.243816,151.628555 544.283329,148.589043 548.032757,148.589043 C551.782186,148.589043 554.821698,151.628555 554.821698,155.377984 L554.821698,215.459754 C554.821698,219.209182 551.782186,222.248695 548.032757,222.248695 C544.283329,222.248695 541.243816,219.209182 541.243816,215.459754 Z M628.012127,216.648741 C625.035872,218.524676 621.812803,219.944496 618.358536,220.904253 C614.934656,221.855567 608.933244,222.331645 605.353019,222.331645 C599.957133,222.331645 594.907715,221.34957 590.245898,219.376186 C585.602225,217.410483 581.576123,214.67518 578.20776,211.184774 C574.850184,207.705547 572.241545,204.839703 570.392441,200.132685 C568.546605,195.433985 567.62856,190.366226 567.62856,184.962483 C567.62856,179.563788 568.544851,174.479503 570.385228,169.742064 C572.229421,164.994797 574.830932,160.840476 578.180145,157.316522 C581.552904,153.767792 585.58871,150.999014 590.245898,149.02759 C594.907715,147.054207 599.957133,146.072132 605.353019,146.072132 C612.53101,146.072132 621.692512,147.940229 627.745621,151.652392 C629.353686,152.638563 630.863722,153.748006 632.275018,154.978279 C632.275018,151.034801 635.31453,147.995289 639.063958,147.995289 C642.813387,147.995289 645.852899,151.034801 645.852899,154.78423 L645.852899,212.848261 C645.852899,218.284129 645.265907,223.496048 644.08788,228.476865 C642.851424,233.704732 640.783173,238.362477 637.8798,242.411162 C634.881926,246.591626 630.929421,249.913654 626.089879,252.347937 C621.205731,254.804656 615.347509,255.997032 608.552215,255.997032 C601.74774,255.997032 595.585646,254.834711 590.102214,252.482164 C584.611137,250.126337 579.891885,246.776674 575.991236,242.456595 L575.772357,242.197809 C574.400237,240.464704 573.558741,239.067163 573.209417,237.50036 C572.313815,233.483369 575.25843,230.263676 579.107754,230.263676 C581.921518,230.263676 584.416983,231.387907 586.066332,233.581102 C589.062888,236.821792 592.403121,239.143977 596.120862,240.597578 C600.077956,242.144765 604.210442,242.916829 608.552215,242.916829 C613.393682,242.916829 617.263596,242.088892 620.208977,240.51354 C623.220396,238.902867 625.526405,236.838333 627.201949,234.287959 C628.998858,231.552853 630.281697,228.386085 631.044906,224.753246 C631.720069,221.539498 632.117829,215.725384 632.236886,212.293636 C630.898908,213.433861 629.490317,215.717037 628.012127,216.648741 Z M582.159279,184.869395 C582.159279,188.385006 582.73701,191.717191 583.892276,194.893857 C585.032202,198.028339 586.642794,199.499222 588.734312,201.834471 C590.788015,204.127497 593.280312,205.940623 596.25378,207.292535 C599.175391,208.62087 602.510259,209.295722 606.305856,209.295722 C609.905839,209.295722 615.638512,208.624598 618.568322,207.292535 C621.567925,205.928741 624.130786,204.092316 626.292922,201.764439 C628.487886,199.401217 630.215339,197.898766 631.485587,194.733388 C632.740944,191.605115 633.369113,188.283499 633.369113,184.732027 C633.369113,181.180554 632.740944,177.858939 631.485587,174.730666 C630.22008,171.577102 628.502104,168.862263 626.321951,166.552847 C624.155129,164.257552 621.582171,162.432706 618.568322,161.062434 C615.638512,159.730371 609.905839,159.059247 606.305856,159.059247 C602.528868,159.059247 599.211963,159.749109 596.3033,161.108291 C593.309512,162.507252 590.799811,164.35167 588.734312,166.657867 C586.642794,168.993115 585.032202,171.710451 583.892276,174.844934 C582.73701,178.021599 582.159279,181.353785 582.159279,184.869395 Z M675.497476,151.91336 C678.204957,149.993518 681.148148,148.534924 684.309169,147.546859 C687.454468,146.563709 692.156872,145.771692 696.972878,145.771692 C705.206893,145.771692 710.939552,147.842889 714.758076,149.81562 C718.51139,151.754662 721.566192,154.375855 723.852611,157.652532 C726.026025,160.767261 727.986389,164.086134 728.889344,167.927787 C729.735032,171.525788 729.738522,175.355622 729.738522,179.055644 L729.738522,215.69021 C729.738522,219.439639 726.699009,222.479151 722.949581,222.479151 C719.200152,222.479151 716.16064,219.439639 716.16064,215.69021 L716.16064,179.33038 C716.16064,177.112366 715.912033,174.694758 715.407768,172.0794 C714.969665,169.807191 714.163926,167.787367 712.985735,165.981945 C711.868894,164.270536 710.346732,162.823551 708.364885,161.619005 C706.613051,160.554258 702.76998,158.819582 696.972878,158.819582 C691.175777,158.819582 687.636296,160.448272 685.79932,161.619005 C684.574669,162.399493 682.67536,164.015163 680.101392,166.466013 C678.011807,168.887164 676.477169,171.190778 675.497476,173.376855 C674.027938,176.655969 673.448865,180.549384 673.448865,184.825115 L673.448865,214.866 C673.448865,218.615429 670.409353,221.654941 666.659924,221.654941 C662.910496,221.654941 659.870983,218.615429 659.870983,214.866 L659.870983,169.165121 C659.870983,168.219818 659.84847,167.037571 659.803055,165.624318 C659.755914,164.157338 659.708775,162.667499 659.661636,161.154756 C659.649845,160.776371 659.628517,160.302787 659.59765,159.715697 C659.588525,159.542153 659.582785,159.436328 659.567403,159.157368 C659.558787,159.002052 659.503045,158.01819 659.48988,157.774495 C659.460178,157.22467 659.447209,156.927198 659.447209,156.6646 C659.447209,156.665387 659.404155,156.079714 659.32891,155.238657 C659.001883,151.580151 661.70239,148.349061 665.360963,148.021748 C665.558028,148.004117 665.755782,147.995289 665.953634,147.995289 C669.454333,147.995289 672.377395,150.608098 672.806845,154.039587 C673.668826,153.28294 674.565804,152.573998 675.497476,151.91336 Z" id="Design"></path>
            </g>
        </g>
    </g>
</svg>