<?xml version="1.0" encoding="UTF-8"?>
<svg width="23px" height="23px" viewBox="0 0 23 23" version="1.1" xmlns="http://www.w3.org/2000/svg" xmlns:xlink="http://www.w3.org/1999/xlink">
    <!-- Generator: Sketch 44.1 (41455) - http://www.bohemiancoding.com/sketch -->
    <title>facebook (1)</title>
    <desc>Created with Sketch.</desc>
    <defs></defs>
    <g id="Page-1" stroke="none" stroke-width="1" fill="none" fill-rule="evenodd">
        <g id="shopee-design-copy" transform="translate(-1492.000000, -2630.000000)" fill-rule="nonzero" fill="#4A4A4A">
            <g id="Group-3" transform="translate(340.000000, 2609.000000)">
                <g id="Group-9" transform="translate(1152.000000, 21.000000)">
                    <g id="facebook-(1)">
                        <path d="M22.386319,6.18828881 C22.3819543,5.83469316 22.3797569,5.68932709 22.3775896,5.52228908 C22.3688301,5.02332736 22.3360798,4.52003124 22.2508928,4.06880746 C22.1569463,3.57854438 22.0324469,3.13162509 21.8030741,2.6847357 C21.571504,2.23132978 21.2547469,1.84084709 20.9118015,1.49158584 C20.5600665,1.15099335 20.1646845,0.836437004 19.7102736,0.606475795 C19.2602576,0.38084895 18.8124088,0.255032407 18.3165483,0.161768517 C17.8621675,0.0771734125 17.3553501,0.0446207303 16.8528974,0.0359519736 C16.6846908,0.0337698362 16.5383377,0.0316175806 16.182238,0.027253335 C15.84146,0.0251010795 15.5640153,0.0229189421 15.3586635,0.0229189421 L7.05079502,0.0229189129 C6.8454432,0.0229189129 6.56799854,0.0251010503 6.22938777,0.0272533058 C5.87328811,0.0315876988 5.72693507,0.033769807 5.55872838,0.0359519444 C5.05627567,0.044620701 4.54945825,0.0771733833 4.09507748,0.161768487 C3.60138427,0.255062259 3.1513381,0.378696665 2.70132205,0.606475766 C2.24474388,0.836436975 1.85152918,1.15099332 1.49982432,1.49158581 C1.15684887,1.84084706 0.840091732,2.23351189 0.608521599,2.68473567 C0.381316155,3.13162509 0.254619337,3.57633233 0.160702926,4.06880743 C0.0755159517,4.52003121 0.0427355145,5.02332733 0.0340061069,5.52228905 C0.0318087021,5.63510247 0.0318087021,5.73921722 0.0296413884,5.90192084 L0.0230792945,15.6640779 C0.0230792945,15.7877123 0.0252766992,15.9222275 0.0252766992,16.0697458 C0.0296414178,16.4233714 0.0318387931,16.5687075 0.0340061069,16.7357456 C0.0427355145,17.2347073 0.0755159517,17.7380034 0.160702926,18.1892272 C0.20221277,18.4040031 0.248087304,18.6100804 0.307055964,18.8096711 C0.383513531,19.0678207 0.479627346,19.3194837 0.60852157,19.5711168 C0.840091703,20.0245227 1.15684884,20.4150054 1.49982429,20.7642667 C1.85152915,21.1048592 2.24694125,21.4194155 2.70132202,21.6493767 C3.1513381,21.8750035 3.59915674,22.0008201 4.09507745,22.094084 C4.54945822,22.1786791 5.05627564,22.2112318 5.55872835,22.2199005 C5.72693501,22.2220827 5.87328808,22.2242349 6.22938775,22.2285693 C6.56799851,22.2307514 6.84541308,22.2329037 7.05079499,22.2329037 L11.7257244,22.2329037 L11.7257244,13.6205528 L8.91419266,13.6205528 L8.91419263,10.3990332 L11.7060682,10.3990332 L11.7060682,7.40095831 C11.7060682,5.0992537 13.4974031,3.45051579 15.8130142,3.45051579 L18.8102115,3.51559124 L18.8102115,6.60911213 L16.5207886,6.60911213 C15.8588887,6.60911213 15.3214883,7.33585295 15.3214883,7.99533615 L15.3214883,10.3990033 L18.6988061,10.3990033 L18.2182071,13.6226751 L15.2144476,13.6226751 L15.2144476,22.2350858 L15.3586334,22.2350858 C15.5639852,22.2350858 15.8414299,22.2329037 16.1800406,22.2307514 C16.46185,22.2285693 16.6125979,22.226417 16.7458267,22.226417 C16.7807744,22.226417 16.8157222,22.226417 16.8528673,22.2242349 C17.35532,22.2155661 17.8621375,22.1830134 18.3165182,22.0984183 C18.8102114,22.0051246 19.2602576,21.8814902 19.7102436,21.6536812 C20.1668217,21.42372 20.5600364,21.1091636 20.9117714,20.7685711 C21.2547469,20.4193099 21.571504,20.0266451 21.803044,19.5754213 C22.0302495,19.1285319 22.1569463,18.6838246 22.2508627,18.1913794 C22.3360798,17.7401556 22.3688301,17.2368595 22.3775595,16.7378978 C22.3797268,16.5708598 22.3819242,16.4254937 22.3862889,16.0718981 C22.3884863,15.7356399 22.3906837,15.4601229 22.3906837,15.2562277 L22.3906837,6.7696934 C22.3906837,6.60480765 22.3885164,6.40955135 22.386319,6.18828881 Z" id="Shape"></path>
                    </g>
                </g>
            </g>
        </g>
    </g>
</svg>