<?xml version="1.0" encoding="UTF-8"?>
<svg width="42px" height="45px" viewBox="0 0 42 45" version="1.1" xmlns="http://www.w3.org/2000/svg" xmlns:xlink="http://www.w3.org/1999/xlink">
    <!-- Generator: Sketch 45.2 (43514) - http://www.bohemiancoding.com/sketch -->
    <title>Path</title>
    <desc>Created with Sketch.</desc>
    <defs>
        <linearGradient x1="100%" y1="13.0231981%" x2="28.7252312%" y2="100%" id="linearGradient-1">
            <stop stop-color="#FD9A3D" offset="0%"></stop>
            <stop stop-color="#FF4D2F" offset="100%"></stop>
        </linearGradient>
    </defs>
    <g id="Final" stroke="none" stroke-width="1" fill="none" fill-rule="evenodd">
        <g id="Desktop-HD" transform="translate(-123.000000, -41.000000)" fill-rule="nonzero" fill="url(#linearGradient-1)">
            <g id="Group-9" transform="translate(87.000000, 41.000000)">
                <path d="M73.0886867,30.5370348 C73.0886867,31.5827082 72.501611,32.5398361 71.5695152,33.0137878 L58.5686516,39.624462 C57.803838,40.0133541 56.9022567,40.0270933 56.1259484,39.6616864 L42.5065443,33.251057 C41.5328066,32.7927204 40.911319,31.813294 40.911319,30.7370796 L40.911319,20.6584149 C40.911319,19.3599488 39.8587043,18.3073342 38.5602383,18.3073342 C37.2617723,18.3073342 36.2091576,19.3599488 36.2091576,20.6584149 L36.2091576,30.7370796 C36.2091576,33.6345798 37.8823935,36.2714972 40.5039948,37.5054803 L54.1233989,43.9161097 C56.2134597,44.8998976 58.640794,44.8629074 60.6999074,43.8158903 L73.7007711,37.205216 C76.2102598,35.9291922 77.7908481,33.3523093 77.7908481,30.5370348 L77.7908481,12.4783286 C77.7908481,10.754097 75.9964044,9.61638687 74.4369029,10.351866 L58.6704433,17.7875121 C57.8925084,18.1543953 56.9885206,18.1403222 56.222383,17.7494012 L43.8734046,11.4483471 L56.1385847,5.60102629 C56.9140485,5.23133049 57.8169127,5.2411286 58.5841708,5.62756639 L67.5729904,10.1548824 C68.7326706,10.7389679 70.146272,10.2723561 70.7303574,9.11267592 C71.3144429,7.95299571 70.8478311,6.53939433 69.6881509,5.95530888 L60.6993313,1.42799285 C58.6336366,0.387583416 56.2028484,0.361203902 54.1150612,1.35653873 L37.5484766,9.2545177 C35.7892582,10.0932102 35.7556831,12.5851923 37.4916672,13.4709764 L54.0852407,21.9378311 C56.1479189,22.9903106 58.5817322,23.0281997 60.6761724,22.0404373 L73.0886867,16.1865509 L73.0886867,30.5370348 Z" id="Path"></path>
            </g>
        </g>
    </g>
</svg>